<?xml version="1.0" standalone="no"?>
<!DOCTYPE svg PUBLIC "-//W3C//DTD SVG 1.1//EN" "http://www.w3.org/Graphics/SVG/1.1/DTD/svg11.dtd" >
<svg>
<metadata>
Created by FontForge 20090622 at Fri Apr 22 09:14:38 2016
 By deploy user
(c) Copyright 1995-1997 International Typeface Corporation  All rights reserved.
</metadata>
<defs>
<font id="ConduitITC-LightItalic" horiz-adv-x="510" >
  <font-face 
    font-family="Conduit ITC"
    font-weight="300"
    font-style="italic"
    font-stretch="normal"
    units-per-em="1000"
    panose-1="2 0 5 6 4 0 0 9 0 3"
    ascent="800"
    descent="-200"
    x-height="441"
    cap-height="629"
    bbox="-166 -242 907 857"
    underline-thickness="47"
    underline-position="-66"
    slope="-7"
    unicode-range="U+0020-U+FB02"
  />
<missing-glyph horiz-adv-x="174" 
 />
    <glyph glyph-name="fi" unicode="fi" horiz-adv-x="485" 
d="M295 590q-1 -5 -3.5 -6.5t-6.5 -3.5q-20 -9 -37 -17.5t-30.5 -19.5t-23 -27t-13.5 -40l-13 -71v-2q0 -8 9 -8h74q8 0 8 -7v-3l-7 -37q-1 -10 -11 -10h-74q-11 0 -12 -10l-68 -387q-6 -33 -24 -65t-48 -59q-57 -51 -133 -51q-38 0 -38 9q0 4 2 7l20 37q3 6 11 6
q2 0 5 -0.5t10 -1.5q111 18 126 107l70 398v3q0 7 -8 7h-27q-9 0 -9 8v2l7 37q1 10 12 10h27q10 0 11 10l11 61q5 26 20 55t41 57q27 29 58.5 44.5t62.5 15.5q8 0 8 -7v-3zM360 10q-1 -10 -12 -10h-48q-8 0 -8 7v3l74 422q1 10 12 10h48q8 0 8 -7v-3zM473 603q0 -20 -16 -36
t-37 -16q-16 0 -26 9.5t-10 26.5q0 21 16 37t36 16q17 0 27 -10t10 -27z" />
    <glyph glyph-name="fl" unicode="fl" horiz-adv-x="488" 
d="M363 10q-1 -10 -12 -10h-48q-8 0 -8 7v3l97 552v3q0 7 -8 7h-80q-22 0 -43 -8t-37.5 -22.5t-28.5 -34t-16 -41.5l-11 -61v-2q0 -8 9 -8h74q8 0 8 -7v-3l-7 -37q-1 -10 -11 -10h-74q-11 0 -12 -10l-68 -387q-6 -33 -24 -65t-48 -59q-57 -51 -133 -51q-38 0 -38 9q0 4 2 7
l20 37q3 6 11 6q2 0 5 -0.5t10 -1.5q111 18 126 107l70 398v3q0 7 -8 7h-27q-9 0 -9 8v2l7 37q1 10 12 10h27q10 0 11 10l9 51q12 71 72 122t132 51h148q8 0 8 -7v-3z" />
    <glyph glyph-name=".notdef" horiz-adv-x="174" 
 />
    <glyph glyph-name=".null" horiz-adv-x="0" 
 />
    <glyph glyph-name="nonmarkingreturn" horiz-adv-x="174" 
 />
    <glyph glyph-name="space" unicode=" " horiz-adv-x="174" 
 />
    <glyph glyph-name="space" unicode="&#xa0;" horiz-adv-x="174" 
 />
    <glyph glyph-name="Acircumflex" unicode="&#xc2;" horiz-adv-x="448" 
d="M390 700q2 -6 2 -8q0 -8 -12 -8h-35l-8 4l-33 62q-3 5 -8 5q-3 0 -8 -5l-58 -62l-8 -4h-34q-11 0 -11 7q0 4 5 9l99 105l9 4h31l7 -4zM265 478q-2 14 -2.5 24t-1.5 15h-4q-8 -17 -12 -26.5t-6 -12.5l-116 -257q-2 -4 -2 -6q0 -7 10 -7h144q12 0 12 11v2zM383 10
q0 -10 -12 -10h-51q-8 0 -9 7l-14 138q0 6 -9 6h-188q-9 0 -11 -6l-64 -138q-3 -7 -11 -7h-51q-10 0 -10 6q0 1 2 7l293 609q3 7 11 7h38q8 0 9 -7l77 -609v-3z" />
    <glyph glyph-name="Adieresis" unicode="&#xc4;" horiz-adv-x="448" 
d="M265 478q-2 14 -2.5 24t-1.5 15h-4q-8 -17 -12 -26.5t-6 -12.5l-116 -257q-2 -4 -2 -6q0 -7 10 -7h144q12 0 12 11v2zM383 10q0 -10 -12 -10h-51q-8 0 -9 7l-14 138q0 6 -9 6h-188q-9 0 -11 -6l-64 -138q-3 -7 -11 -7h-51q-10 0 -10 6q0 1 2 7l293 609q3 7 11 7h38
q8 0 9 -7l77 -609v-3zM254 750q0 -21 -15.5 -36t-36.5 -15q-16 0 -26.5 10t-10.5 27q0 21 15.5 36t36.5 15q37 0 37 -37zM417 750q0 -20 -16 -35.5t-37 -15.5q-16 0 -26 9.5t-10 26.5q0 22 15 37t36 15q17 0 27.5 -10t10.5 -27z" />
    <glyph glyph-name="Agrave" unicode="&#xc0;" horiz-adv-x="448" 
d="M317 700q1 -2 1 -6q0 -10 -10 -10h-2l-27 2l-99 105q-3 3 -3 7q0 10 13 10h68l7 -4zM265 478q-2 14 -2.5 24t-1.5 15h-4q-8 -17 -12 -26.5t-6 -12.5l-116 -257q-2 -4 -2 -6q0 -7 10 -7h144q12 0 12 11v2zM383 10q0 -10 -12 -10h-51q-8 0 -9 7l-14 138q0 6 -9 6h-188
q-9 0 -11 -6l-64 -138q-3 -7 -11 -7h-51q-10 0 -10 6q0 1 2 7l293 609q3 7 11 7h38q8 0 9 -7l77 -609v-3z" />
    <glyph glyph-name="Aring" unicode="&#xc5;" horiz-adv-x="448" 
d="M351 782q0 2 0.5 3.5t0.5 3.5q0 14 -10 22t-27 8q-44 0 -50 -38l-5 -30q0 -2 -0.5 -4t-0.5 -4q0 -14 9.5 -22t26.5 -8q20 0 34 11t17 29zM384 751q-5 -32 -30.5 -54t-63.5 -22q-32 0 -50.5 17.5t-18.5 45.5q0 10 1 15l5 29q6 35 30.5 55t62.5 20q32 0 50.5 -16.5
t18.5 -46.5q0 -8 -1 -13zM265 478q-2 14 -2.5 24t-1.5 15h-4q-8 -17 -12 -26.5t-6 -12.5l-116 -257q-2 -4 -2 -6q0 -7 10 -7h144q12 0 12 11v2zM383 10q0 -10 -12 -10h-51q-8 0 -9 7l-14 138q0 6 -9 6h-188q-9 0 -11 -6l-64 -138q-3 -7 -11 -7h-51q-10 0 -10 6q0 1 2 7
l293 609q3 7 11 7h38q8 0 9 -7l77 -609v-3z" />
    <glyph glyph-name="Atilde" unicode="&#xc3;" horiz-adv-x="448" 
d="M265 478q-2 14 -2.5 24t-1.5 15h-4q-8 -17 -12 -26.5t-6 -12.5l-116 -257q-2 -4 -2 -6q0 -7 10 -7h144q12 0 12 11v2zM383 10q0 -10 -12 -10h-51q-8 0 -9 7l-14 138q0 6 -9 6h-188q-9 0 -11 -6l-64 -138q-3 -7 -11 -7h-51q-10 0 -10 6q0 1 2 7l293 609q3 7 11 7h38
q8 0 9 -7l77 -609v-3zM432 767q3 -3 3 -7q0 -2 -2 -6q-21 -30 -45 -45t-45 -15q-28 0 -57 26l-18 13q-20 15 -39 15q-12 0 -22.5 -4.5t-18.5 -10l-14 -10t-9 -4.5q-2 0 -6 2l-9 7q-3 3 -3 6t2 7q45 59 91 59q27 0 53 -23l18 -16q17 -15 41 -15q13 0 24 4.5t19 10.5
t13.5 10.5t8.5 4.5q5 0 7 -2z" />
    <glyph glyph-name="B" unicode="B" horiz-adv-x="521" 
d="M370 185q1 5 1.5 9.5t0.5 9.5q0 37 -25.5 62t-66.5 25h-127q-10 0 -11 -10l-38 -214v-3q0 -7 8 -7h127q23 0 44 8t38 22.5t29 34t16 42.5zM419 466q1 5 1.5 10t0.5 10q0 36 -25 61t-66 25h-127q-11 0 -12 -10l-36 -204v-3q0 -7 8 -7h127q45 0 81 30.5t46 77.5zM482 445
q-6 -38 -47 -82q-20 -21 -38.5 -29t-18.5 -14q0 -5 6.5 -10t14.5 -14q18 -20 29 -37.5t11 -45.5q0 -6 -0.5 -12t-1.5 -13l-2 -15q-5 -39 -22 -71t-44 -54.5t-62.5 -35t-77.5 -12.5h-194q-8 0 -8 7v3l107 609q1 10 12 10h194q70 0 109 -36t39 -97q0 -21 -4 -40z" />
    <glyph glyph-name="C" unicode="C" horiz-adv-x="464" 
d="M327 640q33 0 59 -9t44 -22t27.5 -28.5t9.5 -27.5q0 -4 -8 -8l-46 -21q-2 -1 -5 -1t-6 4l-17.5 21t-18 17.5t-21.5 12t-28 4.5h-31q-23 0 -44 -8t-37.5 -22t-28 -33.5t-15.5 -42.5l-57 -322q-1 -5 -1.5 -10t-0.5 -10q0 -38 25 -62.5t64 -24.5h31q34 0 56.5 17t48.5 40
q4 4 8 4q3 0 5 -1l38 -21q6 -3 6 -7q0 -10 -17 -27t-52 -38q-18 -11 -44.5 -17.5t-58.5 -6.5h-31q-70 0 -109 35.5t-39 95.5q0 15 3 33l57 322q6 37 24 67t44.5 51.5t60.5 33.5t74 12h31z" />
    <glyph glyph-name="Ccedilla" unicode="&#xc7;" horiz-adv-x="464" 
d="M190 -62q-2 -4 -2 -7q0 -4 4 -8q34 -22 34 -58v-8l-1 -9q-4 -34 -34 -59t-74 -25h-36q-8 0 -8 7v3l2 16q3 10 12 10h36q22 0 38.5 14.5t18.5 33.5l1 9v6q0 26 -16 33t-24.5 8.5t-8.5 6.5q0 2 3 7l46 72q-72 2 -110 36t-38 94q0 16 3 34l57 322q6 37 24 67t44.5 51.5
t60.5 33.5t74 12h31q33 0 59 -9t44 -22t27.5 -28.5t9.5 -27.5q0 -4 -8 -8l-46 -21q-2 -1 -5 -1t-6 4l-17.5 21t-18 17.5t-21.5 12t-28 4.5h-31q-23 0 -44 -8t-37.5 -22t-28 -33.5t-15.5 -42.5l-57 -322q-1 -5 -1.5 -10t-0.5 -10q0 -38 25 -62.5t64 -24.5h31q34 0 56.5 17
t48.5 40q4 4 8 4q3 0 5 -1l38 -21q6 -3 6 -7q0 -10 -10 -23t-30.5 -26t-50.5 -23.5t-69 -16.5z" />
    <glyph glyph-name="D" unicode="D" horiz-adv-x="526" 
d="M419 466q1 5 1.5 9t0.5 9q0 38 -25 63t-66 25h-127q-11 0 -12 -10l-87 -495v-3q0 -7 8 -7h127q23 0 44 8t38 22.5t29 34t16 42.5zM435 175q-7 -40 -25 -72.5t-45 -55t-61.5 -35t-74.5 -12.5h-194q-8 0 -8 7v3l107 609q1 10 12 10h194q70 0 108.5 -36t38.5 -99
q0 -19 -3 -38z" />
    <glyph glyph-name="E" unicode="E" horiz-adv-x="443" 
d="M322 640q33 0 59 -8.5t44 -21.5t27.5 -28.5t9.5 -28.5q0 -5 -8 -8l-46 -22q-2 -1 -5 -1q-5 0 -7 5q-31 55 -84 55h-31q-45 0 -80.5 -29.5t-45.5 -76.5l-4 -20q-2 -6 -2 -11.5v-10.5q0 -37 25 -61.5t65 -24.5h70q9 0 9 -8v-2l-7 -37q-1 -10 -12 -10h-70q-22 0 -42.5 -8
t-37.5 -22.5t-29 -34t-16 -41.5l-6 -31q-1 -5 -1.5 -9.5t-0.5 -9.5q0 -37 25.5 -62.5t64.5 -25.5h31q18 0 29 3t18.5 8t12.5 11.5t11 13.5q10 12 17.5 18.5t21.5 6.5q6 0 9 -2l36 -20q5 -3 5 -7q0 -11 -12.5 -26t-35 -29t-53.5 -24t-69 -10h-31q-70 0 -108.5 36t-38.5 100
q0 16 3 36l4 26q7 40 37 75t81 55l1 4q-38 17 -57 43t-19 58q0 5 0.5 11t1.5 11l4 21q15 81 70.5 127.5t135.5 46.5h31z" />
    <glyph glyph-name="Eacute" unicode="&#xc9;" horiz-adv-x="443" 
d="M322 640q33 0 59 -8.5t44 -21.5t27.5 -28.5t9.5 -28.5q0 -5 -8 -8l-46 -22q-2 -1 -5 -1q-5 0 -7 5q-31 55 -84 55h-31q-45 0 -80.5 -29.5t-45.5 -76.5l-4 -20q-2 -6 -2 -11.5v-10.5q0 -37 25 -61.5t65 -24.5h70q9 0 9 -8v-2l-7 -37q-1 -10 -12 -10h-70q-22 0 -42.5 -8
t-37.5 -22.5t-29 -34t-16 -41.5l-6 -31q-1 -5 -1.5 -9.5t-0.5 -9.5q0 -37 25.5 -62.5t64.5 -25.5h31q18 0 29 3t18.5 8t12.5 11.5t11 13.5q10 12 17.5 18.5t21.5 6.5q6 0 9 -2l36 -20q5 -3 5 -7q0 -11 -12.5 -26t-35 -29t-53.5 -24t-69 -10h-31q-70 0 -108.5 36t-38.5 100
q0 16 3 36l4 26q7 40 37 75t81 55l1 4q-38 17 -57 43t-19 58q0 5 0.5 11t1.5 11l4 21q15 81 70.5 127.5t135.5 46.5h31zM315 686l-26 -2q-10 0 -10 6q0 3 5 10l88 104l9 4h68q10 0 10 -7q0 -6 -6 -10z" />
    <glyph glyph-name="Ecircumflex" unicode="&#xca;" horiz-adv-x="443" 
d="M421 700q2 -6 2 -8q0 -8 -12 -8h-35l-8 4l-33 62q-3 5 -8 5q-3 0 -8 -5l-58 -62l-8 -4h-34q-11 0 -11 7q0 4 5 9l99 105l9 4h31l7 -4zM322 640q33 0 59 -8.5t44 -21.5t27.5 -28.5t9.5 -28.5q0 -5 -8 -8l-46 -22q-2 -1 -5 -1q-5 0 -7 5q-31 55 -84 55h-31
q-45 0 -80.5 -29.5t-45.5 -76.5l-4 -20q-2 -6 -2 -11.5v-10.5q0 -37 25 -61.5t65 -24.5h70q9 0 9 -8v-2l-7 -37q-1 -10 -12 -10h-70q-22 0 -42.5 -8t-37.5 -22.5t-29 -34t-16 -41.5l-6 -31q-1 -5 -1.5 -9.5t-0.5 -9.5q0 -37 25.5 -62.5t64.5 -25.5h31q18 0 29 3t18.5 8
t12.5 11.5t11 13.5q10 12 17.5 18.5t21.5 6.5q6 0 9 -2l36 -20q5 -3 5 -7q0 -11 -12.5 -26t-35 -29t-53.5 -24t-69 -10h-31q-70 0 -108.5 36t-38.5 100q0 16 3 36l4 26q7 40 37 75t81 55l1 4q-38 17 -57 43t-19 58q0 5 0.5 11t1.5 11l4 21q15 81 70.5 127.5t135.5 46.5h31z
" />
    <glyph glyph-name="Edieresis" unicode="&#xcb;" horiz-adv-x="443" 
d="M322 640q33 0 59 -8.5t44 -21.5t27.5 -28.5t9.5 -28.5q0 -5 -8 -8l-46 -22q-2 -1 -5 -1q-5 0 -7 5q-31 55 -84 55h-31q-45 0 -80.5 -29.5t-45.5 -76.5l-4 -20q-2 -6 -2 -11.5v-10.5q0 -37 25 -61.5t65 -24.5h70q9 0 9 -8v-2l-7 -37q-1 -10 -12 -10h-70q-22 0 -42.5 -8
t-37.5 -22.5t-29 -34t-16 -41.5l-6 -31q-1 -5 -1.5 -9.5t-0.5 -9.5q0 -37 25.5 -62.5t64.5 -25.5h31q18 0 29 3t18.5 8t12.5 11.5t11 13.5q10 12 17.5 18.5t21.5 6.5q6 0 9 -2l36 -20q5 -3 5 -7q0 -11 -12.5 -26t-35 -29t-53.5 -24t-69 -10h-31q-70 0 -108.5 36t-38.5 100
q0 16 3 36l4 26q7 40 37 75t81 55l1 4q-38 17 -57 43t-19 58q0 5 0.5 11t1.5 11l4 21q15 81 70.5 127.5t135.5 46.5h31zM285 750q0 -21 -15.5 -36t-36.5 -15q-16 0 -26.5 10t-10.5 27q0 21 15.5 36t36.5 15q37 0 37 -37zM448 750q0 -20 -16 -35.5t-37 -15.5q-16 0 -26 9.5
t-10 26.5q0 22 15 37t36 15q17 0 27.5 -10t10.5 -27z" />
    <glyph glyph-name="Egrave" unicode="&#xc8;" horiz-adv-x="443" 
d="M348 700q1 -2 1 -6q0 -10 -10 -10h-2l-27 2l-99 105q-3 3 -3 7q0 10 13 10h68l7 -4zM322 640q33 0 59 -8.5t44 -21.5t27.5 -28.5t9.5 -28.5q0 -5 -8 -8l-46 -22q-2 -1 -5 -1q-5 0 -7 5q-31 55 -84 55h-31q-45 0 -80.5 -29.5t-45.5 -76.5l-4 -20q-2 -6 -2 -11.5v-10.5
q0 -37 25 -61.5t65 -24.5h70q9 0 9 -8v-2l-7 -37q-1 -10 -12 -10h-70q-22 0 -42.5 -8t-37.5 -22.5t-29 -34t-16 -41.5l-6 -31q-1 -5 -1.5 -9.5t-0.5 -9.5q0 -37 25.5 -62.5t64.5 -25.5h31q18 0 29 3t18.5 8t12.5 11.5t11 13.5q10 12 17.5 18.5t21.5 6.5q6 0 9 -2l36 -20
q5 -3 5 -7q0 -11 -12.5 -26t-35 -29t-53.5 -24t-69 -10h-31q-70 0 -108.5 36t-38.5 100q0 16 3 36l4 26q7 40 37 75t81 55l1 4q-38 17 -57 43t-19 58q0 5 0.5 11t1.5 11l4 21q15 81 70.5 127.5t135.5 46.5h31z" />
    <glyph glyph-name="F" unicode="F" horiz-adv-x="453" 
d="M476 582q-2 -10 -12 -10h-261q-11 0 -12 -10l-36 -204v-3q0 -7 8 -7h214q9 0 9 -8v-2l-7 -37q-1 -10 -12 -10h-214q-10 0 -11 -10l-48 -271q-1 -10 -12 -10h-47q-8 0 -8 7v3l107 609q1 10 12 10h328q8 0 8 -7v-3z" />
    <glyph glyph-name="G" unicode="G" 
d="M346 640q33 0 59 -8.5t44 -21.5t27 -28.5t9 -28.5q0 -4 -8 -8l-46 -21q-4 -2 -5 -2t-6 5l-17 21t-17 17.5t-21 12t-29 4.5h-50q-23 0 -44 -8t-37.5 -22t-28 -33.5t-15.5 -42.5l-57 -322q-1 -5 -1.5 -10t-0.5 -10q0 -38 25 -62.5t64 -24.5h31q22 0 43 8.5t38.5 22.5
t29 33.5t15.5 42.5l14 80v2q0 8 -8 8h-105q-8 0 -8 7v3l6 38q3 10 12 10h173q8 0 8 -7v-3l-24 -138q-13 -74 -68 -119t-136 -45h-31q-70 0 -109 35.5t-39 95.5q0 15 3 33l57 322q6 37 24 67t44.5 51.5t60.5 33.5t74 12h50z" />
    <glyph glyph-name="H" unicode="H" horiz-adv-x="557" 
d="M422 10q-1 -10 -12 -10h-48q-8 0 -8 7v3l48 271v2q0 8 -9 8h-240q-10 0 -11 -10l-48 -271q-1 -10 -12 -10h-47q-8 0 -8 7v3l107 609q1 10 12 10h47q8 0 8 -7v-3l-46 -261v-3q0 -7 8 -7h240q11 0 12 10l46 261q1 10 12 10h48q8 0 8 -7v-3z" />
    <glyph glyph-name="I" unicode="I" horiz-adv-x="230" 
d="M94 10q-1 -10 -12 -10h-47q-8 0 -8 7v3l107 609q1 10 12 10h47q8 0 8 -7v-3z" />
    <glyph glyph-name="Iacute" unicode="&#xcd;" horiz-adv-x="230" 
d="M94 10q-1 -10 -12 -10h-47q-8 0 -8 7v3l107 609q1 10 12 10h47q8 0 8 -7v-3zM182 686l-26 -2q-10 0 -10 6q0 3 5 10l88 104l9 4h68q10 0 10 -7q0 -6 -6 -10z" />
    <glyph glyph-name="Icircumflex" unicode="&#xce;" horiz-adv-x="230" 
d="M287 700q2 -6 2 -8q0 -8 -12 -8h-35l-8 4l-33 62q-3 5 -8 5q-3 0 -8 -5l-58 -62l-8 -4h-34q-11 0 -11 7q0 4 5 9l99 105l9 4h31l7 -4zM94 10q-1 -10 -12 -10h-47q-8 0 -8 7v3l107 609q1 10 12 10h47q8 0 8 -7v-3z" />
    <glyph glyph-name="Idieresis" unicode="&#xcf;" horiz-adv-x="230" 
d="M94 10q-1 -10 -12 -10h-47q-8 0 -8 7v3l107 609q1 10 12 10h47q8 0 8 -7v-3zM152 750q0 -21 -15.5 -36t-36.5 -15q-16 0 -26.5 10t-10.5 27q0 21 15.5 36t36.5 15q37 0 37 -37zM315 750q0 -20 -16 -35.5t-37 -15.5q-16 0 -26 9.5t-10 26.5q0 22 15 37t36 15
q17 0 27.5 -10t10.5 -27z" />
    <glyph glyph-name="Igrave" unicode="&#xcc;" horiz-adv-x="230" 
d="M214 700q1 -2 1 -6q0 -10 -10 -10h-2l-27 2l-99 105q-3 3 -3 7q0 10 13 10h68l7 -4zM94 10q-1 -10 -12 -10h-47q-8 0 -8 7v3l107 609q1 10 12 10h47q8 0 8 -7v-3z" />
    <glyph glyph-name="J" unicode="J" horiz-adv-x="417" 
d="M324 164q-6 -36 -25.5 -67.5t-47 -55.5t-61 -37.5t-67.5 -13.5q-44 0 -86 24q-29 17 -43.5 35t-14.5 30q0 5 7 8l46 21q2 1 5 1t6 -5q18 -26 36 -41.5t53 -15.5q21 0 41.5 8.5t37 23.5t28 34.5t15.5 40.5l82 465q1 10 12 10h48q8 0 8 -7v-3z" />
    <glyph glyph-name="K" unicode="K" horiz-adv-x="526" 
d="M296 381q-3 -3 -3 -6q0 -2 0.5 -2.5t0.5 -2.5l157 -355q1 -2 1 -5q0 -10 -13 -10h-60l-8 5l-130 299q-4 7 -8 7t-9 -5l-95 -98l-35 -198q-1 -10 -12 -10h-47q-8 0 -8 7v3l107 609q1 10 12 10h47q8 0 8 -7v-3l-53 -300v-3q0 -9 7 -9q4 0 10 6l293 312l9 4h53q10 0 10 -7
q0 -4 -5 -9z" />
    <glyph glyph-name="L" unicode="L" horiz-adv-x="453" 
d="M375 10q-1 -10 -12 -10h-328q-8 0 -8 7v3l107 609q1 10 12 10h47q8 0 8 -7v-3l-97 -552v-3q0 -7 8 -7h261q8 0 8 -7v-3z" />
    <glyph glyph-name="M" unicode="M" horiz-adv-x="652" 
d="M516 10q-1 -10 -12 -10h-47q-8 0 -8 8q0 36 27.5 157t69.5 332l-240 -397q-5 -5 -10 -6h-19q-5 0 -7 6l-100 396l-59 -372.5t-29 -123.5h-47q-8 0 -8 7v3l107 609q1 10 12 10h46q3 0 8 -6l107 -420l251 420q3 6 10 6h47q8 0 8 -7v-3z" />
    <glyph glyph-name="N" unicode="N" horiz-adv-x="557" 
d="M422 10q-1 -10 -12 -10h-43l-8 5l-183 491l-82 -486q-1 -10 -12 -10h-47q-8 0 -8 7v3l107 609q1 10 12 10h42l8 -5l185 -499l80 494q1 10 12 10h48q8 0 8 -7v-3z" />
    <glyph glyph-name="Ntilde" unicode="&#xd1;" horiz-adv-x="557" 
d="M422 10q-1 -10 -12 -10h-43l-8 5l-183 491l-82 -486q-1 -10 -12 -10h-47q-8 0 -8 7v3l107 609q1 10 12 10h42l8 -5l185 -499l80 494q1 10 12 10h48q8 0 8 -7v-3zM477 767q3 -3 3 -7q0 -2 -2 -6q-21 -30 -45 -45t-45 -15q-28 0 -57 26l-18 13q-20 15 -39 15
q-12 0 -22.5 -4.5t-18.5 -10l-14 -10t-9 -4.5q-2 0 -6 2l-9 7q-3 3 -3 6t2 7q45 59 91 59q27 0 53 -23l18 -16q17 -15 41 -15q13 0 24 4.5t19 10.5t13.5 10.5t8.5 4.5q5 0 7 -2z" />
    <glyph glyph-name="O" unicode="O" 
d="M405 476q1 5 1.5 10t0.5 10q0 38 -25.5 62t-64.5 24h-31q-23 0 -44 -8t-37.5 -22t-28 -33.5t-15.5 -42.5l-57 -322q-1 -5 -1.5 -10t-0.5 -10q0 -38 25 -62.5t64 -24.5h31q22 0 43 8.5t38 22.5t29 33.5t16 42.5zM416 154q-13 -74 -68 -119t-136 -45h-31q-70 0 -109 35.5
t-39 95.5q0 15 3 33l57 322q6 37 24 67t44.5 51.5t60.5 33.5t74 12h31q70 0 109.5 -35.5t39.5 -95.5q0 -17 -3 -33z" />
    <glyph glyph-name="OE" unicode="&#x152;" horiz-adv-x="776" 
d="M405 476q1 5 1.5 10t0.5 10q0 38 -25.5 62t-64.5 24h-31q-23 0 -44 -8t-37.5 -22t-28 -33.5t-15.5 -42.5l-57 -322q-1 -5 -1.5 -10t-0.5 -10q0 -38 25 -62.5t64 -24.5h31q22 0 43 8.5t38 22.5t29 33.5t16 42.5zM772 582q-3 -10 -12 -10h-282q-8 0 -10 -3t-2 -11
q0 -13 4.5 -26.5t4.5 -29.5v-12t-2 -14l-21 -118v-3q0 -7 8 -7h214q9 0 9 -8v-2l-7 -37q-1 -10 -12 -10h-214q-10 0 -11 -10l-23 -127q-3 -20 -9.5 -35t-13 -26l-11 -18.5t-4.5 -11.5q0 -6 9 -6h282q8 0 8 -7v-3l-6 -37q-1 -10 -12 -10h-381q-17 -5 -33 -7.5t-33 -2.5h-31
q-70 0 -109 35.5t-39 95.5q0 15 3 33l57 322q6 37 24 67t44.5 51.5t60.5 33.5t74 12h31q15 0 30.5 -2.5t32.5 -8.5h380q8 0 8 -7v-3z" />
    <glyph glyph-name="Oacute" unicode="&#xd3;" 
d="M405 476q1 5 1.5 10t0.5 10q0 38 -25.5 62t-64.5 24h-31q-23 0 -44 -8t-37.5 -22t-28 -33.5t-15.5 -42.5l-57 -322q-1 -5 -1.5 -10t-0.5 -10q0 -38 25 -62.5t64 -24.5h31q22 0 43 8.5t38 22.5t29 33.5t16 42.5zM416 154q-13 -74 -68 -119t-136 -45h-31q-70 0 -109 35.5
t-39 95.5q0 15 3 33l57 322q6 37 24 67t44.5 51.5t60.5 33.5t74 12h31q70 0 109.5 -35.5t39.5 -95.5q0 -17 -3 -33zM317 686l-26 -2q-10 0 -10 6q0 3 5 10l88 104l9 4h68q10 0 10 -7q0 -6 -6 -10z" />
    <glyph glyph-name="Ocircumflex" unicode="&#xd4;" 
d="M423 700q2 -6 2 -8q0 -8 -12 -8h-35l-8 4l-33 62q-3 5 -8 5q-3 0 -8 -5l-58 -62l-8 -4h-34q-11 0 -11 7q0 4 5 9l99 105l9 4h31l7 -4zM405 476q1 5 1.5 10t0.5 10q0 38 -25.5 62t-64.5 24h-31q-23 0 -44 -8t-37.5 -22t-28 -33.5t-15.5 -42.5l-57 -322q-1 -5 -1.5 -10
t-0.5 -10q0 -38 25 -62.5t64 -24.5h31q22 0 43 8.5t38 22.5t29 33.5t16 42.5zM416 154q-13 -74 -68 -119t-136 -45h-31q-70 0 -109 35.5t-39 95.5q0 15 3 33l57 322q6 37 24 67t44.5 51.5t60.5 33.5t74 12h31q70 0 109.5 -35.5t39.5 -95.5q0 -17 -3 -33z" />
    <glyph glyph-name="Odieresis" unicode="&#xd6;" 
d="M405 476q1 5 1.5 10t0.5 10q0 38 -25.5 62t-64.5 24h-31q-23 0 -44 -8t-37.5 -22t-28 -33.5t-15.5 -42.5l-57 -322q-1 -5 -1.5 -10t-0.5 -10q0 -38 25 -62.5t64 -24.5h31q22 0 43 8.5t38 22.5t29 33.5t16 42.5zM416 154q-13 -74 -68 -119t-136 -45h-31q-70 0 -109 35.5
t-39 95.5q0 15 3 33l57 322q6 37 24 67t44.5 51.5t60.5 33.5t74 12h31q70 0 109.5 -35.5t39.5 -95.5q0 -17 -3 -33zM287 750q0 -21 -15.5 -36t-36.5 -15q-16 0 -26.5 10t-10.5 27q0 21 15.5 36t36.5 15q37 0 37 -37zM450 750q0 -20 -16 -35.5t-37 -15.5q-16 0 -26 9.5
t-10 26.5q0 22 15 37t36 15q17 0 27.5 -10t10.5 -27z" />
    <glyph glyph-name="Ograve" unicode="&#xd2;" 
d="M350 700q1 -2 1 -6q0 -10 -10 -10h-2l-27 2l-99 105q-3 3 -3 7q0 10 13 10h68l7 -4zM405 476q1 5 1.5 10t0.5 10q0 38 -25.5 62t-64.5 24h-31q-23 0 -44 -8t-37.5 -22t-28 -33.5t-15.5 -42.5l-57 -322q-1 -5 -1.5 -10t-0.5 -10q0 -38 25 -62.5t64 -24.5h31q22 0 43 8.5
t38 22.5t29 33.5t16 42.5zM416 154q-13 -74 -68 -119t-136 -45h-31q-70 0 -109 35.5t-39 95.5q0 15 3 33l57 322q6 37 24 67t44.5 51.5t60.5 33.5t74 12h31q70 0 109.5 -35.5t39.5 -95.5q0 -17 -3 -33z" />
    <glyph glyph-name="Oslash" unicode="&#xd8;" 
d="M405 476q2 6 2 11.5v7.5q0 13 -8 13q-6 0 -11 -8q-258 -413 -258 -428q0 -7 17 -16t44 -9h31q22 0 43 8.5t38 22.5t29 33.5t16 42.5zM375 553q1 2 1 5q0 4 -3 7q-24 17 -56 17h-31q-23 0 -44 -8t-37.5 -22t-28 -33.5t-15.5 -42.5l-57 -322q-1 -4 -1.5 -7.5t-0.5 -8.5
q2 -10 7 -10q7 0 12 8zM416 154q-13 -74 -68 -119t-136 -45h-31q-70 0 -109 35.5t-39 95.5q0 15 3 33l57 322q6 37 24 67t44.5 51.5t60.5 33.5t74 12h31q70 0 109.5 -35.5t39.5 -95.5q0 -17 -3 -33z" />
    <glyph glyph-name="Otilde" unicode="&#xd5;" 
d="M405 476q1 5 1.5 10t0.5 10q0 38 -25.5 62t-64.5 24h-31q-23 0 -44 -8t-37.5 -22t-28 -33.5t-15.5 -42.5l-57 -322q-1 -5 -1.5 -10t-0.5 -10q0 -38 25 -62.5t64 -24.5h31q22 0 43 8.5t38 22.5t29 33.5t16 42.5zM416 154q-13 -74 -68 -119t-136 -45h-31q-70 0 -109 35.5
t-39 95.5q0 15 3 33l57 322q6 37 24 67t44.5 51.5t60.5 33.5t74 12h31q70 0 109.5 -35.5t39.5 -95.5q0 -17 -3 -33zM465 767q3 -3 3 -7q0 -2 -2 -6q-21 -30 -45 -45t-45 -15q-28 0 -57 26l-18 13q-20 15 -39 15q-12 0 -22.5 -4.5t-18.5 -10l-14 -10t-9 -4.5q-2 0 -6 2l-9 7
q-3 3 -3 6t2 7q45 59 91 59q27 0 53 -23l18 -16q17 -15 41 -15q13 0 24 4.5t19 10.5t13.5 10.5t8.5 4.5q5 0 7 -2z" />
    <glyph glyph-name="P" unicode="P" horiz-adv-x="484" 
d="M419 466q1 5 1.5 10t0.5 10q0 36 -25 61t-66 25h-127q-11 0 -12 -10l-36 -204v-3q0 -7 8 -7h127q45 0 81 30.5t46 77.5zM340 629q70 0 109 -36t39 -99q0 -55 -30 -107q-25 -44 -73 -70t-105 -26h-127q-10 0 -11 -10l-48 -271q-1 -10 -12 -10h-47q-8 0 -8 7v3l107 609
q1 10 12 10h194z" />
    <glyph glyph-name="Q" unicode="Q" 
d="M405 476q1 5 1.5 10t0.5 10q0 38 -25.5 62t-64.5 24h-31q-23 0 -44 -8t-37.5 -22t-28 -33.5t-15.5 -42.5l-57 -322q-1 -5 -1 -8.5v-7.5q0 -19 6.5 -35t16.5 -28t22 -18.5t24 -6.5q7 0 9 10l8 49q1 10 12 10h37q8 0 8 -8v-2l-8 -48v-4q0 -5 4 -5q15 0 32 8t32 22
t26.5 32.5t15.5 39.5zM416 154q-11 -63 -50 -100t-108 -57q-17 -5 -24.5 -6t-9.5 -10l-12 -65q-1 -10 -12 -10h-37q-8 0 -8 7v3l12 65v2q0 8 -14.5 11t-42.5 11q-35 11 -56 42t-21 75q0 15 3 32l57 322q6 37 24 67t44.5 51.5t60.5 33.5t74 12h31q70 0 109.5 -35.5
t39.5 -95.5q0 -17 -3 -33z" />
    <glyph glyph-name="R" unicode="R" 
d="M419 466q1 5 1.5 10t0.5 10q0 36 -25 61t-66 25h-127q-11 0 -12 -10l-36 -204v-3q0 -7 8 -7h127q45 0 81 30.5t46 77.5zM482 445q-5 -26 -25 -55.5t-54 -54.5q-19 -14 -32.5 -19t-13.5 -13v-1l49 -289v-2q0 -11 -11 -11h-54l-8 7l-47 278q-3 6 -7 6h-126q-10 0 -11 -10
l-48 -271q-1 -10 -12 -10h-47q-8 0 -8 7v3l107 609q1 10 12 10h194q70 0 109 -36t39 -97q0 -21 -4 -40z" />
    <glyph glyph-name="S" unicode="S" horiz-adv-x="438" 
d="M291 640q34 0 60 -8.5t44 -21.5t27 -28.5t9 -28.5q0 -4 -8 -8l-46 -21q-2 -1 -5 -1q-2 0 -6 4l-17 21t-17.5 17.5t-21.5 12t-29 4.5h-16q-25 0 -47.5 -9.5t-40 -26t-28 -38t-10.5 -45.5q0 -53 79 -93q38 -19 68.5 -36t52.5 -37t33.5 -44.5t11.5 -58.5q0 -44 -15 -81.5
t-42.5 -64.5t-66 -42.5t-84.5 -15.5h-43q-33 0 -58.5 8t-43.5 20.5t-27.5 28t-9.5 30.5q0 4 7 8l46 22q2 1 5 1q2 0 7 -5l17 -21.5t17 -18t21 -12t29 -4.5h43q25 0 48 9.5t41 26t28.5 38t10.5 45.5t-7.5 41t-22 30.5t-35 25l-47.5 25.5q-31 16 -55.5 31t-42 32t-26.5 37.5
t-9 47.5q0 44 15 81.5t42.5 64.5t65.5 42.5t83 15.5h16z" />
    <glyph glyph-name="T" unicode="T" horiz-adv-x="396" 
d="M419 582q-3 -10 -12 -10h-121q-11 0 -12 -10l-97 -552q-1 -10 -12 -10h-47q-8 0 -8 7v3l97 552v3q0 7 -8 7h-121q-8 0 -8 7v3l6 37q1 10 12 10h329q8 0 8 -7v-3z" />
    <glyph glyph-name="U" unicode="U" 
d="M416 154q-13 -74 -68 -119t-136 -45h-31q-70 0 -109 35.5t-39 95.5q0 15 3 33l82 465q1 10 12 10h48q8 0 8 -7v-3l-82 -465q-1 -5 -1.5 -10t-0.5 -10q0 -38 25 -62.5t64 -24.5h31q22 0 43 8.5t38 22.5t29 33.5t16 42.5l82 465q1 10 12 10h48q8 0 8 -7v-3z" />
    <glyph glyph-name="Uacute" unicode="&#xda;" 
d="M416 154q-13 -74 -68 -119t-136 -45h-31q-70 0 -109 35.5t-39 95.5q0 15 3 33l82 465q1 10 12 10h48q8 0 8 -7v-3l-82 -465q-1 -5 -1.5 -10t-0.5 -10q0 -38 25 -62.5t64 -24.5h31q22 0 43 8.5t38 22.5t29 33.5t16 42.5l82 465q1 10 12 10h48q8 0 8 -7v-3zM317 686l-26 -2
q-10 0 -10 6q0 3 5 10l88 104l9 4h68q10 0 10 -7q0 -6 -6 -10z" />
    <glyph glyph-name="Ucircumflex" unicode="&#xdb;" 
d="M423 700q2 -6 2 -8q0 -8 -12 -8h-35l-8 4l-33 62q-3 5 -8 5q-3 0 -8 -5l-58 -62l-8 -4h-34q-11 0 -11 7q0 4 5 9l99 105l9 4h31l7 -4zM416 154q-13 -74 -68 -119t-136 -45h-31q-70 0 -109 35.5t-39 95.5q0 15 3 33l82 465q1 10 12 10h48q8 0 8 -7v-3l-82 -465
q-1 -5 -1.5 -10t-0.5 -10q0 -38 25 -62.5t64 -24.5h31q22 0 43 8.5t38 22.5t29 33.5t16 42.5l82 465q1 10 12 10h48q8 0 8 -7v-3z" />
    <glyph glyph-name="Udieresis" unicode="&#xdc;" 
d="M416 154q-13 -74 -68 -119t-136 -45h-31q-70 0 -109 35.5t-39 95.5q0 15 3 33l82 465q1 10 12 10h48q8 0 8 -7v-3l-82 -465q-1 -5 -1.5 -10t-0.5 -10q0 -38 25 -62.5t64 -24.5h31q22 0 43 8.5t38 22.5t29 33.5t16 42.5l82 465q1 10 12 10h48q8 0 8 -7v-3zM287 750
q0 -21 -15.5 -36t-36.5 -15q-16 0 -26.5 10t-10.5 27q0 21 15.5 36t36.5 15q37 0 37 -37zM450 750q0 -20 -16 -35.5t-37 -15.5q-16 0 -26 9.5t-10 26.5q0 22 15 37t36 15q17 0 27.5 -10t10.5 -27z" />
    <glyph glyph-name="Ugrave" unicode="&#xd9;" 
d="M350 700q1 -2 1 -6q0 -10 -10 -10h-2l-27 2l-99 105q-3 3 -3 7q0 10 13 10h68l7 -4zM416 154q-13 -74 -68 -119t-136 -45h-31q-70 0 -109 35.5t-39 95.5q0 15 3 33l82 465q1 10 12 10h48q8 0 8 -7v-3l-82 -465q-1 -5 -1.5 -10t-0.5 -10q0 -38 25 -62.5t64 -24.5h31
q22 0 43 8.5t38 22.5t29 33.5t16 42.5l82 465q1 10 12 10h48q8 0 8 -7v-3z" />
    <glyph glyph-name="V" unicode="V" horiz-adv-x="448" 
d="M196 7q-3 -7 -11 -7h-38q-8 0 -9 7l-76 609v3q0 10 12 10h49q8 0 9 -7l53 -521l237 521q3 7 11 7h49q10 0 10 -7q0 -2 -2 -6z" />
    <glyph glyph-name="W" unicode="W" horiz-adv-x="674" 
d="M470 8q-3 -8 -11 -8h-38q-9 0 -9 7l-46 472l-217 -472q-3 -7 -11 -7h-38q-8 0 -9 8l-22 609q0 12 12 12h52q8 0 8 -8l10 -499l222 502q3 7 11 7h14q9 0 9 -7l47 -502l183 499q3 8 12 8h52q9 0 9 -7q0 -3 -1 -5z" />
    <glyph glyph-name="X" unicode="X" horiz-adv-x="457" 
d="M281 321l-2 -10l96 -297q1 -2 1 -4q0 -10 -12 -10h-61q-6 1 -8 6l-68 238q-1 7 -8 7q-6 0 -10 -7l-159 -238l-10 -6h-61q-9 0 -9 6q0 1 0.5 3.5t2.5 5.5l204 296l1 9l-99 294q-1 2 -1 5q0 10 13 10h60q3 0 8 -6l75 -239q3 -7 7 -7q7 0 11 7l152 239q2 4 10 6h60q9 0 9 -6
q0 -4 -3 -8z" />
    <glyph glyph-name="Y" unicode="Y" horiz-adv-x="448" 
d="M252 291l-49 -281q-1 -10 -12 -10h-49q-8 0 -8 7v3l49 281l-114 323q-1 2 -1 5q0 10 13 10h57l8 -6l78 -252q1 -7 8 -7q6 0 10 7l166 252q6 6 10 6h57q10 0 10 -6q0 -3 -4 -9z" />
    <glyph glyph-name="Ydieresis" unicode="&#x178;" horiz-adv-x="448" 
d="M251 750q0 -21 -15.5 -36t-36.5 -15q-16 0 -26.5 10t-10.5 27q0 21 15.5 36t36.5 15q37 0 37 -37zM414 750q0 -20 -16 -35.5t-37 -15.5q-16 0 -26 9.5t-10 26.5q0 22 15 37t36 15q17 0 27.5 -10t10.5 -27zM252 291l-49 -281q-1 -10 -12 -10h-49q-8 0 -8 7v3l49 281
l-114 323q-1 2 -1 5q0 10 13 10h57l8 -6l78 -252q1 -7 8 -7q6 0 10 7l166 252q6 6 10 6h57q10 0 10 -6q0 -3 -4 -9z" />
    <glyph glyph-name="Z" unicode="Z" horiz-adv-x="438" 
d="M91 71q-3 -5 -3 -8q0 -6 9 -6h240q8 0 8 -7v-3l-6 -37q-1 -10 -12 -10h-339q-9 0 -9 7q0 4 2 7l339 544q3 4 3 8q0 6 -9 6h-215q-9 0 -9 6q0 1 0.5 1.5t0.5 2.5l6 37q1 10 12 10h316q9 0 9 -6q0 -4 -3 -8z" />
    <glyph glyph-name="a" unicode="a" horiz-adv-x="474" 
d="M328 279q1 5 1.5 9t0.5 9q0 38 -26 63t-68 25q-21 0 -41.5 -8.5t-37 -23t-27.5 -33.5t-15 -41l-20 -115q-1 -5 -1.5 -9t-0.5 -9q0 -38 25.5 -63.5t67.5 -25.5q21 0 41.5 8.5t37 23.5t28 34.5t15.5 40.5zM349 10q-1 -10 -12 -10h-37q-8 0 -8 7v3l7 43v3q0 8 -7 8
q-5 0 -19 -12t-40 -32t-71 -20q-61 0 -99 36t-38 96q0 15 3 32l20 115q6 36 24 65.5t44 51.5t58 34t67 12q38 0 53 -12q23 -17 35.5 -34t20.5 -17q7 0 9 11l7 42q1 10 12 10h37q8 0 8 -7v-3z" />
    <glyph glyph-name="aacute" unicode="&#xe1;" horiz-adv-x="474" 
d="M328 279q1 5 1.5 9t0.5 9q0 38 -26 63t-68 25q-21 0 -41.5 -8.5t-37 -23t-27.5 -33.5t-15 -41l-20 -115q-1 -5 -1.5 -9t-0.5 -9q0 -38 25.5 -63.5t67.5 -25.5q21 0 41.5 8.5t37 23.5t28 34.5t15.5 40.5zM349 10q-1 -10 -12 -10h-37q-8 0 -8 7v3l7 43v3q0 8 -7 8
q-5 0 -19 -12t-40 -32t-71 -20q-61 0 -99 36t-38 96q0 15 3 32l20 115q6 36 24 65.5t44 51.5t58 34t67 12q38 0 53 -12q23 -17 35.5 -34t20.5 -17q7 0 9 11l7 42q1 10 12 10h37q8 0 8 -7v-3zM258 498l-26 -2q-10 0 -10 6q0 3 5 10l88 104l9 4h68q10 0 10 -7q0 -6 -6 -10z
" />
    <glyph glyph-name="acircumflex" unicode="&#xe2;" horiz-adv-x="474" 
d="M363 512q2 -6 2 -8q0 -8 -12 -8h-35l-8 4l-33 62q-3 5 -8 5q-3 0 -8 -5l-58 -62l-8 -4h-34q-11 0 -11 7q0 4 5 9l99 105l9 4h31l7 -4zM328 279q1 5 1.5 9t0.5 9q0 38 -26 63t-68 25q-21 0 -41.5 -8.5t-37 -23t-27.5 -33.5t-15 -41l-20 -115q-1 -5 -1.5 -9t-0.5 -9
q0 -38 25.5 -63.5t67.5 -25.5q21 0 41.5 8.5t37 23.5t28 34.5t15.5 40.5zM349 10q-1 -10 -12 -10h-37q-8 0 -8 7v3l7 43v3q0 8 -7 8q-5 0 -19 -12t-40 -32t-71 -20q-61 0 -99 36t-38 96q0 15 3 32l20 115q6 36 24 65.5t44 51.5t58 34t67 12q38 0 53 -12q23 -17 35.5 -34
t20.5 -17q7 0 9 11l7 42q1 10 12 10h37q8 0 8 -7v-3z" />
    <glyph glyph-name="acute" unicode="&#xb4;" horiz-adv-x="500" 
d="M284 498l-26 -2q-10 0 -10 6q0 3 5 10l88 104l9 4h68q10 0 10 -7q0 -6 -6 -10z" />
    <glyph glyph-name="adieresis" unicode="&#xe4;" horiz-adv-x="474" 
d="M328 279q1 5 1.5 9t0.5 9q0 38 -26 63t-68 25q-21 0 -41.5 -8.5t-37 -23t-27.5 -33.5t-15 -41l-20 -115q-1 -5 -1.5 -9t-0.5 -9q0 -38 25.5 -63.5t67.5 -25.5q21 0 41.5 8.5t37 23.5t28 34.5t15.5 40.5zM349 10q-1 -10 -12 -10h-37q-8 0 -8 7v3l7 43v3q0 8 -7 8
q-5 0 -19 -12t-40 -32t-71 -20q-61 0 -99 36t-38 96q0 15 3 32l20 115q6 36 24 65.5t44 51.5t58 34t67 12q38 0 53 -12q23 -17 35.5 -34t20.5 -17q7 0 9 11l7 42q1 10 12 10h37q8 0 8 -7v-3zM228 562q0 -21 -15.5 -36t-36.5 -15q-16 0 -26.5 10t-10.5 27q0 21 15.5 36
t36.5 15q37 0 37 -37zM391 562q0 -20 -16 -35.5t-37 -15.5q-16 0 -26 9.5t-10 26.5q0 22 15 37t36 15q17 0 27.5 -10t10.5 -27z" />
    <glyph glyph-name="ae" unicode="&#xe6;" horiz-adv-x="739" 
d="M312 189q0 8 -8 8h-144q-26 0 -46 -17t-24 -42l-5 -31q0 -2 -0.5 -4.5t-0.5 -4.5q0 -22 14 -36.5t35 -14.5h52q60 0 116 86q4 11 5 21l6 33v2zM611 289q1 5 1.5 10t0.5 10q0 35 -24.5 60.5t-65.5 25.5q-45 0 -80 -30t-45 -76l-3 -14v-2q0 -8 9 -8h193q8 0 11 10zM668 228
q-1 -10 -12 -10h-261q-10 0 -11 -10l-10 -54q-1 -5 -1.5 -9.5t-0.5 -9.5q0 -38 25 -63t64 -25q38 0 72 28q18 15 27 24t14 9q3 0 5 -1l38 -21q6 -3 6 -7q0 -10 -17 -27t-52 -38q-18 -11 -44.5 -17.5t-58.5 -6.5q-23 0 -42 4t-38 14q-15 8 -25 18.5t-17 20l-11.5 16t-8.5 6.5
q-5 0 -21 -19.5t-54 -42.5q-14 -8 -29.5 -12.5t-29.5 -4.5h-52q-49 0 -78 26.5t-29 69.5q0 5 0.5 10.5t1.5 10.5l5 31q8 48 46.5 77t98.5 29h144q11 0 12 10l6 33q1 5 1.5 9t0.5 9q0 37 -25 63.5t-66 26.5q-34 0 -56 -17.5t-47 -39.5q-3 -2 -5 -3.5t-5 -1.5q-2 0 -4 1
l-38 22q-5 2 -5 7q0 6 16 24.5t52 39.5q17 11 43.5 18t58.5 7q30 0 53.5 -7t40.5 -20q20 -14 29.5 -23.5t11.5 -9.5q4 0 15 9.5t33 23.5q42 27 99 27q33 0 60 -11t46.5 -29.5t30.5 -44t11 -53.5q0 -6 -0.5 -12t-1.5 -13z" />
    <glyph glyph-name="agrave" unicode="&#xe0;" horiz-adv-x="474" 
d="M290 512q1 -2 1 -6q0 -10 -10 -10h-2l-27 2l-99 105q-3 3 -3 7q0 10 13 10h68l7 -4zM328 279q1 5 1.5 9t0.5 9q0 38 -26 63t-68 25q-21 0 -41.5 -8.5t-37 -23t-27.5 -33.5t-15 -41l-20 -115q-1 -5 -1.5 -9t-0.5 -9q0 -38 25.5 -63.5t67.5 -25.5q21 0 41.5 8.5t37 23.5
t28 34.5t15.5 40.5zM349 10q-1 -10 -12 -10h-37q-8 0 -8 7v3l7 43v3q0 8 -7 8q-5 0 -19 -12t-40 -32t-71 -20q-61 0 -99 36t-38 96q0 15 3 32l20 115q6 36 24 65.5t44 51.5t58 34t67 12q38 0 53 -12q23 -17 35.5 -34t20.5 -17q7 0 9 11l7 42q1 10 12 10h37q8 0 8 -7v-3z" />
    <glyph glyph-name="ampersand" unicode="&#x26;" horiz-adv-x="625" 
d="M348 134q-30 49 -64 86t-81 65q-6 2 -8 2q-1 0 -2 -0.5t-2 -0.5q-71 -36 -85 -102l-6 -31q-1 -5 -1.5 -10.5t-0.5 -10.5q0 -39 25.5 -64.5t66.5 -25.5h31q32 0 64 20t61 60q2 6 2 12zM377 477q1 5 1.5 10t0.5 10q0 37 -25.5 63.5t-67.5 26.5q-26 0 -49.5 -10t-41.5 -27.5
t-28.5 -40t-10.5 -46.5q0 -34 19 -61.5t57 -56.5l9 -2q114 27 132 114zM596 291q-1 -8 -9 -8h-15q-47 0 -83.5 -30.5t-45.5 -78.5l-5 -27l2 -9q46 -57 110 -82q2 -2 4 -8l-9 -49q-3 -8 -11 -8q-33 0 -66.5 20t-71.5 60q-4 4 -7 4q-7 0 -15.5 -10t-25.5 -27
q-20 -21 -56 -34.5t-81 -13.5h-31q-70 0 -107.5 34.5t-37.5 99.5q0 16 3 36l4 27q2 15 10.5 33t21.5 32q15 17 29.5 28t25 17.5t17 11t6.5 7.5q0 8 -10.5 17t-24.5 25q-29 35 -29 85q0 39 15.5 74.5t43 62.5t65.5 43.5t84 16.5q69 0 107.5 -35t38.5 -98q0 -9 -1 -18.5
t-3 -20.5l-4 -22q-4 -23 -20.5 -48t-39.5 -39q-35 -23 -56.5 -31.5t-21.5 -16.5q0 -6 5 -11t14 -12q35 -32 51 -56t27 -24q7 0 15.5 19t29.5 48q24 33 64.5 52t88.5 19h7q7 0 7 -5v-2z" />
    <glyph glyph-name="aring" unicode="&#xe5;" horiz-adv-x="474" 
d="M332 609q0 31 -36 31q-21 0 -34.5 -10.5t-15.5 -27.5l-4 -30v-7q0 -31 35 -31q20 0 34.5 11.5t16.5 28.5l4 29v6zM365 572q-5 -34 -30.5 -55t-62.5 -21q-32 0 -50.5 17.5t-18.5 45.5q0 10 1 15l5 29q6 35 30.5 55t62.5 20q32 0 50.5 -17t18.5 -45q0 -9 -1 -14zM328 279
q1 5 1.5 9t0.5 9q0 38 -26 63t-68 25q-21 0 -41.5 -8.5t-37 -23t-27.5 -33.5t-15 -41l-20 -115q-1 -5 -1.5 -9t-0.5 -9q0 -38 25.5 -63.5t67.5 -25.5q21 0 41.5 8.5t37 23.5t28 34.5t15.5 40.5zM349 10q-1 -10 -12 -10h-37q-8 0 -8 7v3l7 43v3q0 8 -7 8q-5 0 -19 -12
t-40 -32t-71 -20q-61 0 -99 36t-38 96q0 15 3 32l20 115q6 36 24 65.5t44 51.5t58 34t67 12q38 0 53 -12q23 -17 35.5 -34t20.5 -17q7 0 9 11l7 42q1 10 12 10h37q8 0 8 -7v-3z" />
    <glyph glyph-name="asciicircum" unicode="^" horiz-adv-x="741" 
d="M391 526q-17 29 -37 42.5t-48 13.5q-23 0 -44 -8.5t-37.5 -23t-28 -33.5t-15.5 -41l-13 -71v-2q0 -8 9 -8h176q10 0 11 10l11 61l5 21.5t11 29.5v9zM558 589q-3 -19 -47 -34q-14 -5 -24.5 -10t-18.5 -13.5t-13.5 -22t-9.5 -33.5l-13 -71v-2q0 -8 9 -8h73q8 0 8 -7v-3
l-7 -37q-1 -10 -11 -10h-73q-11 0 -12 -10l-61 -342q-6 -36 -25 -67.5t-46 -55.5t-61.5 -38t-72.5 -14q-39 0 -39 9q0 4 2 7l21 37q4 6 10 6q3 0 7 -1t9 -1q111 20 126 107l62 353v3q0 7 -8 7h-176q-11 0 -12 -10l-68 -387q-6 -36 -25 -67.5t-46 -55.5t-61.5 -38t-72.5 -14
t-38 9q0 4 2 7l20 37q3 6 11 6q2 0 5 -0.5t10 -1.5q111 20 126 107l70 398v3q0 7 -8 7h-27q-9 0 -9 8v2l7 37q1 10 12 10h27q10 0 11 10l11 61q7 36 25.5 68t46 55.5t62.5 37t74 13.5q33 0 54 -8.5t34 -19t20 -19t11 -8.5q1 0 7 4q70 49 111 49q8 0 8 -7v-3zM633 10
q-1 -10 -12 -10h-47q-8 0 -8 7v3l64 422q1 10 12 10h47q8 0 8 -7v-3zM737 603q0 -20 -16.5 -36t-36.5 -16q-16 0 -26.5 10t-10.5 27q0 21 16 36.5t37 15.5q17 0 27 -10t10 -27z" />
    <glyph glyph-name="asciitilde" unicode="~" horiz-adv-x="540" 
d="M391 526q-32 56 -85 56q-23 0 -44 -8t-37.5 -22.5t-28 -34t-15.5 -41.5l-13 -71v-2q0 -8 9 -8h176q10 0 11 10l11 61q2 14 5.5 26.5t10.5 24.5v9zM598 588q-2 -4 -11 -7q-8 0 -11.5 0.5t-5.5 0.5q-23 0 -44 -8t-37.5 -22.5t-28 -34t-15.5 -41.5l-13 -71v-2q0 -8 9 -8h73
q8 0 8 -7v-3l-7 -37q-1 -10 -11 -10h-73q-11 0 -12 -10l-61 -342q-6 -33 -24.5 -65t-48.5 -59q-57 -51 -132 -51q-39 0 -39 9q0 4 2 7l21 37q4 6 10 6q3 0 7 -1t9 -1q55 9 86.5 36.5t39.5 70.5l62 353v3q0 7 -8 7h-176q-11 0 -12 -10l-68 -387q-6 -33 -24 -65t-48 -59
q-57 -51 -133 -51q-38 0 -38 9q0 4 2 7l20 37q3 6 11 6q2 0 5 -0.5t10 -1.5q111 18 126 107l70 398v3q0 7 -8 7h-27q-9 0 -9 8v2l7 37q1 10 12 10h27q10 0 11 10l11 61q7 37 25.5 69t46.5 55t62.5 36.5t73.5 13.5q29 0 52.5 -8.5t39.5 -22.5q11 -10 16.5 -16.5t10.5 -6.5
q4 0 7 3q69 51 128 51q23 0 34.5 -0.5t11.5 -5.5q0 -2 -3 -8z" />
    <glyph glyph-name="asterisk" unicode="*" horiz-adv-x="384" 
d="M400 598q1 -2 1 -4q0 -7 -8 -10l-115 -47q-9 -5 -9 -9q0 -6 6 -9l99 -45q5 -2 5 -7q0 -3 -3 -7l-25 -32q-4 -5 -7 -5q-6 0 -8 2l-83 65q-3 3 -7 3q-10 0 -10 -12l-6 -114q-2 -11 -12 -11h-39q-9 0 -9 7q0 1 0.5 2t0.5 2l34 114q1 2 1 5q0 7 -7 7q-5 0 -9 -3l-102 -65
q-5 -3 -7 -3q-7 0 -8 6l-13 33q0 2 -0.5 2.5t-0.5 2.5q0 6 9 9l111 44q9 3 9 9t-6 9l-95 47q-6 3 -6 7q0 2 3 7l25 32q4 6 9 6q4 0 7 -3l77 -67q3 -3 7 -3q8 0 10 12l8 112q2 11 12 11h38q9 0 9 -7q0 -1 -0.5 -2t-0.5 -2l-33 -112q0 -2 -0.5 -2.5t-0.5 -1.5q0 -8 8 -8
q3 0 8 3l106 67q4 3 7 3q5 0 7 -6z" />
    <glyph glyph-name="at" unicode="@" horiz-adv-x="700" 
d="M428 351q1 4 1 13q0 25 -16.5 41.5t-44.5 16.5q-31 0 -56 -21.5t-30 -50.5l-12 -66q-1 -5 -1 -13q0 -26 16.5 -42.5t42.5 -16.5q32 0 57.5 21.5t30.5 51.5zM607 245q-7 -39 -37 -63.5t-72 -24.5h-12q-24 0 -40.5 8t-30.5 26q-2 2 -3 2q-4 0 -12.5 -5.5t-21 -12.5
t-28.5 -12.5t-36 -5.5q-45 0 -73 26t-28 71q0 5 0.5 11t1.5 12l14 82q4 25 16.5 46t31 37t41 25t47.5 9q19 0 32.5 -4t23 -8.5t14.5 -8t7 -3.5t3 3.5t2.5 8t5 8.5t11.5 4h24q12 0 12 -11v-4l-38 -211q0 -2 -0.5 -3.5t-0.5 -3.5q0 -14 9.5 -22.5t24.5 -8.5h11q17 0 31 11.5
t17 28.5l36 207q1 6 1.5 12t0.5 11q0 43 -28.5 68.5t-79.5 25.5h-177q-60 0 -100.5 -32.5t-49.5 -86.5l-50 -286q-1 -6 -1.5 -12t-0.5 -12q0 -43 28.5 -68t79.5 -25h256q13 0 13 -13v-2l-4 -25q-2 -14 -17 -14h-256q-73 0 -114 37.5t-41 100.5q0 17 3 35l50 286
q7 38 25 69.5t46 54t63.5 35t77.5 12.5h177q73 0 114 -37.5t41 -100.5q0 -17 -3 -35z" />
    <glyph glyph-name="atilde" unicode="&#xe3;" horiz-adv-x="474" 
d="M328 279q1 5 1.5 9t0.5 9q0 38 -26 63t-68 25q-21 0 -41.5 -8.5t-37 -23t-27.5 -33.5t-15 -41l-20 -115q-1 -5 -1.5 -9t-0.5 -9q0 -38 25.5 -63.5t67.5 -25.5q21 0 41.5 8.5t37 23.5t28 34.5t15.5 40.5zM349 10q-1 -10 -12 -10h-37q-8 0 -8 7v3l7 43v3q0 8 -7 8
q-5 0 -19 -12t-40 -32t-71 -20q-61 0 -99 36t-38 96q0 15 3 32l20 115q6 36 24 65.5t44 51.5t58 34t67 12q38 0 53 -12q23 -17 35.5 -34t20.5 -17q7 0 9 11l7 42q1 10 12 10h37q8 0 8 -7v-3zM406 579q3 -3 3 -7q0 -2 -2 -6q-21 -30 -45 -45t-45 -15q-28 0 -57 26l-18 13
q-20 15 -39 15q-12 0 -22.5 -4.5t-18.5 -10l-14 -10t-9 -4.5q-2 0 -6 2l-9 7q-3 3 -3 6t2 7q45 59 91 59q27 0 53 -23l18 -16q17 -15 41 -15q13 0 24 4.5t19 10.5t13.5 10.5t8.5 4.5q5 0 7 -2z" />
    <glyph glyph-name="b" unicode="b" horiz-adv-x="474" 
d="M344 279q1 5 1.5 9t0.5 9q0 38 -26 63t-68 25q-21 0 -41.5 -8.5t-37 -23t-27.5 -33.5t-15 -41l-20 -115q-1 -5 -1.5 -9t-0.5 -9q0 -38 25.5 -63.5t67.5 -25.5q21 0 41.5 8.5t37 23.5t28 34.5t15.5 40.5zM392 164q-6 -32 -23.5 -62.5t-45.5 -55.5q-52 -46 -122 -46
q-21 0 -36 3.5t-21 8.5q-22 17 -34 33.5t-21 16.5q-7 0 -9 -11l-7 -41q-1 -10 -12 -10h-37q-8 0 -8 7v3l107 609q1 10 12 10h48q8 0 8 -7v-3l-40 -226v-3q0 -8 6 -8q5 0 19 11l41 31q11 8 28 13t37 5q29 0 53.5 -10t42 -27.5t27.5 -42t10 -53.5q0 -15 -3 -30z" />
    <glyph glyph-name="backslash" unicode="\" horiz-adv-x="305" 
d="M254 14q0 -2 0.5 -2.5t0.5 -1.5q0 -10 -12 -10h-34q-6 1 -8 6l-153 610q0 2 -0.5 2.5t-0.5 1.5q0 10 12 10h34l8 -6z" />
    <glyph glyph-name="bar" unicode="|" horiz-adv-x="751" 
d="M393 521q-31 61 -87 61q-23 0 -44 -8t-37.5 -22.5t-28 -34t-15.5 -41.5l-13 -71v-2q0 -8 9 -8h176q10 0 11 10l9 51q6 32 19 57zM626 10q-1 -10 -12 -10h-47q-8 0 -8 7v3l97 552v3q0 7 -8 7h-80q-22 0 -43 -8t-37.5 -22.5t-28.5 -34t-16 -41.5l-11 -61v-2q0 -8 9 -8h73
q8 0 8 -7v-3l-7 -37q-1 -10 -11 -10h-73q-11 0 -12 -10l-61 -342q-6 -33 -24.5 -65t-48.5 -59q-57 -51 -132 -51q-39 0 -39 9q0 4 2 7l21 37q4 6 10 6q3 0 7 -1t9 -1q55 9 86.5 36.5t39.5 70.5l62 353v3q0 7 -8 7h-176q-11 0 -12 -10l-68 -387q-6 -33 -24 -65t-48 -59
q-57 -51 -133 -51q-38 0 -38 9q0 4 2 7l20 37q3 6 11 6q2 0 5 -0.5t10 -1.5q111 18 126 107l70 398v3q0 7 -8 7h-27q-9 0 -9 8v2l7 37q1 10 12 10h27q10 0 11 10l11 61q12 68 72 123q56 51 132 51q29 0 51 -5.5t39 -18.5q15 -11 23.5 -23.5t13.5 -12.5q4 0 14 8t30 19
q39 22 91 22h147q8 0 8 -7v-3z" />
    <glyph glyph-name="braceleft" unicode="{" horiz-adv-x="354" 
d="M321 683q-1 -5 -3 -6.5t-6 -3.5l-41.5 -18.5t-27.5 -18.5q-14 -16 -23 -32t-12 -34l-30 -172q-5 -32 -32 -66.5t-71 -54.5l-1 -4q29 -17 45 -49t16 -64q0 -5 -0.5 -9.5t-1.5 -9.5l-29 -164q-1 -5 -1.5 -10.5t-0.5 -10.5q0 -31 17.5 -52.5t51.5 -30.5q6 -5 6 -10l-7 -39
q-3 -10 -13 -10q-24 0 -46 10t-39 28.5t-27 44t-10 57.5q0 16 3 34l26 150q1 5 1.5 10t0.5 10q0 31 -18 53t-51 30q-6 4 -6 8v2l8 44q1 5 3.5 6.5t6.5 3.5l42 19.5t27 18.5q28 31 34 66l27 151q5 29 20.5 59.5t39.5 56.5q52 56 120 56q9 0 9 -7v-3z" />
    <glyph glyph-name="braceright" unicode="}" horiz-adv-x="354" 
d="M339 251q-1 -5 -3.5 -6.5t-6.5 -3.5q-21 -8 -38 -17t-30.5 -20.5t-22 -27.5t-12.5 -38l-26 -150q-7 -42 -37 -86q-58 -88 -144 -88q-9 0 -9 7v3l7 39q1 5 3.5 6.5t6.5 3.5q43 17 69 38.5t34 65.5l29 164q3 16 12 35t22.5 37t32 34t39.5 26l1 4q-31 14 -47.5 43t-16.5 60
q0 5 0.5 9t1.5 9l30 172q1 5 1.5 9t0.5 9q0 26 -11.5 46t-25.5 26q-19 8 -28.5 11.5t-9.5 9.5v2l7 39q2 7 4.5 8.5t8.5 1.5q21 0 43 -9t40 -27t29 -43.5t11 -58.5q0 -15 -3 -34l-27 -151q-2 -7 -2 -13v-11q0 -32 19 -48t50 -32q6 -3 6 -7v-3z" />
    <glyph glyph-name="bracketleft" unicode="[" horiz-adv-x="354" 
d="M322 686q-1 -10 -12 -10h-73q-6 0 -9 -3.5t-3 -5.5v-1q-6 -38 -10.5 -62l-6.5 -34l-104 -591l-12.5 -70t-4.5 -31q0 -8 8 -8h73q8 0 8 -7v-3l-6 -37q-1 -10 -12 -10h-141q-8 0 -8 8q0 9 7.5 50.5l21.5 116.5l101 572q4 20 10.5 60.5t17.5 102.5q3 10 12 10h141q8 0 8 -7
v-3z" />
    <glyph glyph-name="bracketright" unicode="]" horiz-adv-x="354" 
d="M328 723l-18 -104l-10 -59l-101 -572q-8 -46 -13 -79l-8.5 -54.5t-8 -31.5t-11.5 -10h-141q-8 0 -8 7v3l6 37q2 10 12 10h74q6 0 9.5 6t6 19t5.5 34t8 50l104 591q2 12 7 36t10 60v3q0 7 -8 7h-74q-8 0 -8 7v3l6 37q3 10 12 10h141q8 0 8 -7v-3z" />
    <glyph glyph-name="breve" unicode="&#x2d8;" horiz-adv-x="500" 
d="M404 572q-6 -33 -33 -54t-67 -21h-46q-35 0 -54 16t-19 44q0 10 1 15l7 40q1 10 12 10h10q8 0 8 -7v-3l-4 -21q-1 -3 -1 -8q0 -18 12.5 -30t34.5 -12h46q24 0 42.5 14.5t22.5 35.5l4 21q1 10 12 10h11q8 0 8 -7v-3z" />
    <glyph glyph-name="bullet" unicode="&#x2022;" horiz-adv-x="438" 
d="M361 305q-8 -58 -53.5 -95.5t-113.5 -37.5h-4q-57 0 -89 29t-32 79q0 6 0.5 12t1.5 13l3 21q8 59 53 95.5t114 36.5h4q58 0 89.5 -28.5t31.5 -79.5q0 -6 -0.5 -12t-1.5 -12z" />
    <glyph glyph-name="c" unicode="c" horiz-adv-x="425" 
d="M50 289q14 74 68 118.5t134 44.5q32 0 58 -7.5t44 -19.5t28 -27.5t10 -30.5q0 -5 -8 -9l-46 -21q-2 -1 -4 -1q-4 0 -7 4l-17.5 21t-17.5 17.5t-21 12t-29 4.5q-23 0 -44 -8.5t-38 -22.5t-28 -33.5t-15 -41.5l-24 -135q-1 -5 -1.5 -9.5t-0.5 -9.5q0 -38 24.5 -63t64.5 -25
q38 0 72 28q18 15 27 24t14 9q3 0 5 -1l38 -21q6 -3 6 -7q0 -10 -17 -27t-52 -38q-18 -11 -44.5 -17.5t-58.5 -6.5q-70 0 -108.5 35t-38.5 95q0 16 3 34z" />
    <glyph glyph-name="caron" unicode="&#x2c7;" horiz-adv-x="500" 
d="M307 500l-8 -4h-31l-8 4l-61 105q-2 4 -2 6q0 10 13 10h35l7 -4l35 -60q3 -5 7 -5t9 5l54 60l9 4h36q10 0 10 -7q0 -4 -5 -9z" />
    <glyph glyph-name="ccedilla" unicode="&#xe7;" horiz-adv-x="425" 
d="M164 -62q-2 -4 -2 -6q0 -5 4 -9q34 -22 34 -58v-8l-1 -9q-4 -34 -34 -59t-74 -25h-36q-9 0 -9 6q0 1 0.5 1.5t0.5 2.5l2 16q3 10 12 10h36q22 0 38.5 14t18.5 34l1 9v6q0 12 -4 21t-12 12q-15 7 -24 8.5t-9 6.5q0 2 3 7l46 72q-64 5 -98 39t-34 90q0 17 3 35l24 135
q14 74 68 118.5t134 44.5q32 0 58 -7.5t44 -19.5t28 -27.5t10 -30.5q0 -5 -8 -9l-46 -21q-2 -1 -4 -1q-4 0 -7 4l-17.5 21t-17.5 17.5t-21 12t-29 4.5q-23 0 -44 -8.5t-38 -22.5t-28 -33.5t-15 -41.5l-24 -135q-1 -5 -1.5 -9.5t-0.5 -9.5q0 -38 24.5 -63t64.5 -25
q38 0 72 28q18 15 27 24t14 9q3 0 5 -1l38 -21q6 -3 6 -7q0 -18 -36 -45t-108 -43z" />
    <glyph glyph-name="cedilla" unicode="&#xb8;" horiz-adv-x="500" 
d="M177 -62q-2 -4 -2 -7q0 -4 4 -8q34 -22 34 -58v-8l-1 -9q-4 -34 -34 -59t-74 -25h-36q-8 0 -8 7v3l2 16q3 10 12 10h36q22 0 38.5 14t18.5 34l1 9v6q0 26 -16 33t-24.5 8t-8.5 6q0 3 3 8l54 85h43z" />
    <glyph glyph-name="cent" unicode="&#xa2;" 
d="M140 248q-1 -5 -1 -9v-8q0 -35 18.5 -59.5t40.5 -24.5q7 0 9 10l21 112.5t8 44.5q11 70 18.5 108.5t7.5 46.5q0 13 -5 13q-14 0 -28.5 -8t-28 -21.5t-23.5 -31.5t-13 -38zM322 552q0 -6 6.5 -8t22.5 -6q42 -11 64.5 -34t22.5 -43q0 -6 -7 -9l-45 -22l-6 -2q-4 0 -7 5
q-19 36 -53 49h-2q-8 0 -11.5 -13.5t-8.5 -40.5q-24 -137 -35 -205.5t-11 -69.5q0 -5 4 -5q15 0 33 13.5t42 36.5q4 4 8 4q3 0 5 -1l39 -22q4 -2 4 -6q0 -5 -5 -13t-13.5 -17.5t-20 -18t-24.5 -12.5q-41 -14 -63 -20t-24 -17l-11 -65q-1 -10 -12 -10h-25q-8 0 -8 8
q0 17 5.5 34t5.5 34q0 7 -5 10t-13.5 5.5t-20 5.5t-25.5 10q-27 14 -43 42t-16 66q0 16 3 33l24 135q11 61 46 97.5t98 56.5l26 7.5t11 10.5l11 65q3 10 12 10h25q8 0 8 -7v-3l-11 -65v-3z" />
    <glyph glyph-name="circumflex" unicode="&#x2c6;" horiz-adv-x="500" 
d="M390 512q2 -6 2 -8q0 -8 -12 -8h-35l-8 4l-33 62q-3 5 -8 5q-3 0 -8 -5l-58 -62l-8 -4h-34q-11 0 -11 7q0 4 5 9l99 105l9 4h31l7 -4z" />
    <glyph glyph-name="colon" unicode=":" horiz-adv-x="209" 
d="M104 42q0 -23 -17.5 -40t-42.5 -17q-17 0 -28.5 11.5t-11.5 29.5q0 23 18 40t40 17q19 0 30.5 -11t11.5 -30zM153 322q0 -23 -17.5 -40t-41.5 -17q-17 0 -28.5 11.5t-11.5 29.5q0 23 17.5 40.5t39.5 17.5q20 0 31 -11.5t11 -30.5z" />
    <glyph glyph-name="comma" unicode="," horiz-adv-x="209" 
d="M103 91q8 0 8 -8q0 -2 -3.5 -27.5t-14.5 -63.5q-8 -29 -22 -52t-30 -40t-31 -26t-24 -9q-5 0 -7 5l-7 16q-1 2 -1 6t8.5 12.5t23.5 25.5q14 16 22 35.5t8 38.5q0 8 -8 8h-14q-8 0 -8 7v3l10 59q3 10 12 10h78z" />
    <glyph glyph-name="copyright" unicode="&#xa9;" horiz-adv-x="700" 
d="M230 371q9 54 48.5 86t99.5 32q48 0 74.5 -20t26.5 -41q0 -6 -6 -9l-32 -15q-4 -2 -5 -2q-4 0 -7 5q-24 37 -59 37q-32 0 -57 -21t-30 -52l-17 -99q-1 -4 -1 -13q0 -26 17 -43.5t45 -17.5q24 0 39.5 11.5t32.5 27.5q4 4 8 4q3 0 5 -1l27 -16q5 -3 5 -7q0 -8 -9.5 -19
t-26 -21.5t-39.5 -17.5t-50 -7q-51 0 -79.5 26t-28.5 70q0 6 0.5 12t1.5 12zM599 460q1 7 1.5 13t0.5 12q0 46 -30.5 73t-84.5 27h-180q-63 0 -105 -34t-52 -91l-51 -290q-2 -7 -2 -13v-12q0 -46 30.5 -73t84.5 -27h180q62 0 104.5 34t52.5 91zM593 170q-7 -38 -25 -69
t-45.5 -53.5t-63 -35t-76.5 -12.5h-180q-72 0 -112.5 36t-40.5 99q0 17 3 35l51 290q7 38 25 69t45.5 53.5t63 35t76.5 12.5h180q72 0 112.5 -36.5t40.5 -98.5q0 -17 -3 -35z" />
    <glyph glyph-name="currency" unicode="&#xa4;" horiz-adv-x="606" 
d="M461 433q0 32 -12 60.5t-33.5 50t-50 34t-61.5 12.5t-61.5 -12.5t-50.5 -34t-34.5 -50t-12.5 -60.5q0 -33 12.5 -61.5t34.5 -50.5t50.5 -34.5t61.5 -12.5t61.5 12.5t50 34.5t33.5 51t12 61zM176 591q58 44 127 44q72 0 128 -44l100 100l32 -32l-100 -100q43 -58 43 -127
q0 -68 -43 -126l100 -101l-32 -32l-100 100q-58 -44 -128 -44q-68 0 -127 44l-100 -100l-32 32l100 101q-21 29 -32.5 60t-11.5 66t11.5 66.5t32.5 60.5l-100 100l32 32z" />
    <glyph glyph-name="d" unicode="d" horiz-adv-x="474" 
d="M328 279q1 5 1.5 9t0.5 9q0 38 -26 63t-68 25q-21 0 -41.5 -8.5t-37 -23t-27.5 -33.5t-15 -41l-20 -115q-1 -5 -1.5 -9t-0.5 -9q0 -38 25.5 -63.5t67.5 -25.5q21 0 41.5 8.5t37 23.5t28 34.5t15.5 40.5zM349 10q-1 -10 -12 -10h-37q-8 0 -8 7v3l7 43v3q0 8 -7 8
q-5 0 -19 -12t-40 -32t-71 -20q-61 0 -99 36t-38 96q0 15 3 32l20 115q11 64 68 117q51 46 115 46q38 0 53 -12q22 -17 34 -33.5t21 -16.5q7 0 9 11l40 228q1 10 12 10h48q8 0 8 -7v-3z" />
    <glyph glyph-name="dagger" unicode="&#x2020;" horiz-adv-x="410" 
d="M416 407q-2 -10 -11 -10h-2l-156 13h-2q-9 0 -11 -11l-1 -79l-114 -535q-1 -10 -12 -10h-6q-8 0 -8 7v3l74 535l27 79q1 2 1 5q0 6 -7 6h-3l-161 -13h-2q-7 0 -7 8v2l8 45q1 10 12 10l158 -13h2q9 0 11 11l15 159q2 11 12 11h44q9 0 9 -7q0 -1 -0.5 -2t-0.5 -2l-41 -159
q0 -2 -0.5 -2.5t-0.5 -1.5q0 -7 8 -7h2l161 13h2q8 0 8 -8v-2z" />
    <glyph glyph-name="daggerdbl" unicode="&#x2021;" horiz-adv-x="410" 
d="M377 190q-2 -10 -10 -10h-2l-150 13h-2q-8 0 -11 -10l-83 -398q-1 -10 -12 -10h-6q-8 0 -8 7v3l57 398v2q0 8 -7 8h-2l-155 -13h-2q-8 0 -8 8v2l8 45q3 10 11 10h2l150 -13h2q9 0 11 11l8 78l26 78q1 2 1 5q0 6 -7 6h-3l-161 -13h-2q-7 0 -7 8v2l8 45q1 10 12 10l158 -13
h2q9 0 11 11l15 159q2 11 12 11h44q9 0 9 -7q0 -1 -0.5 -2t-0.5 -2l-41 -159q0 -2 -0.5 -2.5t-0.5 -1.5q0 -7 8 -7h2l161 13h2q8 0 8 -8v-2l-8 -45q-2 -10 -11 -10h-2l-156 13h-2q-9 0 -11 -11v-77l-20 -79q0 -2 -0.5 -2.5t-0.5 -1.5q0 -7 8 -7h2l153 13h2q7 0 7 -7v-3z" />
    <glyph glyph-name="degree" unicode="&#xb0;" horiz-adv-x="209" 
d="M191 574q0 31 -37 31q-20 0 -34 -11t-16 -28l-4 -29v-7q0 -31 35 -31q21 0 35.5 11.5t16.5 28.5l4 29v6zM224 537q-5 -33 -31 -54.5t-64 -21.5q-32 0 -50 17t-18 45v8t1 8l5 29q5 34 30 54.5t62 20.5q33 0 52 -17t19 -45q0 -10 -1 -15z" />
    <glyph glyph-name="dieresis" unicode="&#xa8;" horiz-adv-x="500" 
d="M254 562q0 -21 -15.5 -36t-36.5 -15q-16 0 -26.5 10t-10.5 27q0 21 15.5 36t36.5 15q37 0 37 -37zM417 562q0 -20 -16 -35.5t-37 -15.5q-16 0 -26 9.5t-10 26.5q0 22 15 37t36 15q17 0 27.5 -10t10.5 -27z" />
    <glyph glyph-name="divide" unicode="&#xf7;" horiz-adv-x="833" 
d="M417 178q22 0 37 -15t15 -37q0 -21 -14.5 -36.5t-37.5 -15.5q-22 0 -37 15t-15 37t15.5 37t36.5 15zM709 274h-585v48h585v-48zM417 523q22 0 37 -15.5t15 -37.5q0 -21 -14.5 -36.5t-37.5 -15.5t-37.5 15t-14.5 37t15.5 37.5t36.5 15.5z" />
    <glyph glyph-name="dollar" unicode="$" 
d="M238 58q0 -6 7 -6q18 0 37 10.5t34 27t25 38t10 43.5q0 18 -8 34.5t-19.5 29.5t-23.5 20.5t-19 7.5q-8 0 -10 -11l-33 -190v-4zM280 569q0 8 -4 8q-17 0 -35 -10t-32.5 -26.5t-24 -37t-9.5 -41.5q0 -17 7.5 -32t17.5 -26t21 -18t18 -7q8 0 10 11l31 176v3zM342 647
q0 -6 5.5 -7t19.5 -4q50 -12 75 -36t25 -47q0 -4 -8 -8l-46 -21q-2 -1 -5 -1t-9.5 8.5t-15.5 19t-20.5 19t-25.5 8.5q-7 0 -10 -10q-21 -102 -29 -156t-8 -56q0 -5 6.5 -7.5t17.5 -9.5q53 -29 80 -61.5t27 -83.5q0 -32 -9 -61t-24.5 -53t-37.5 -42.5t-48 -27.5
q-18 -6 -32 -9t-23.5 -5.5t-15.5 -5.5t-7 -9l-6 -33q-1 -10 -12 -10h-27q-8 0 -8 7v3l5 32q0 1 0.5 1.5t0.5 1.5q0 6 -7 7t-19 1.5t-27 2.5t-31 9q-27 12 -44.5 34.5t-17.5 39.5q0 6 7 9l46 21q2 1 4 1q4 0 7 -5q35 -56 78 -56q8 0 11.5 1.5t5.5 8.5l40 228l-4 9
q-61 29 -91 63.5t-30 81.5q0 30 8.5 58.5t23.5 52t36 41.5t45 28q33 13 54.5 16t21.5 14l6 33q1 10 12 10h27q8 0 8 -7v-3l-5 -32v-3z" />
    <glyph glyph-name="dotaccent" unicode="&#x2d9;" horiz-adv-x="500" 
d="M342 541q-3 -20 -19 -32.5t-39 -12.5q-42 0 -42 37q0 2 0.5 4t0.5 4l5 31q3 20 18 32t39 12q20 0 31.5 -10t11.5 -26q0 -2 -0.5 -4t-0.5 -4z" />
    <glyph glyph-name="dotlessi" unicode="&#x131;" horiz-adv-x="209" 
d="M84 10q-1 -10 -12 -10h-48q-8 0 -8 7v3l74 422q1 10 12 10h48q8 0 8 -7v-3z" />
    <glyph glyph-name="e" unicode="e" horiz-adv-x="458" 
d="M330 289q1 5 1.5 10t0.5 10q0 35 -25 60.5t-65 25.5q-22 0 -42.5 -8t-37 -22.5t-28.5 -34t-17 -41.5l-3 -14v-2q0 -8 9 -8h193q8 0 11 10zM387 228q-1 -10 -12 -10h-261q-10 0 -11 -10l-10 -54q-1 -5 -1.5 -9.5t-0.5 -9.5q0 -38 25 -63t64 -25q38 0 72 28q18 15 27 24
t14 9q3 0 5 -1l38 -21q6 -3 6 -7q0 -10 -17 -27t-52 -38q-18 -11 -44.5 -17.5t-58.5 -6.5q-70 0 -108.5 35t-38.5 95q0 16 3 34l24 135q6 33 24.5 62.5t46 52t61.5 35.5t70 13q33 0 60 -11t46.5 -29.5t30.5 -44t11 -53.5q0 -6 -0.5 -12t-1.5 -13z" />
    <glyph glyph-name="eacute" unicode="&#xe9;" horiz-adv-x="458" 
d="M330 289q1 5 1.5 10t0.5 10q0 35 -25 60.5t-65 25.5q-22 0 -42.5 -8t-37 -22.5t-28.5 -34t-17 -41.5l-3 -14v-2q0 -8 9 -8h193q8 0 11 10zM387 228q-1 -10 -12 -10h-261q-10 0 -11 -10l-10 -54q-1 -5 -1.5 -9.5t-0.5 -9.5q0 -38 25 -63t64 -25q38 0 72 28q18 15 27 24
t14 9q3 0 5 -1l38 -21q6 -3 6 -7q0 -10 -17 -27t-52 -38q-18 -11 -44.5 -17.5t-58.5 -6.5q-70 0 -108.5 35t-38.5 95q0 16 3 34l24 135q6 33 24.5 62.5t46 52t61.5 35.5t70 13q33 0 60 -11t46.5 -29.5t30.5 -44t11 -53.5q0 -6 -0.5 -12t-1.5 -13zM263 498l-26 -2
q-10 0 -10 6q0 3 5 10l88 104l9 4h68q10 0 10 -7q0 -6 -6 -10z" />
    <glyph glyph-name="ecircumflex" unicode="&#xea;" horiz-adv-x="458" 
d="M368 512q2 -6 2 -8q0 -8 -12 -8h-35l-8 4l-33 62q-3 5 -8 5q-3 0 -8 -5l-58 -62l-8 -4h-34q-11 0 -11 7q0 4 5 9l99 105l9 4h31l7 -4zM330 289q1 5 1.5 10t0.5 10q0 35 -25 60.5t-65 25.5q-22 0 -42.5 -8t-37 -22.5t-28.5 -34t-17 -41.5l-3 -14v-2q0 -8 9 -8h193
q8 0 11 10zM387 228q-1 -10 -12 -10h-261q-10 0 -11 -10l-10 -54q-1 -5 -1.5 -9.5t-0.5 -9.5q0 -38 25 -63t64 -25q38 0 72 28q18 15 27 24t14 9q3 0 5 -1l38 -21q6 -3 6 -7q0 -10 -17 -27t-52 -38q-18 -11 -44.5 -17.5t-58.5 -6.5q-70 0 -108.5 35t-38.5 95q0 16 3 34
l24 135q6 33 24.5 62.5t46 52t61.5 35.5t70 13q33 0 60 -11t46.5 -29.5t30.5 -44t11 -53.5q0 -6 -0.5 -12t-1.5 -13z" />
    <glyph glyph-name="edieresis" unicode="&#xeb;" horiz-adv-x="458" 
d="M330 289q1 5 1.5 10t0.5 10q0 35 -25 60.5t-65 25.5q-22 0 -42.5 -8t-37 -22.5t-28.5 -34t-17 -41.5l-3 -14v-2q0 -8 9 -8h193q8 0 11 10zM387 228q-1 -10 -12 -10h-261q-10 0 -11 -10l-10 -54q-1 -5 -1.5 -9.5t-0.5 -9.5q0 -38 25 -63t64 -25q38 0 72 28q18 15 27 24
t14 9q3 0 5 -1l38 -21q6 -3 6 -7q0 -10 -17 -27t-52 -38q-18 -11 -44.5 -17.5t-58.5 -6.5q-70 0 -108.5 35t-38.5 95q0 16 3 34l24 135q6 33 24.5 62.5t46 52t61.5 35.5t70 13q33 0 60 -11t46.5 -29.5t30.5 -44t11 -53.5q0 -6 -0.5 -12t-1.5 -13zM233 562q0 -21 -15.5 -36
t-36.5 -15q-16 0 -26.5 10t-10.5 27q0 21 15.5 36t36.5 15q37 0 37 -37zM396 562q0 -20 -16 -35.5t-37 -15.5q-16 0 -26 9.5t-10 26.5q0 22 15 37t36 15q17 0 27.5 -10t10.5 -27z" />
    <glyph glyph-name="egrave" unicode="&#xe8;" horiz-adv-x="458" 
d="M295 512q1 -2 1 -6q0 -10 -10 -10h-2l-27 2l-99 105q-3 3 -3 7q0 10 13 10h68l7 -4zM330 289q1 5 1.5 10t0.5 10q0 35 -25 60.5t-65 25.5q-22 0 -42.5 -8t-37 -22.5t-28.5 -34t-17 -41.5l-3 -14v-2q0 -8 9 -8h193q8 0 11 10zM387 228q-1 -10 -12 -10h-261q-10 0 -11 -10
l-10 -54q-1 -5 -1.5 -9.5t-0.5 -9.5q0 -38 25 -63t64 -25q38 0 72 28q18 15 27 24t14 9q3 0 5 -1l38 -21q6 -3 6 -7q0 -10 -17 -27t-52 -38q-18 -11 -44.5 -17.5t-58.5 -6.5q-70 0 -108.5 35t-38.5 95q0 16 3 34l24 135q6 33 24.5 62.5t46 52t61.5 35.5t70 13q33 0 60 -11
t46.5 -29.5t30.5 -44t11 -53.5q0 -6 -0.5 -12t-1.5 -13z" />
    <glyph glyph-name="eight" unicode="8" 
d="M354 185q1 5 1.5 9t0.5 9q0 37 -25.5 62.5t-65.5 25.5h-31q-45 0 -80 -29.5t-44 -76.5l-6 -31q-1 -5 -1.5 -10t-0.5 -10q0 -37 25 -62t64 -25h31q22 0 42.5 8.5t37.5 22.5t29 33.5t17 42.5zM405 476q1 5 1.5 10t0.5 10q0 37 -25 61.5t-65 24.5h-31q-45 0 -80 -29t-45 -77
l-4 -20q-2 -6 -2 -11.5v-10.5q0 -37 25 -61.5t64 -24.5h31q45 0 80.5 30t45.5 78zM467 445q-16 -80 -116 -123l-1 -4q35 -16 54 -46t19 -65v-9.5t-1 -9.5l-4 -26q-6 -39 -23.5 -71t-44.5 -54.5t-62 -34.5t-76 -12h-31q-70 0 -108.5 35t-38.5 95q0 22 4 42l5 26
q16 87 120 128l1 5q-39 17 -59 43t-20 59q0 5 0.5 11t1.5 11l4 21q15 81 70 127.5t135 46.5h31q69 0 108.5 -36t39.5 -97q0 -22 -4 -41z" />
    <glyph glyph-name="ellipsis" unicode="&#x2026;" horiz-adv-x="479" 
d="M476 582q-2 -10 -12 -10h-261q-11 0 -12 -10l-36 -204v-3q0 -7 8 -7h214q9 0 9 -8v-2l-7 -37q-1 -10 -12 -10h-214q-10 0 -11 -10l-38 -214v-3q0 -7 8 -7h261q8 0 8 -7v-3l-6 -37q-1 -10 -12 -10h-328q-8 0 -8 7v3l107 609q1 10 12 10h328q8 0 8 -7v-3z" />
    <glyph glyph-name="emdash" unicode="&#x2014;" horiz-adv-x="791" 
d="M755 223q-1 -10 -11 -10h-734q-9 0 -9 8v2l5 27q1 10 12 10h734q8 0 8 -7v-3z" />
    <glyph glyph-name="endash" unicode="&#x2013;" 
d="M474 223q-1 -10 -11 -10h-453q-9 0 -9 8v2l5 27q1 10 12 10h453q8 0 8 -7v-3z" />
    <glyph glyph-name="equal" unicode="=" 
d="M432 130q-1 -10 -12 -10h-401q-8 0 -8 7v3l5 26q1 10 11 10h401q9 0 9 -8v-2zM465 317q-1 -10 -12 -10h-401q-8 0 -8 7v3l4 26q3 10 12 10h401q8 0 8 -7v-3z" />
    <glyph glyph-name="exclam" unicode="!" horiz-adv-x="261" 
d="M145 42q0 -23 -17 -40t-40 -17q-19 0 -31 11.5t-12 29.5q0 22 18 39.5t41 17.5q19 0 30 -11t11 -30zM188 366l-51 -170q-3 -9 -12 -9h-5q-8 0 -8 7v2l7 169l45 254q1 10 12 10h48q8 0 8 -7v-3z" />
    <glyph glyph-name="exclamdown" unicode="&#xa1;" horiz-adv-x="261" 
d="M106 81l-45 -258q-1 -10 -12 -10h-49q-8 0 -8 7v3l45 257l50 166q3 9 12 9h6q8 0 8 -9zM180 415q0 -21 -18 -38.5t-41 -17.5q-18 0 -29.5 11t-11.5 29q0 23 18 40.5t41 17.5q18 0 29.5 -11.5t11.5 -30.5z" />
    <glyph glyph-name="f" unicode="f" horiz-adv-x="276" 
d="M335 588q-2 -4 -11 -7q-7 0 -12 0.5t-10 0.5q-21 0 -41 -8.5t-36 -22.5t-27.5 -33.5t-15.5 -41.5l-13 -71v-2q0 -8 9 -8h73q8 0 8 -7v-3l-7 -37q-1 -10 -11 -10h-73q-11 0 -12 -10l-58 -327l-10 -60q-6 -37 -25 -69t-47 -55.5t-62.5 -37t-71.5 -13.5q-38 0 -38 9q0 4 2 7
l20 37q3 6 11 6q2 0 5 -0.5t10 -1.5q55 9 86.5 36.5t39.5 70.5l12 71l58 327v3q0 7 -8 7h-27q-9 0 -9 8v2l7 37q1 10 12 10h27q10 0 11 10l11 61q12 68 72 123q55 51 125 51q48 0 48 -6q0 -2 -3 -8z" />
    <glyph glyph-name="five" unicode="5" 
d="M482 582q-2 -10 -12 -10h-240q-11 0 -12 -10l-35 -199v-3q0 -7 8 -7h86q71 0 109.5 -36t38.5 -100q0 -17 -3 -35l-3 -20q-6 -39 -23.5 -71t-44.5 -54.5t-62 -34.5t-76 -12h-31q-33 0 -58.5 8t-43.5 20.5t-27.5 28t-9.5 30.5q0 5 7 8l46 22q2 1 5 1q2 0 7 -5l17 -21.5
t17 -18t21 -12t29 -4.5h31q22 0 43 8.5t38.5 23t29 34t15.5 41.5l6 36q1 5 1.5 9t0.5 9q0 38 -25.5 63t-64.5 25h-153q-8 0 -8 7v3l55 313q1 10 12 10h307q8 0 8 -8v-2z" />
    <glyph glyph-name="florin" unicode="&#x192;" 
d="M451 588q-2 -4 -11 -7q-7 0 -12 0.5t-10 0.5q-21 0 -41 -8.5t-36.5 -22.5t-27.5 -33.5t-15 -41.5l-21 -118v-3q0 -7 8 -7h73q9 0 9 -8v-2l-7 -37q-1 -10 -12 -10h-73q-10 0 -11 -10l-50 -280l-11 -61q-7 -37 -26 -69t-46.5 -55.5t-61.5 -37t-71 -13.5q-20 0 -29.5 1.5
t-9.5 7.5q0 4 2 7l21 37q3 6 10 6q2 0 6 -1t10 -1q22 0 43 8.5t37.5 23t28.5 34t16 41.5l13 72l50 280v2q0 8 -9 8h-27q-8 0 -8 7v3l7 37q1 10 11 10h27q11 0 12 10l19 108q6 32 24 64t48 59q55 51 125 51q24 0 36 -0.5t12 -5.5q0 -2 -3 -8z" />
    <glyph glyph-name="four" unicode="4" 
d="M349 516q0 9 -7 9q-5 0 -9 -6l-249 -295q-4 -4 -4 -9q0 -7 10 -7h196q10 0 11 10l52 295v3zM448 161q-1 -10 -11 -10h-74q-11 0 -12 -10l-23 -131q-1 -10 -12 -10h-47q-8 0 -8 7v3l23 131v2q0 8 -8 8h-261q-9 0 -9 8v2l12 57l340 407l9 4h60q8 0 8 -7v-3l-71 -401v-2
q0 -8 9 -8h74q8 0 8 -8v-2z" />
    <glyph glyph-name="fraction" unicode="&#x2044;" horiz-adv-x="291" 
d="M-20 6q-5 -6 -10 -6h-24q-9 0 -9 7q0 4 2 7l369 610q4 6 10 6h24q9 0 9 -7q0 -4 -2 -7z" />
    <glyph glyph-name="fraction" unicode="&#x2215;" horiz-adv-x="291" 
d="M-20 6q-5 -6 -10 -6h-24q-9 0 -9 7q0 4 2 7l369 610q4 6 10 6h24q9 0 9 -7q0 -4 -2 -7z" />
    <glyph glyph-name="g" unicode="g" horiz-adv-x="474" 
d="M328 279q1 5 1.5 9t0.5 9q0 38 -26 63t-68 25q-21 0 -41.5 -8.5t-37 -23t-27.5 -33.5t-15 -41l-20 -115q-1 -5 -1.5 -9t-0.5 -9q0 -38 25.5 -63.5t67.5 -25.5q21 0 41.5 8.5t37 23.5t28 34.5t15.5 40.5zM337 -59q-14 -81 -69 -128t-137 -47q-32 0 -58 8t-44 20.5t-28 28
t-10 31.5q0 4 8 8l45 21q2 1 5 1q2 0 7 -5l17 -22.5t17.5 -18t21.5 -11.5t29 -4q23 0 44 8.5t38 23t28.5 34t15.5 41.5l21 122v3q0 8 -6 8q-7 0 -23.5 -15t-48.5 -36q-7 -5 -21.5 -8.5t-33.5 -3.5q-28 0 -51.5 9.5t-41 27t-27.5 42t-10 53.5q0 15 3 32l20 115q6 36 24 65.5
t44 51.5t58 34t67 12q38 0 53 -12q23 -17 35.5 -34t20.5 -17q7 0 9 11l7 42q1 10 12 10h37q8 0 8 -7v-3z" />
    <glyph glyph-name="germandbls" unicode="&#xdf;" horiz-adv-x="477" 
d="M447 445q-5 -23 -19.5 -47t-34.5 -41q-23 -17 -37 -24.5t-14 -12.5q0 -6 6 -9t15 -11q19 -15 30 -40.5t11 -52.5q0 -5 -0.5 -9.5t-1.5 -9.5l-4 -26q-7 -43 -27.5 -77t-51.5 -54q-30 -20 -55 -30t-48 -10q-9 0 -9 7v3l7 39q1 5 3.5 6.5t6.5 3.5q20 9 37 17.5t30.5 19.5
t22.5 27t14 40l6 31q1 5 1.5 9t0.5 9q0 26 -11.5 45.5t-26.5 26.5q-20 8 -29 11t-9 10v2l7 43q1 5 3.5 6.5t6.5 3.5q20 9 37 17.5t30 19.5t22.5 27.5t14.5 40.5l4 20q1 5 1.5 10.5t0.5 10.5q0 37 -26 61t-68 24q-22 0 -42 -8t-36.5 -22t-27.5 -33.5t-15 -42.5l-95 -535
q-12 -73 -73 -126q-53 -49 -132 -49q-38 0 -38 9q0 4 2 7l20 37q3 6 11 6q2 0 5 -0.5t10 -1.5q111 18 126 107l94 536q6 33 24 64.5t48 58.5q56 51 133 51q70 0 109 -35.5t39 -98.5q0 -9 -1 -19t-3 -21z" />
    <glyph glyph-name="grave" unicode="`" horiz-adv-x="500" 
d="M317 512q1 -2 1 -6q0 -10 -10 -10h-2l-27 2l-99 105q-3 3 -3 7q0 10 13 10h68l7 -4z" />
    <glyph glyph-name="greater" unicode="&#x3e;" 
d="M425 214l-7 -9l-344 -180q-4 -2 -6 -2q-4 0 -7 6l-9 21q-1 2 -1 5q0 5 7 9l317 167q8 5 8 9q0 6 -5 9l-258 166q-4 3 -4 7q0 2 3 7l16 21q4 6 9 6q2 0 6 -2l280 -182l3 -9z" />
    <glyph glyph-name="guillemotleft" unicode="&#xab;" horiz-adv-x="556" 
d="M278 398l-5 -8l-164 -104q-6 -5 -6 -8q0 -5 4 -8l126 -105l3 -8l-8 -42q-2 -11 -9 -11q-4 0 -8 3l-165 135l-3 8l10 55l5 8l213 135q4 3 9 3q6 0 6 -8v-3zM503 398l-5 -8l-164 -104q-6 -5 -6 -8q0 -5 4 -8l126 -105l3 -8l-8 -43q-2 -11 -9 -11q-4 0 -8 3l-167 136l-3 8
l10 55l5 8l215 135q4 3 9 3q6 0 6 -8v-3z" />
    <glyph glyph-name="guillemotright" unicode="&#xbb;" horiz-adv-x="556" 
d="M265 250l-5 -8l-215 -135q-6 -3 -9 -3q-6 0 -6 8v3l8 42l5 8l164 105q6 4 6 8q0 5 -4 8l-126 104l-3 8l8 42q2 11 9 11q5 0 8 -3l167 -135l3 -8zM488 250l-5 -8l-213 -135q-6 -3 -9 -3q-6 0 -6 8v3l8 42l5 8l164 105q6 4 6 8q0 5 -4 8l-126 104l-3 8l8 42q2 11 9 11
q5 0 8 -3l165 -135l3 -8z" />
    <glyph glyph-name="guilsinglleft" unicode="&#x2039;" horiz-adv-x="325" 
d="M278 398l-5 -8l-164 -104q-6 -5 -6 -8q0 -5 4 -8l126 -105l3 -8l-8 -42q-2 -11 -9 -11q-4 0 -8 3l-165 135l-3 8l10 55l5 8l213 135q4 3 9 3q6 0 6 -8v-3z" />
    <glyph glyph-name="guilsinglright" unicode="&#x203a;" horiz-adv-x="325" 
d="M265 250l-5 -8l-215 -135q-6 -3 -9 -3q-6 0 -6 8v3l8 42l5 8l164 105q6 4 6 8q0 5 -4 8l-126 104l-3 8l8 42q2 11 9 11q5 0 8 -3l167 -135l3 -8z" />
    <glyph glyph-name="h" unicode="h" horiz-adv-x="484" 
d="M365 10q-1 -10 -12 -10h-48q-8 0 -8 7v3l47 269q1 5 1.5 9t0.5 9q0 38 -26 63t-68 25q-21 0 -41.5 -8.5t-37 -23t-27.5 -33.5t-15 -41l-47 -269q-1 -10 -12 -10h-48q-8 0 -8 7v3l107 609q1 10 12 10h48q8 0 8 -7v-3l-40 -226v-3q0 -8 6 -8q5 0 19 11l41 31q11 8 28 13
t37 5q29 0 53.5 -10t42 -27.5t27.5 -42t10 -53.5q0 -15 -3 -30z" />
    <glyph glyph-name="hungarumlaut" unicode="&#x2dd;" horiz-adv-x="500" 
d="M236 501q-3 -2 -5 -3l-4 -2h-7q-9 0 -9 6q0 1 2 7l55 105q2 4 11 7h36q9 0 9 -7q0 -4 -4 -8zM337 501q-3 -2 -5 -3l-4 -2h-6q-9 0 -9 6q0 1 2 7l55 105q2 4 11 7h35q9 0 9 -7q0 -4 -4 -8z" />
    <glyph glyph-name="hyphen" unicode="-" horiz-adv-x="261" 
d="M190 197q-3 -10 -12 -10h-142q-9 0 -9 6q0 1 0.5 1.5t0.5 2.5l8 48q1 10 12 10h142q8 0 8 -7v-3z" />
    <glyph glyph-name="hyphen" unicode="&#xad;" horiz-adv-x="261" 
d="M190 197q-3 -10 -12 -10h-142q-9 0 -9 6q0 1 0.5 1.5t0.5 2.5l8 48q1 10 12 10h142q8 0 8 -7v-3z" />
    <glyph glyph-name="i" unicode="i" horiz-adv-x="209" 
d="M84 10q-1 -10 -12 -10h-48q-8 0 -8 7v3l74 422q1 10 12 10h48q8 0 8 -7v-3zM197 603q0 -20 -16 -36t-37 -16q-16 0 -26 9.5t-10 26.5q0 21 16 37t36 16q37 0 37 -37z" />
    <glyph glyph-name="iacute" unicode="&#xed;" horiz-adv-x="209" 
d="M84 10q-1 -10 -12 -10h-48q-8 0 -8 7v3l74 422q1 10 12 10h48q8 0 8 -7v-3zM139 498l-26 -2q-10 0 -10 6q0 3 5 10l88 104l9 4h68q10 0 10 -7q0 -6 -6 -10z" />
    <glyph glyph-name="icircumflex" unicode="&#xee;" horiz-adv-x="209" 
d="M244 512q2 -6 2 -8q0 -8 -12 -8h-35l-8 4l-33 62q-3 5 -8 5q-3 0 -8 -5l-58 -62l-8 -4h-34q-11 0 -11 7q0 4 5 9l99 105l9 4h31l7 -4zM84 10q-1 -10 -12 -10h-48q-8 0 -8 7v3l74 422q1 10 12 10h48q8 0 8 -7v-3z" />
    <glyph glyph-name="idieresis" unicode="&#xef;" horiz-adv-x="209" 
d="M84 10q-1 -10 -12 -10h-48q-8 0 -8 7v3l74 422q1 10 12 10h48q8 0 8 -7v-3zM109 562q0 -21 -15.5 -36t-36.5 -15q-16 0 -26.5 10t-10.5 27q0 21 15.5 36t36.5 15q37 0 37 -37zM272 562q0 -20 -16 -35.5t-37 -15.5q-16 0 -26 9.5t-10 26.5q0 22 15 37t36 15q17 0 27.5 -10
t10.5 -27z" />
    <glyph glyph-name="igrave" unicode="&#xec;" horiz-adv-x="209" 
d="M171 512q1 -2 1 -6q0 -10 -10 -10h-2l-27 2l-99 105q-3 3 -3 7q0 10 13 10h68l7 -4zM84 10q-1 -10 -12 -10h-48q-8 0 -8 7v3l74 422q1 10 12 10h48q8 0 8 -7v-3z" />
    <glyph glyph-name="j" unicode="j" horiz-adv-x="209" 
d="M71 -62q-5 -26 -20 -54.5t-41 -57.5q-27 -29 -58.5 -45t-62.5 -16q-8 0 -8 7v3l7 38q1 5 3.5 6.5t6.5 3.5l36 17t30.5 19.5t22.5 27.5t14 40l89 505q1 10 12 10h48q8 0 8 -7v-3zM197 603q0 -20 -16 -36t-37 -16q-16 0 -26 9.5t-10 26.5q0 21 16 37t36 16q37 0 37 -37z
" />
    <glyph glyph-name="k" unicode="k" horiz-adv-x="447" 
d="M254 302q-4 -5 -4 -10v-2l122 -275q1 -2 1 -5q0 -10 -13 -10h-60l-8 5l-98 226q-3 6 -8 6q-4 0 -8 -4l-65 -56l-29 -167q-1 -10 -12 -10h-48q-8 0 -8 7v3l107 609q1 10 12 10h48q8 0 8 -7v-3l-61 -344v-3q0 -8 7 -8q5 0 9 4l185 171l8 3h55q10 0 10 -8q0 -5 -6 -9z" />
    <glyph glyph-name="l" unicode="l" horiz-adv-x="209" 
d="M84 10q-1 -10 -12 -10h-48q-8 0 -8 7v3l107 609q1 10 12 10h48q8 0 8 -7v-3z" />
    <glyph glyph-name="less" unicode="&#x3c;" 
d="M431 429q1 -2 1 -4q0 -5 -8 -10l-317 -166q-8 -4 -8 -9q0 -6 5 -9l258 -167q5 -3 5 -7q0 -2 -4 -8l-18 -21q-5 -5 -8 -5q-2 0 -6 2l-280 179l-3 9l9 51l6 9l345 181l6 2q4 0 7 -6z" />
    <glyph glyph-name="logicalnot" unicode="&#xac;" horiz-adv-x="833" 
d="M709 174h-47v196h-538v49h585v-245z" />
    <glyph glyph-name="m" unicode="m" horiz-adv-x="729" 
d="M604 10q-1 -10 -12 -10h-48q-8 0 -8 7v3l47 269q1 5 1.5 9t0.5 8q0 18 -6.5 34.5t-17.5 28.5t-25.5 19t-30.5 7q-17 0 -35.5 -8.5t-34.5 -23t-28 -33.5t-16 -41l-47 -269q-1 -10 -12 -10h-48q-8 0 -8 7v3l47 269q1 5 1.5 9t0.5 9q0 36 -23.5 62t-56.5 26
q-17 0 -35.5 -8.5t-35 -23t-28 -33.5t-15.5 -41l-47 -269q-1 -10 -12 -10h-48q-8 0 -8 7v3l74 422q1 10 12 10h37q8 0 8 -7v-3l-7 -40v-3q0 -9 6 -9t17.5 10.5t32.5 25.5q19 14 38.5 20t37.5 6q55 0 96 -59q4 -5 7 -5q2 0 9 5l25.5 20.5t27.5 19t34 14t44 5.5q63 0 101 -36
t38 -95q0 -16 -3 -32z" />
    <glyph glyph-name="macron" unicode="&#xaf;" horiz-adv-x="500" 
d="M394 544q-1 -10 -11 -10h-194q-9 0 -9 7v3l7 37q1 10 12 10h194q8 0 8 -7v-3z" />
    <glyph glyph-name="macron" unicode="&#x2c9;" horiz-adv-x="500" 
d="M394 544q-1 -10 -11 -10h-194q-9 0 -9 7v3l7 37q1 10 12 10h194q8 0 8 -7v-3z" />
    <glyph glyph-name="mu" unicode="&#xb5;" horiz-adv-x="542" 
d="M107 231q-4 -17 -6 -34t-2 -34q0 -57 28 -88t82 -31q60 0 104 51t66 153l59 272h68l-80 -376q-5 -23 -8 -39t-3 -26q0 -32 33 -32h6t12 1l-10 -54q-11 -3 -22 -4t-20 -1q-67 0 -67 71v7q-20 -38 -58 -58.5t-88 -20.5q-45 0 -78.5 19.5t-52.5 56.5l-56 -272h-68l154 728
h68z" />
    <glyph glyph-name="mu" unicode="&#x3bc;" horiz-adv-x="542" 
d="M107 231q-4 -17 -6 -34t-2 -34q0 -57 28 -88t82 -31q60 0 104 51t66 153l59 272h68l-80 -376q-5 -23 -8 -39t-3 -26q0 -32 33 -32h6t12 1l-10 -54q-11 -3 -22 -4t-20 -1q-67 0 -67 71v7q-20 -38 -58 -58.5t-88 -20.5q-45 0 -78.5 19.5t-52.5 56.5l-56 -272h-68l154 728
h68z" />
    <glyph glyph-name="n" unicode="n" horiz-adv-x="490" 
d="M365 10q-1 -10 -12 -10h-48q-8 0 -8 7v3l47 269q1 5 1.5 9t0.5 9q0 38 -26 63t-68 25q-21 0 -41.5 -8.5t-37 -23t-27.5 -33.5t-15 -41l-47 -269q-1 -10 -12 -10h-48q-8 0 -8 7v3l74 422q1 10 12 10h37q8 0 8 -7v-3l-7 -40v-3q0 -8 7 -8q5 0 16.5 10.5t33.5 26.5
q33 24 78 24q63 0 101.5 -36t38.5 -96q0 -15 -3 -31z" />
    <glyph glyph-name="nine" unicode="9" 
d="M404 476q1 5 1.5 10t0.5 10q0 38 -25.5 62t-64.5 24h-30q-23 0 -43.5 -8t-37.5 -22t-28.5 -33.5t-15.5 -42.5l-14 -78q-1 -5 -1.5 -9.5t-0.5 -9.5q0 -38 25 -63t64 -25h30q22 0 43 8.5t38 22.5t29 33.5t16 42.5zM415 154q-13 -74 -68 -119t-136 -45h-30q-33 0 -59 8
t-43.5 21t-26.5 28t-9 30q0 6 7 9l46 21q2 1 5 1q2 0 7 -5l15 -21.5t15.5 -18t21 -12t31.5 -4.5h30q22 0 43 8.5t38.5 23t29 34t15.5 41.5l23 132v3q0 8 -7 8q-3 0 -10 -5l-51.5 -40t-57.5 -18h-30q-63 0 -100 36.5t-37 94.5q0 16 3 33l14 78q14 75 68 119.5t134 44.5h30
q70 0 109.5 -36t39.5 -96q0 -16 -3 -32z" />
    <glyph glyph-name="ntilde" unicode="&#xf1;" horiz-adv-x="490" 
d="M365 10q-1 -10 -12 -10h-48q-8 0 -8 7v3l47 269q1 5 1.5 9t0.5 9q0 38 -26 63t-68 25q-21 0 -41.5 -8.5t-37 -23t-27.5 -33.5t-15 -41l-47 -269q-1 -10 -12 -10h-48q-8 0 -8 7v3l74 422q1 10 12 10h37q8 0 8 -7v-3l-7 -40v-3q0 -8 7 -8q5 0 16.5 10.5t33.5 26.5
q33 24 78 24q63 0 101.5 -36t38.5 -96q0 -15 -3 -31zM427 579q3 -3 3 -7q0 -2 -2 -6q-21 -30 -45 -45t-45 -15q-28 0 -57 26l-18 13q-20 15 -39 15q-12 0 -22.5 -4.5t-18.5 -10l-14 -10t-9 -4.5q-2 0 -6 2l-9 7q-3 3 -3 6t2 7q45 59 91 59q27 0 53 -23l18 -16q17 -15 41 -15
q13 0 24 4.5t19 10.5t13.5 10.5t8.5 4.5q5 0 7 -2z" />
    <glyph glyph-name="numbersign" unicode="#" horiz-adv-x="563" 
d="M369 373q0 1 0.5 1.5t0.5 1.5q0 9 -11 9h-122q-9 0 -10 -6l-34 -122q0 -2 -0.5 -2.5t-0.5 -1.5q0 -9 11 -9h122q7 0 10 8zM508 395q-3 -10 -13 -10h-59q-9 0 -10 -6l-34 -122q0 -1 -0.5 -2t-0.5 -2q0 -9 11 -9h62q8 0 8 -6q0 -1 -0.5 -1.5t-0.5 -2.5l-10 -37
q-3 -10 -13 -10h-69q-9 0 -10 -6l-49 -174q-1 -7 -10 -7h-33q-11 0 -11 9q0 1 0.5 1.5t0.5 2.5l46 162q0 1 0.5 1.5t0.5 1.5q0 9 -11 9h-122q-9 0 -10 -6l-50 -174q-1 -7 -10 -7h-33q-11 0 -11 9q0 1 0.5 1.5t0.5 2.5l45 162q0 1 0.5 1.5t0.5 1.5q0 9 -11 9h-51q-8 0 -8 6
q0 1 0.5 1.5t0.5 2.5l10 37q3 10 13 10h57q7 0 10 8l35 121q0 1 0.5 1.5t0.5 1.5q0 9 -11 9h-60q-8 0 -8 6q0 1 0.5 1.5t0.5 2.5l10 37q3 10 13 10h66q7 0 10 8l50 173q3 7 10 7h33q11 0 11 -9q0 -1 -0.5 -2t-0.5 -2l-46 -162q0 -1 -0.5 -2t-0.5 -2q0 -9 11 -9h122q7 0 10 8
l50 173q1 7 10 7h33q11 0 11 -9q0 -1 -0.5 -2t-0.5 -2l-46 -162q0 -1 -0.5 -2t-0.5 -2q0 -9 11 -9h53q8 0 8 -6q0 -1 -0.5 -1.5t-0.5 -2.5z" />
    <glyph glyph-name="o" unicode="o" horiz-adv-x="458" 
d="M330 289q1 5 1.5 9t0.5 9q0 38 -26 63t-68 25q-21 0 -41.5 -8.5t-37 -23t-27.5 -33.5t-15 -41l-24 -135q-1 -5 -1.5 -9t-0.5 -9q0 -38 25 -63.5t64 -25.5q23 0 44 8.5t38 23t28.5 34t15.5 41.5zM374 154q-13 -74 -68 -119t-136 -45q-70 0 -108.5 35t-38.5 95q0 16 3 34
l24 135q14 75 68 119t134 44q71 0 110 -35t39 -95q0 -17 -3 -33z" />
    <glyph glyph-name="oacute" unicode="&#xf3;" horiz-adv-x="458" 
d="M330 289q1 5 1.5 9t0.5 9q0 38 -26 63t-68 25q-21 0 -41.5 -8.5t-37 -23t-27.5 -33.5t-15 -41l-24 -135q-1 -5 -1.5 -9t-0.5 -9q0 -38 25 -63.5t64 -25.5q23 0 44 8.5t38 23t28.5 34t15.5 41.5zM374 154q-13 -74 -68 -119t-136 -45q-70 0 -108.5 35t-38.5 95q0 16 3 34
l24 135q14 75 68 119t134 44q71 0 110 -35t39 -95q0 -17 -3 -33zM263 498l-26 -2q-10 0 -10 6q0 3 5 10l88 104l9 4h68q10 0 10 -7q0 -6 -6 -10z" />
    <glyph glyph-name="ocircumflex" unicode="&#xf4;" horiz-adv-x="458" 
d="M368 512q2 -6 2 -8q0 -8 -12 -8h-35l-8 4l-33 62q-3 5 -8 5q-3 0 -8 -5l-58 -62l-8 -4h-34q-11 0 -11 7q0 4 5 9l99 105l9 4h31l7 -4zM330 289q1 5 1.5 9t0.5 9q0 38 -26 63t-68 25q-21 0 -41.5 -8.5t-37 -23t-27.5 -33.5t-15 -41l-24 -135q-1 -5 -1.5 -9t-0.5 -9
q0 -38 25 -63.5t64 -25.5q23 0 44 8.5t38 23t28.5 34t15.5 41.5zM374 154q-13 -74 -68 -119t-136 -45q-70 0 -108.5 35t-38.5 95q0 16 3 34l24 135q14 75 68 119t134 44q71 0 110 -35t39 -95q0 -17 -3 -33z" />
    <glyph glyph-name="odieresis" unicode="&#xf6;" horiz-adv-x="458" 
d="M330 289q1 5 1.5 9t0.5 9q0 38 -26 63t-68 25q-21 0 -41.5 -8.5t-37 -23t-27.5 -33.5t-15 -41l-24 -135q-1 -5 -1.5 -9t-0.5 -9q0 -38 25 -63.5t64 -25.5q23 0 44 8.5t38 23t28.5 34t15.5 41.5zM374 154q-13 -74 -68 -119t-136 -45q-70 0 -108.5 35t-38.5 95q0 16 3 34
l24 135q14 75 68 119t134 44q71 0 110 -35t39 -95q0 -17 -3 -33zM233 562q0 -21 -15.5 -36t-36.5 -15q-16 0 -26.5 10t-10.5 27q0 21 15.5 36t36.5 15q37 0 37 -37zM396 562q0 -20 -16 -35.5t-37 -15.5q-16 0 -26 9.5t-10 26.5q0 22 15 37t36 15q17 0 27.5 -10t10.5 -27z
" />
    <glyph glyph-name="oe" unicode="&#x153;" horiz-adv-x="739" 
d="M330 289q1 5 1.5 9t0.5 9q0 38 -26 63t-68 25q-21 0 -41.5 -8.5t-37 -23t-27.5 -33.5t-15 -41l-24 -135q-1 -5 -1.5 -9t-0.5 -9q0 -38 25 -63.5t64 -25.5q23 0 44 8.5t38 23t28.5 34t15.5 41.5zM611 289q1 5 1.5 10t0.5 10q0 35 -24.5 60.5t-65.5 25.5q-70 0 -122 -85
q0 -11 -3 -21l-3 -14v-2q0 -8 9 -8h193q8 0 11 10zM668 228q-1 -10 -12 -10h-261q-10 0 -11 -10l-10 -54q-1 -4 -2 -9t-3 -12q14 -43 37.5 -64.5t54.5 -21.5q36 0 72 28q18 14 27 23.5t14 9.5q3 0 5 -1l38 -21q6 -3 6 -7q0 -10 -17 -27.5t-52 -37.5q-18 -11 -44.5 -17.5
t-58.5 -6.5q-38 0 -67.5 12.5t-55.5 40.5q-5 3 -7 3q-3 0 -7 -3l-28 -18.5t-31 -17t-37.5 -12.5t-47.5 -5q-70 0 -108.5 35t-38.5 95q0 16 3 34l24 135q14 74 68 118.5t134 44.5q40 0 70.5 -12t57.5 -41q4 -4 8 -4q2 0 7 3l28 18.5t30 17.5t35.5 13t44.5 5q33 0 60 -10.5
t46.5 -29.5t30.5 -44t11 -53v-12.5t-2 -13.5z" />
    <glyph glyph-name="ogonek" unicode="&#x2db;" horiz-adv-x="500" 
d="M245 -232q-1 -10 -11 -10q-17 0 -32.5 8.5t-27.5 22.5t-19 33t-7 40q0 5 0.5 10.5t1.5 10.5l23 120h45l-24 -127q-1 -5 -1.5 -8.5t-0.5 -8.5q0 -30 19 -44q17 -12 27 -16t10 -12v-2z" />
    <glyph glyph-name="ograve" unicode="&#xf2;" horiz-adv-x="458" 
d="M295 512q1 -2 1 -6q0 -10 -10 -10h-2l-27 2l-99 105q-3 3 -3 7q0 10 13 10h68l7 -4zM330 289q1 5 1.5 9t0.5 9q0 38 -26 63t-68 25q-21 0 -41.5 -8.5t-37 -23t-27.5 -33.5t-15 -41l-24 -135q-1 -5 -1.5 -9t-0.5 -9q0 -38 25 -63.5t64 -25.5q23 0 44 8.5t38 23t28.5 34
t15.5 41.5zM374 154q-13 -74 -68 -119t-136 -45q-70 0 -108.5 35t-38.5 95q0 16 3 34l24 135q14 75 68 119t134 44q71 0 110 -35t39 -95q0 -17 -3 -33z" />
    <glyph glyph-name="one" unicode="1" 
d="M378 10q-1 -10 -12 -10h-297q-8 0 -8 7v3l6 37q3 10 12 10h105q11 0 12 10l74 423v3q0 8 -6 8q-5 0 -9 -4l-78 -66q-6 -4 -8 -4t-6 4l-20 28q-2 2 -2 7q0 4 4 7l180 153l8 3h19q8 0 8 -7v-3l-97 -552v-3q0 -7 8 -7h105q8 0 8 -7v-3z" />
    <glyph glyph-name="ordfeminine" unicode="&#xaa;" horiz-adv-x="332" 
d="M264 515q1 4 1 12q0 24 -16.5 40.5t-42.5 16.5q-30 0 -53 -20t-28 -49l-14 -80q-1 -3 -1 -6.5v-6.5q0 -25 16.5 -41t43.5 -16q28 0 51.5 21t28.5 49zM289 327q-3 -12 -14 -12h-26q-11 0 -11 7q0 2 0.5 2.5t0.5 2.5l5 30l-4 1q-42 -43 -88 -43q-45 0 -72.5 26.5
t-27.5 70.5q0 5 0.5 11t1.5 12l14 80q4 25 17 47t31 38t41 25t48 9q26 0 44 -9.5t32 -32.5l5 1l5 29q1 12 14 12h26q11 0 11 -7q0 -2 -0.5 -2.5t-0.5 -2.5z" />
    <glyph glyph-name="ordmasculine" unicode="&#xba;" horiz-adv-x="321" 
d="M265 521q1 4 1 12q0 24 -16.5 40.5t-42.5 16.5q-30 0 -53 -20t-28 -49l-17 -94q-1 -4 -1 -12q0 -25 16 -41.5t42 -16.5q30 0 53.5 20.5t28.5 49.5zM306 427q-10 -54 -50 -87t-99 -33q-51 0 -79 25t-28 70v12t2 13l17 94q10 54 49 86.5t98 32.5q51 0 80 -25.5t29 -69.5
v-11.5t-2 -12.5z" />
    <glyph glyph-name="oslash" unicode="&#xf8;" horiz-adv-x="458" 
d="M275 377q2 3 2 7q0 11 -35 11q-23 0 -44 -8.5t-37.5 -22.5t-28 -33.5t-15.5 -41.5l-24 -135q-1 -5 -1 -25q0 -13 3.5 -20t7.5 -7q5 0 10 8zM330 289q1 3 1 15q0 24 -5 36.5t-11 12.5q-5 0 -10 -8l-166 -276q-2 -4 -2 -6q0 -4 6 -7q19 -9 37 -9q22 0 43.5 8.5t38.5 23
t28.5 34t15.5 41.5zM374 154q-13 -74 -68 -119t-136 -45q-70 0 -108.5 35t-38.5 95q0 16 3 34l24 135q14 75 68 119t134 44q71 0 110 -35t39 -95q0 -17 -3 -33z" />
    <glyph glyph-name="otilde" unicode="&#xf5;" horiz-adv-x="458" 
d="M330 289q1 5 1.5 9t0.5 9q0 38 -26 63t-68 25q-21 0 -41.5 -8.5t-37 -23t-27.5 -33.5t-15 -41l-24 -135q-1 -5 -1.5 -9t-0.5 -9q0 -38 25 -63.5t64 -25.5q23 0 44 8.5t38 23t28.5 34t15.5 41.5zM374 154q-13 -74 -68 -119t-136 -45q-70 0 -108.5 35t-38.5 95q0 16 3 34
l24 135q14 75 68 119t134 44q71 0 110 -35t39 -95q0 -17 -3 -33zM411 579q3 -3 3 -7q0 -2 -2 -6q-21 -30 -45 -45t-45 -15q-28 0 -57 26l-18 13q-20 15 -39 15q-12 0 -22.5 -4.5t-18.5 -10l-14 -10t-9 -4.5q-2 0 -6 2l-9 7q-3 3 -3 6t2 7q45 59 91 59q27 0 53 -23l18 -16
q17 -15 41 -15q13 0 24 4.5t19 10.5t13.5 10.5t8.5 4.5q5 0 7 -2z" />
    <glyph glyph-name="p" unicode="p" horiz-adv-x="474" 
d="M344 279q1 5 1.5 9t0.5 9q0 38 -26 63t-68 25q-21 0 -41.5 -8.5t-37 -23t-27.5 -33.5t-15 -41l-20 -115q-1 -5 -1.5 -9t-0.5 -9q0 -38 25.5 -63.5t67.5 -25.5q21 0 41.5 8.5t37 23.5t28 34.5t15.5 40.5zM392 164q-5 -32 -22.5 -62t-46.5 -56q-50 -46 -114 -46
q-20 0 -33.5 4t-21.5 9q-21 16 -33 32t-21 16q-7 0 -9 -11l-47 -265q-1 -10 -12 -10h-48q-8 0 -8 7v3l114 647q1 10 12 10h37q8 0 8 -7v-3l-7 -40v-3q0 -8 7 -8q5 0 16.5 10.5t33.5 26.5q33 24 78 24q63 0 101.5 -36t38.5 -96q0 -15 -3 -31z" />
    <glyph glyph-name="paragraph" unicode="&#xb6;" horiz-adv-x="620" 
d="M444 -215q-1 -10 -12 -10h-47q-8 0 -8 7v3l137 777v3q0 7 -8 7h-100q-11 0 -12 -10l-137 -777q-1 -10 -12 -10h-48q-8 0 -8 7v3l53 299v3q0 7 -8 7h-34q-69 0 -108.5 35t-39.5 89q0 40 7 75.5l13 68.5l12 70.5t17 66.5q21 60 72.5 95t120.5 35h289q8 0 8 -7v-3z" />
    <glyph glyph-name="parenleft" unicode="(" horiz-adv-x="354" 
d="M321 683q-1 -5 -3 -6.5t-6 -3.5l-41.5 -18.5t-27.5 -18.5q-14 -16 -23 -32t-12 -34l-104 -593q-1 -5 -1.5 -10.5t-0.5 -10.5q0 -31 17.5 -52.5t51.5 -30.5q6 -5 6 -10l-7 -39q-3 -10 -13 -10q-24 0 -46 10t-39 28.5t-27 44t-10 57.5q0 16 3 34l101 572q5 29 20.5 59.5
t39.5 56.5q52 56 120 56q9 0 9 -7v-3z" />
    <glyph glyph-name="parenright" unicode=")" horiz-adv-x="354" 
d="M199 -12q-8 -43 -28.5 -77.5t-51.5 -55.5q-59 -41 -100 -41q-10 0 -10 7v3l7 39q1 5 3.5 6.5t6.5 3.5q21 9 38 17.5t30.5 20t22.5 27.5t13 39l104 593q1 5 1.5 9t0.5 9q0 24 -10 43t-26 28q-17 10 -28.5 12t-11.5 10v2l7 39q2 7 4.5 8.5t9.5 1.5q24 0 53.5 -16t46.5 -41
q22 -32 22 -78q0 -18 -3 -37z" />
    <glyph glyph-name="percent" unicode="%" horiz-adv-x="490" 
d="M374 185q0 2 0.5 3t0.5 3q0 14 -10 24t-24 10q-17 0 -30.5 -12t-16.5 -28l-18 -100q0 -2 -0.5 -3.5t-0.5 -3.5q0 -14 9.5 -23.5t24.5 -9.5q17 0 30.5 12t16.5 28zM212 545q0 2 0.5 3t0.5 3q0 14 -10 24t-24 10q-17 0 -30.5 -12t-16.5 -28l-18 -100q0 -2 -0.5 -3.5
t-0.5 -3.5q0 -14 9.5 -23.5t24.5 -9.5q17 0 30.5 12t16.5 28zM406 85q-7 -38 -35 -61.5t-70 -23.5q-36 0 -56.5 18t-20.5 49q0 5 0.5 9t1.5 9l18 100q7 38 35 61.5t70 23.5q36 0 56.5 -18.5t20.5 -49.5q0 -4 -0.5 -8t-1.5 -9zM80 6q-5 -6 -10 -6h-24q-10 0 -10 6q0 3 3 8
l369 610q4 6 10 6h24q9 0 9 -7q0 -4 -2 -7zM244 445q-7 -38 -35 -61.5t-70 -23.5q-36 0 -56.5 18t-20.5 50q0 4 0.5 8t1.5 9l18 100q7 38 35 61.5t70 23.5q36 0 56.5 -18t20.5 -50q0 -4 -0.5 -8t-1.5 -9z" />
    <glyph glyph-name="period" unicode="." horiz-adv-x="209" 
d="M104 42q0 -23 -17.5 -40t-42.5 -17q-17 0 -28.5 11.5t-11.5 29.5q0 23 18 40t40 17q19 0 30.5 -11t11.5 -30z" />
    <glyph glyph-name="periodcentered" unicode="&#xb7;" horiz-adv-x="209" 
d="M154 323q0 -22 -18.5 -39.5t-41.5 -17.5q-17 0 -28.5 12t-11.5 30q0 23 17 40t40 17q20 0 31.5 -11.5t11.5 -30.5z" />
    <glyph glyph-name="periodcentered" unicode="&#x2219;" horiz-adv-x="209" 
d="M154 323q0 -22 -18.5 -39.5t-41.5 -17.5q-17 0 -28.5 12t-11.5 30q0 23 17 40t40 17q20 0 31.5 -11.5t11.5 -30.5z" />
    <glyph glyph-name="perthousand" unicode="&#x2030;" horiz-adv-x="722" 
d="M374 185q0 2 0.5 3t0.5 3q0 14 -10 24t-24 10q-17 0 -30.5 -12t-16.5 -28l-18 -100q0 -2 -0.5 -3.5t-0.5 -3.5q0 -14 9.5 -23.5t24.5 -9.5q17 0 30.5 12t16.5 28zM212 545q0 2 0.5 3t0.5 3q0 14 -10 24t-24 10q-17 0 -30.5 -12t-16.5 -28l-18 -100q0 -2 -0.5 -3.5
t-0.5 -3.5q0 -14 9.5 -23.5t24.5 -9.5q17 0 30.5 12t16.5 28zM606 185q0 2 0.5 3t0.5 3q0 14 -10 24t-24 10q-17 0 -30.5 -12t-16.5 -28l-18 -100q0 -2 -0.5 -3.5t-0.5 -3.5q0 -14 9.5 -23.5t24.5 -9.5q17 0 30.5 12t16.5 28zM406 85q-7 -38 -35 -61.5t-70 -23.5
q-36 0 -56.5 18t-20.5 49q0 5 0.5 9t1.5 9l18 100q7 38 35 61.5t70 23.5q36 0 56.5 -18.5t20.5 -49.5q0 -4 -0.5 -8t-1.5 -9zM80 6q-5 -6 -10 -6h-24q-10 0 -10 6q0 3 3 8l369 610q4 6 10 6h24q9 0 9 -7q0 -4 -2 -7zM244 445q-7 -38 -35 -61.5t-70 -23.5q-36 0 -56.5 18
t-20.5 50q0 4 0.5 8t1.5 9l18 100q7 38 35 61.5t70 23.5q36 0 56.5 -18t20.5 -50q0 -4 -0.5 -8t-1.5 -9zM638 85q-7 -38 -35 -61.5t-70 -23.5q-36 0 -56.5 18t-20.5 49q0 5 0.5 9t1.5 9l18 100q7 38 35 61.5t70 23.5q36 0 56.5 -18t20.5 -50q0 -4 -0.5 -8t-1.5 -9z" />
    <glyph glyph-name="plus" unicode="+" 
d="M448 223q-1 -10 -11 -10h-167q-11 0 -12 -10l-30 -167q-1 -10 -11 -10h-26q-9 0 -9 8v2l30 167v2q0 8 -8 8h-168q-9 0 -9 8v2l5 27q1 10 12 10h168q10 0 12 10l29 167q1 10 12 10h26q8 0 8 -7v-3l-29 -167v-3q0 -7 8 -7h167q8 0 8 -8v-2z" />
    <glyph glyph-name="plusminus" unicode="&#xb1;" horiz-adv-x="833" 
d="M709 25h-585v48h585v-48zM441 401h268v-48h-268v-170h-48v170h-269v48h269v170h48v-170z" />
    <glyph glyph-name="q" unicode="q" horiz-adv-x="474" 
d="M328 279q1 5 1.5 9t0.5 9q0 38 -26 63t-68 25q-21 0 -41.5 -8.5t-37 -23t-27.5 -33.5t-15 -41l-20 -115q-1 -5 -1.5 -9t-0.5 -9q0 -38 25.5 -63.5t67.5 -25.5q21 0 41.5 8.5t37 23.5t28 34.5t15.5 40.5zM309 -215q-1 -10 -12 -10h-48q-8 0 -8 7v3l47 267v3q0 8 -6 8
q-7 0 -23.5 -15t-48.5 -36q-7 -5 -21.5 -8.5t-33.5 -3.5q-28 0 -51.5 9.5t-41 27t-27.5 42t-10 53.5q0 15 3 32l20 115q6 36 24 65.5t44 51.5t58 34t67 12q38 0 53 -12q23 -17 35.5 -34t20.5 -17q7 0 9 11l7 42q1 10 12 10h37q8 0 8 -7v-3z" />
    <glyph glyph-name="question" unicode="?" 
d="M223 42q0 -23 -17 -40t-40 -17q-19 0 -31 11.5t-12 29.5q0 22 18 39.5t41 17.5q19 0 30 -11t11 -30zM323 640q69 0 108.5 -35t39.5 -92q0 -63 -25.5 -105t-79.5 -72q-17 -9 -37 -17t-42 -20q-26 -14 -41.5 -32.5t-23.5 -48.5q-2 -17 -3.5 -24t-10.5 -7h-48q-8 0 -8 6v3
q2 36 11 61t25 43.5t39.5 32.5t53.5 28q29 13 52 26.5t38.5 29t23.5 35t8 46.5q0 35 -26 59.5t-64 24.5h-40q-18 0 -38 -7t-36 -20q-17 -14 -25.5 -23.5t-13.5 -9.5q-4 0 -5 1l-38 22q-4 1 -4 7q0 8 16 26t51 39q17 11 43.5 17t59.5 6h40z" />
    <glyph glyph-name="questiondown" unicode="&#xbf;" 
d="M357 -102q4 -3 4 -7q0 -7 -12.5 -21.5t-39.5 -34.5q-47 -33 -118 -33h-39q-69 0 -108.5 35.5t-39.5 92.5q0 41 9.5 70.5t28.5 52t46.5 40t63.5 34.5q51 23 77 47.5t26 69.5q2 11 12 11h47q8 0 8 -9q0 -54 -24.5 -90t-75.5 -61l-57.5 -27.5t-47.5 -28.5t-32 -38t-12 -56
q0 -37 25 -61t64 -24h39q17 0 36 7t33 18q20 17 29.5 27t14.5 10q2 0 6 -2zM351 415q0 -22 -18 -39t-41 -17q-17 0 -28.5 12t-11.5 30q0 23 17.5 39.5t40.5 16.5q18 0 29.5 -11.5t11.5 -30.5z" />
    <glyph glyph-name="quotedbl" unicode="&#x22;" horiz-adv-x="282" 
d="M123 472q-3 -9 -11 -9h-15q-9 0 -9 9l6 151q0 11 12 11h55q9 0 9 -7q0 -1 -0.5 -2t-0.5 -2zM248 472q-3 -9 -11 -9h-14q-9 0 -9 9l6 151q0 11 12 11h54q9 0 9 -7q0 -1 -0.5 -2t-0.5 -2z" />
    <glyph glyph-name="quotedblbase" unicode="&#x201e;" horiz-adv-x="293" 
d="M74 93q9 0 9 -10q0 -1 -1.5 -11t-4.5 -25.5t-7.5 -33.5t-10.5 -36q-9 -24 -21.5 -42t-25 -30.5t-23.5 -18.5t-17 -6q-4 0 -6 4l-6 15q-1 2 -1 4q0 4 6 9q54 51 54 97q0 10 -9 10h-12q-8 0 -8 7v3l10 54q1 10 11 10h63zM203 93q9 0 9 -10q0 -2 -1.5 -12t-4.5 -25
t-7.5 -33.5t-10.5 -35.5q-9 -23 -20.5 -41t-23.5 -30.5t-23.5 -19t-18.5 -6.5q-4 0 -6 5l-7 14q-1 2 -1 5q0 4 4 8q56 50 56 97q0 10 -9 10h-12q-8 0 -8 7v3l10 54q1 10 11 10h63z" />
    <glyph glyph-name="quotedblleft" unicode="&#x201c;" horiz-adv-x="293" 
d="M189 654q0 -1 0.5 -1.5t0.5 -1.5q0 -3 -2 -5l-4 -4q-25 -25 -39.5 -48t-14.5 -53q0 -8 8 -8h12q8 0 8 -8v-2l-9 -54q-3 -10 -12 -10h-63q-9 0 -9 6q0 1 0.5 1.5t0.5 2.5q10 79 33 128t73 76q2 1 6 1q6 0 7 -5zM317 654q1 -2 1 -5q0 -4 -6 -8q-26 -25 -40 -48.5t-14 -50.5
q0 -9 8 -9h12q8 0 8 -8v-2l-9 -54q-3 -10 -12 -10h-62q-8 0 -8 7q0 13 5.5 45t17.5 65q9 24 21 42t24.5 30.5t23.5 19t18 6.5q5 0 7 -5z" />
    <glyph glyph-name="quotedblright" unicode="&#x201d;" horiz-adv-x="293" 
d="M170 634q8 0 8 -8q0 -4 -1.5 -15.5t-4 -26.5t-7 -32.5t-10.5 -32.5q-9 -24 -21.5 -42t-25 -30t-23.5 -18t-17 -6t-7 5l-5 14q-1 1 -1 3q0 5 6 10q53 50 53 97q0 8 -8 8h-12q-9 0 -9 8v2l10 54q1 10 12 10h63zM299 634q8 0 8 -7q0 -2 -3.5 -26.5t-12.5 -59.5
q-7 -27 -19.5 -49t-26 -37.5t-26 -23.5t-20.5 -8q-4 0 -8 5l-6 14q-1 2 -1 3q0 5 5 10q54 49 54 95q0 10 -8 10h-12q-9 0 -9 8v2l10 54q1 10 12 10h63z" />
    <glyph glyph-name="quoteleft" unicode="&#x2018;" horiz-adv-x="164" 
d="M189 654q0 -1 0.5 -1.5t0.5 -1.5q0 -3 -2 -5l-4 -4q-25 -25 -39.5 -48t-14.5 -53q0 -8 8 -8h12q8 0 8 -8v-2l-9 -54q-3 -10 -12 -10h-63q-9 0 -9 6q0 1 0.5 1.5t0.5 2.5q10 79 33 128t73 76q4 2 6 2q5 0 7 -6z" />
    <glyph glyph-name="quoteright" unicode="&#x2019;" horiz-adv-x="164" 
d="M170 634q8 0 8 -8q0 -4 -1.5 -15.5t-4 -26.5t-7 -32.5t-10.5 -32.5q-9 -24 -21.5 -42t-25 -30.5t-23.5 -18.5t-17 -6t-7 6l-5 14q-1 1 -1 3q0 5 6 10q53 50 53 97q0 8 -8 8h-12q-9 0 -9 8v2l10 54q1 10 12 10h63z" />
    <glyph glyph-name="quotesinglbase" unicode="&#x201a;" horiz-adv-x="164" 
d="M74 93q9 0 9 -10q0 -1 -1.5 -11t-4.5 -25.5t-7.5 -33.5t-10.5 -36q-9 -24 -21.5 -42.5t-25 -30.5t-23.5 -18.5t-17 -6.5q-4 0 -6 5l-6 15q-1 2 -1 4q0 4 6 9q54 51 54 97q0 10 -9 10h-12q-8 0 -8 7v3l10 54q1 10 11 10h63z" />
    <glyph glyph-name="quotesingle" unicode="'" horiz-adv-x="157" 
d="M123 472q-3 -9 -11 -9h-15q-9 0 -9 9l6 151q0 11 12 11h55q9 0 9 -7q0 -1 -0.5 -2t-0.5 -2z" />
    <glyph glyph-name="r" unicode="r" horiz-adv-x="298" 
d="M302 381q-1 -10 -11 -10q-6 0 -15.5 1.5t-21.5 1.5q-23 0 -44 -8t-38 -22.5t-28 -33.5t-15 -41l-45 -259q-1 -10 -12 -10h-48q-8 0 -8 7v3l74 422q1 10 12 10h37q8 0 8 -7v-3l-9 -50v-3q0 -8 7 -8q6 0 22.5 15.5t49.5 38.5q11 8 24.5 12.5t24.5 4.5h37q8 0 8 -7v-3z" />
    <glyph glyph-name="registered" unicode="&#xae;" horiz-adv-x="420" 
d="M281 491q0 29 -25 29h-32q-11 0 -12 -10l-8 -47v-3q0 -7 8 -7h32q26 0 37 32v6zM312 481q-3 -12 -9.5 -20.5t-13 -14.5l-11.5 -10.5t-5 -9.5v-2l16 -50q1 -2 1 -4q0 -10 -13 -10h-16q-6 0 -7 6l-14 53q-2 6 -8 6h-25q-11 0 -12 -10l-8 -45q-1 -10 -12 -10h-11q-8 0 -8 7
v3l30 168q1 10 12 10h63q25 0 39.5 -14t14.5 -35q0 -4 -2 -14zM386 460q1 7 1.5 13.5t0.5 12.5q0 53 -33.5 83.5t-93.5 30.5h-4q-35 0 -65 -10.5t-53 -29t-38 -44t-19 -56.5l-3 -20q-1 -7 -1.5 -13.5t-0.5 -13.5q0 -53 33.5 -83t93.5 -30h4q35 0 65 10.5t53 29t37.5 44
t19.5 56.5zM413 440q-6 -38 -23.5 -69t-45 -53.5t-63.5 -35t-78 -12.5h-4q-72 0 -112.5 37t-40.5 101q0 15 3 32l3 20q6 37 23.5 68.5t45 54t63.5 35t78 12.5h4q72 0 112.5 -37t40.5 -101q0 -16 -3 -32z" />
    <glyph glyph-name="ring" unicode="&#x2da;" horiz-adv-x="500" 
d="M342 609q0 31 -36 31q-21 0 -34.5 -10.5t-15.5 -27.5l-4 -30v-7q0 -31 35 -31q20 0 34.5 11.5t16.5 28.5l4 29v6zM375 572q-6 -34 -31 -55t-62 -21q-32 0 -50.5 17.5t-18.5 45.5q0 10 1 15l5 29q6 35 30.5 55t62.5 20q32 0 50.5 -16.5t18.5 -44.5q0 -10 -1 -15z" />
    <glyph glyph-name="s" unicode="s" horiz-adv-x="438" 
d="M254 452q31 0 56.5 -7.5t43.5 -19.5t27.5 -27t9.5 -30q0 -4 -8 -8l-41 -19q-2 -1 -4 -1q-4 0 -7 5q-18 23 -35.5 38.5t-51.5 15.5h-31q-48 0 -74.5 -21.5t-26.5 -55.5q0 -17 8 -28t24 -18.5t39.5 -13.5t55.5 -13q61 -14 90.5 -33.5t29.5 -61.5q0 -33 -14 -63t-38.5 -52.5
t-59 -35.5t-75.5 -13h-31q-32 0 -57.5 8t-43.5 20.5t-28 27.5t-10 29q0 4 9 9l42 19q2 1 5 1q2 0 7 -5q17 -24 34 -40t52 -16h31q22 0 41.5 7t33.5 18.5t22 26.5t8 31t-8 27t-24 18.5t-40.5 13.5t-56.5 13q-59 13 -87.5 31.5t-28.5 59.5q0 34 13.5 63.5t38 51.5t57.5 35
t72 13h31z" />
    <glyph glyph-name="section" unicode="&#xa7;" 
d="M308 92q1 -1 5 -1q6 0 13.5 6.5t13.5 17.5t10.5 25.5t4.5 29.5q0 32 -19 54t-57 45q-47 28 -74.5 41t-29.5 13q-5 0 -12 -6.5t-13.5 -18t-11.5 -26.5t-5 -32q0 -23 11.5 -40t33.5 -33t55 -33.5zM415 528q-1 0 -1.5 -0.5t-1.5 -0.5q-2 0 -5 3q-36 57 -88 57h-17
q-26 0 -49.5 -10t-41.5 -26.5t-28.5 -38.5t-10.5 -46q0 -18 6.5 -31t19 -24t30.5 -20.5l42 -21.5q36 -18 63.5 -35t47 -36.5t29.5 -44t10 -57.5t-7.5 -60t-17.5 -41q-15 -21 -24.5 -33t-9.5 -18q0 -10 10 -30.5t10 -51.5q0 -24 -7.5 -50.5t-22.5 -52.5q-25 -42 -72.5 -67.5
t-105.5 -25.5h-44q-53 0 -85.5 18.5t-52.5 62.5q0 1 -0.5 1.5t-0.5 1.5q0 5 8 8l45 21q2 1 4 1t5 -4l17 -22.5t18 -18.5t22 -12.5t30 -4.5h45q25 0 48.5 10.5t41.5 27.5t29 40t11 49q0 33 -20 53.5t-58 40.5q-39 20 -70 37.5t-52.5 36.5t-33.5 43t-12 57q0 35 7.5 62
t19.5 44q14 20 23.5 31.5t9.5 17.5q0 3 -2 5q-20 38 -20 72q0 40 15.5 75.5t42.5 62t65 42t83 15.5h17q33 0 59 -9t43.5 -21.5t27 -27t9.5 -26.5q0 -4 -7 -7z" />
    <glyph glyph-name="semicolon" unicode=";" horiz-adv-x="209" 
d="M103 91q8 0 8 -8q0 -2 -3.5 -27.5t-14.5 -63.5q-8 -29 -22 -52t-30 -40t-31 -26t-24 -9q-5 0 -7 5l-7 16q-1 2 -1 6t8.5 12.5t23.5 25.5q14 16 22 35.5t8 38.5q0 8 -8 8h-14q-8 0 -8 7v3l10 59q3 10 12 10h78zM153 322q0 -23 -17.5 -40t-41.5 -17q-17 0 -28.5 11.5
t-11.5 29.5q0 23 17.5 40.5t39.5 17.5q20 0 31 -11.5t11 -30.5z" />
    <glyph glyph-name="semicolon" unicode="&#x37e;" horiz-adv-x="209" 
d="M103 91q8 0 8 -8q0 -2 -3.5 -27.5t-14.5 -63.5q-8 -29 -22 -52t-30 -40t-31 -26t-24 -9q-5 0 -7 5l-7 16q-1 2 -1 6t8.5 12.5t23.5 25.5q14 16 22 35.5t8 38.5q0 8 -8 8h-14q-8 0 -8 7v3l10 59q3 10 12 10h78zM153 322q0 -23 -17.5 -40t-41.5 -17q-17 0 -28.5 11.5
t-11.5 29.5q0 23 17.5 40.5t39.5 17.5q20 0 31 -11.5t11 -30.5z" />
    <glyph glyph-name="seven" unicode="7" 
d="M476 522q-8 -48 -33.5 -90.5t-63.5 -72.5q-28 -23 -60.5 -41.5t-66.5 -40.5q-45 -29 -70 -58t-31 -65l-25 -144q-1 -10 -12 -10h-48q-8 0 -8 7v3l25 144q8 42 28.5 78.5t51.5 62.5q24 21 55 39.5l66 40.5q55 34 85.5 68t38.5 79l7 40v3q0 7 -8 7h-261q-8 0 -8 7v3l6 37
q1 10 12 10h329q8 0 8 -7v-3z" />
    <glyph glyph-name="six" unicode="6" 
d="M355 196q1 5 1.5 9.5t0.5 9.5q0 36 -25.5 61.5t-65.5 25.5h-30q-22 0 -42.5 -8t-37 -22t-28.5 -33.5t-16 -42.5l-8 -42q-1 -5 -1.5 -9.5t-0.5 -9.5q0 -37 25 -62.5t64 -25.5h30q22 0 42.5 8.5t37.5 22.5t29 33.5t17 42.5zM326 640q33 0 59 -9t44 -22t27.5 -28t9.5 -28
q0 -4 -8 -8l-46 -21q-2 -1 -5 -1t-6 5l-15.5 20.5t-17 17t-22 12t-30.5 4.5h-30q-23 0 -43.5 -8t-37.5 -22t-28.5 -33.5t-15.5 -42.5l-30 -167v-3q0 -8 6 -8q5 0 19.5 12.5t43.5 32.5q9 7 24.5 11.5t32.5 4.5h30q63 0 101 -37t38 -95q0 -15 -3 -31l-8 -42q-7 -37 -24.5 -67
t-44.5 -51.5t-61 -33.5t-74 -12h-30q-70 0 -108.5 35t-38.5 95q0 16 3 34l57 322q6 37 23.5 67t44 51.5t60.5 33.5t74 12h30z" />
    <glyph glyph-name="slash" unicode="/" horiz-adv-x="305" 
d="M-8 6q-5 -6 -10 -6h-34q-9 0 -9 6q0 5 2 8l369 610q4 4 10 6h34q9 0 9 -7q0 -4 -2 -7z" />
    <glyph glyph-name="Aacute" unicode="&#xc1;" horiz-adv-x="448" 
d="M265 478q-2 14 -2.5 24t-1.5 15h-4q-8 -17 -12 -26.5t-6 -12.5l-116 -257q-2 -4 -2 -6q0 -7 10 -7h144q12 0 12 11v2zM383 10q0 -10 -12 -10h-51q-8 0 -9 7l-14 138q0 6 -9 6h-188q-9 0 -11 -6l-64 -138q-3 -7 -11 -7h-51q-10 0 -10 6q0 1 2 7l293 609q3 7 11 7h38
q8 0 9 -7l77 -609v-3zM284 686l-26 -2q-10 0 -10 6q0 3 5 10l88 104l9 4h68q10 0 10 -7q0 -6 -6 -10z" />
    <glyph glyph-name="sterling" unicode="&#xa3;" 
d="M169 466q6 33 24 64.5t48 58.5q27 25 61.5 38t71.5 13q33 0 59 -8.5t44 -21.5t27 -28.5t9 -28.5q0 -4 -8 -8l-46 -21q-4 -2 -5 -2t-6 5l-17 21t-17 17.5t-21 12t-29 4.5q-23 0 -44 -8t-37.5 -22.5t-28 -34t-15.5 -41.5l-21 -118v-3q0 -7 8 -7h73q9 0 9 -8v-2l-7 -37
q-1 -10 -12 -10h-73q-10 0 -11 -10l-23 -127q-5 -29 -47 -82q-4 -4 -4 -9q0 -6 10 -6h248q8 0 8 -7v-3l-6 -37q-1 -10 -12 -10h-422q-8 0 -8 7v3l6 37q2 10 12 10l37 1q98 27 112 106l21 117v2q0 8 -9 8h-27q-8 0 -8 7v3l7 37q1 10 11 10h27q11 0 12 10z" />
    <glyph glyph-name="t" unicode="t" horiz-adv-x="308" 
d="M266 395q-3 -10 -12 -10h-73q-11 0 -12 -10l-39 -221q-2 -7 -2 -13v-11q0 -17 5 -28t14 -20t22 -16t28 -16q6 -3 6 -7v-3l-7 -39q-1 -10 -13 -10q-25 0 -47.5 9.5t-39.5 26.5t-27 41.5t-10 54.5q0 14 3 31l39 221v3q0 7 -8 7h-58q-9 0 -9 6q0 1 0.5 2t0.5 2l3 19l134 119
l8 3h16q8 0 8 -7v-3l-13 -74v-3q0 -7 8 -7h73q8 0 8 -7v-3z" />
    <glyph glyph-name="three" unicode="3" 
d="M452 450q-8 -40 -38 -73.5t-78 -49.5l-1 -4q35 -16 54.5 -45.5t19.5 -64.5q0 -5 -0.5 -10t-1.5 -10l-5 -31q-6 -39 -23.5 -71t-44.5 -54.5t-62 -34.5t-76 -12h-31q-33 0 -59 8t-43.5 21t-26.5 28t-9 30q0 6 7 9l46 21q2 1 5 1t6 -5l16.5 -22t17 -17.5t21.5 -12t29 -4.5
h31q22 0 43 8.5t38.5 23t29 34t15.5 41.5l6 36q1 5 1.5 9t0.5 9q0 38 -25.5 63t-64.5 25h-70q-8 0 -8 7v3l6 37q3 10 12 10h70q22 0 43 8t38 22.5t28.5 34.5t16.5 43l3 15q1 5 1.5 10t0.5 10q0 38 -25.5 62t-64.5 24h-31q-19 0 -39 -7t-35 -20q-17 -14 -25.5 -23.5
t-13.5 -9.5q-4 0 -5 1l-38 22q-4 1 -4 7q0 8 16 26t51 39q17 11 43.5 17t59.5 6h31q70 0 109 -36t39 -98q0 -21 -4 -40z" />
    <glyph glyph-name="tilde" unicode="&#x2dc;" horiz-adv-x="500" 
d="M432 579q3 -3 3 -7q0 -2 -2 -6q-21 -30 -45 -45t-45 -15q-28 0 -57 26l-18 13q-20 15 -39 15q-12 0 -22.5 -4.5t-18.5 -10l-14 -10t-9 -4.5q-2 0 -6 2l-9 7q-3 3 -3 6t2 7q45 59 91 59q27 0 53 -23l18 -16q17 -15 41 -15q13 0 24 4.5t19 10.5t13.5 10.5t8.5 4.5q5 0 7 -2
z" />
    <glyph glyph-name="trademark" unicode="&#x2122;" horiz-adv-x="388" 
d="M182 527q-1 -10 -12 -10h-27q-9 0 -12 -10l-24 -137q-1 -10 -12 -10h-12q-8 0 -8 7v3l24 137v3q0 7 -8 7h-27q-8 0 -8 7v3l2 11q1 10 12 10h106q8 0 8 -7v-3zM366 370q-1 -10 -12 -10h-12q-8 0 -8 7v3l13 72v3q0 9 -7 9q-5 0 -11 -7l-32 -41q-3 -2 -5.5 -3t-4.5 -2h-4
l-7 5l-20 41q-6 6 -11 6q-6 0 -8 -11l-13 -72q-1 -10 -12 -10h-12q-8 0 -8 7v3l30 168q1 10 12 10h12l8 -5l32 -81q3 -7 8 -7t10 7l62 81l10 5h12q8 0 8 -7v-3z" />
    <glyph glyph-name="two" unicode="2" 
d="M320 640q69 0 109 -35.5t40 -92.5q0 -69 -38.5 -121.5t-116.5 -96.5l-75.5 -42.5t-61 -40t-43 -45.5t-22.5 -58l-7 -41v-3q0 -7 8 -7h260q8 0 8 -7v-3l-6 -37q-1 -10 -12 -10h-328q-8 0 -8 7v3l17 98q8 45 32 85t60 69q30 24 67.5 46l82.5 47q58 32 86 65.5t28 77.5
q0 35 -26 59.5t-64 24.5h-40q-32 0 -55 -15.5t-48 -38.5q-5 -5 -8 -5t-5 1l-38 21q-5 3 -5 7q0 10 12.5 25t35 29t53.5 24t68 10h40z" />
    <glyph glyph-name="u" unicode="u" horiz-adv-x="479" 
d="M354 10q-1 -10 -12 -10h-37q-8 0 -8 7v3l7 43v3q0 8 -7 8q-5 0 -19.5 -12l-40.5 -32q-12 -9 -29.5 -14.5t-39.5 -5.5q-61 0 -99.5 36t-38.5 96q0 15 3 32l47 268q1 10 12 10h47q8 0 8 -7v-3l-47 -268q-1 -5 -1.5 -9.5t-0.5 -9.5q0 -38 25.5 -63t67.5 -25q21 0 41.5 8.5
t37.5 23t28.5 34t15.5 41.5l47 268q1 10 12 10h47q8 0 8 -7v-3z" />
    <glyph glyph-name="uacute" unicode="&#xfa;" horiz-adv-x="479" 
d="M354 10q-1 -10 -12 -10h-37q-8 0 -8 7v3l7 43v3q0 8 -7 8q-5 0 -19.5 -12l-40.5 -32q-12 -9 -29.5 -14.5t-39.5 -5.5q-61 0 -99.5 36t-38.5 96q0 15 3 32l47 268q1 10 12 10h47q8 0 8 -7v-3l-47 -268q-1 -5 -1.5 -9.5t-0.5 -9.5q0 -38 25.5 -63t67.5 -25q21 0 41.5 8.5
t37.5 23t28.5 34t15.5 41.5l47 268q1 10 12 10h47q8 0 8 -7v-3zM265 498l-26 -2q-10 0 -10 6q0 3 5 10l88 104l9 4h68q10 0 10 -7q0 -6 -6 -10z" />
    <glyph glyph-name="ucircumflex" unicode="&#xfb;" horiz-adv-x="479" 
d="M370 512q2 -6 2 -8q0 -8 -12 -8h-35l-8 4l-33 62q-3 5 -8 5q-3 0 -8 -5l-58 -62l-8 -4h-34q-11 0 -11 7q0 4 5 9l99 105l9 4h31l7 -4zM354 10q-1 -10 -12 -10h-37q-8 0 -8 7v3l7 43v3q0 8 -7 8q-5 0 -19.5 -12l-40.5 -32q-12 -9 -29.5 -14.5t-39.5 -5.5q-61 0 -99.5 36
t-38.5 96q0 15 3 32l47 268q1 10 12 10h47q8 0 8 -7v-3l-47 -268q-1 -5 -1.5 -9.5t-0.5 -9.5q0 -38 25.5 -63t67.5 -25q21 0 41.5 8.5t37.5 23t28.5 34t15.5 41.5l47 268q1 10 12 10h47q8 0 8 -7v-3z" />
    <glyph glyph-name="udieresis" unicode="&#xfc;" horiz-adv-x="479" 
d="M354 10q-1 -10 -12 -10h-37q-8 0 -8 7v3l7 43v3q0 8 -7 8q-5 0 -19.5 -12l-40.5 -32q-12 -9 -29.5 -14.5t-39.5 -5.5q-61 0 -99.5 36t-38.5 96q0 15 3 32l47 268q1 10 12 10h47q8 0 8 -7v-3l-47 -268q-1 -5 -1.5 -9.5t-0.5 -9.5q0 -38 25.5 -63t67.5 -25q21 0 41.5 8.5
t37.5 23t28.5 34t15.5 41.5l47 268q1 10 12 10h47q8 0 8 -7v-3zM235 562q0 -21 -15.5 -36t-36.5 -15q-16 0 -26.5 10t-10.5 27q0 21 15.5 36t36.5 15q37 0 37 -37zM398 562q0 -20 -16 -35.5t-37 -15.5q-16 0 -26 9.5t-10 26.5q0 22 15 37t36 15q17 0 27.5 -10t10.5 -27z" />
    <glyph glyph-name="ugrave" unicode="&#xf9;" horiz-adv-x="479" 
d="M297 512q1 -2 1 -6q0 -10 -10 -10h-2l-27 2l-99 105q-3 3 -3 7q0 10 13 10h68l7 -4zM354 10q-1 -10 -12 -10h-37q-8 0 -8 7v3l7 43v3q0 8 -7 8q-5 0 -19.5 -12l-40.5 -32q-12 -9 -29.5 -14.5t-39.5 -5.5q-61 0 -99.5 36t-38.5 96q0 15 3 32l47 268q1 10 12 10h47
q8 0 8 -7v-3l-47 -268q-1 -5 -1.5 -9.5t-0.5 -9.5q0 -38 25.5 -63t67.5 -25q21 0 41.5 8.5t37.5 23t28.5 34t15.5 41.5l47 268q1 10 12 10h47q8 0 8 -7v-3z" />
    <glyph glyph-name="underscore" unicode="_" horiz-adv-x="200" 
d="M120 -215q-1 -10 -12 -10h-210q-8 0 -8 7v3l5 25q1 10 11 10h210q9 0 9 -8v-2z" />
    <glyph glyph-name="v" unicode="v" horiz-adv-x="427" 
d="M187 6q-5 -5 -10 -6h-40q-6 1 -8 6l-97 422q0 14 12 14h48q3 0 8 -6l72 -342l195 342q4 6 10 6h49q9 0 9 -6q0 -4 -3 -8z" />
    <glyph glyph-name="w" unicode="w" horiz-adv-x="611" 
d="M406 7q-3 -7 -11 -7h-38q-8 0 -9 7l-40 337l-158 -337q-3 -7 -11 -7h-39q-8 0 -9 7l-52 422v3q0 10 12 10h50q9 0 9 -7l28 -332l150 332q3 7 11 7h56q9 0 9 -7l30 -332l147 332q3 7 11 7h50q10 0 10 -7q0 -2 -2 -6z" />
    <glyph glyph-name="x" unicode="x" horiz-adv-x="404" 
d="M234 228l-2 -10l96 -203q1 -2 1 -5q0 -10 -12 -10h-55l-8 5l-72 162q-2 5 -8 5q-4 0 -8 -5l-129 -162q-6 -4 -9 -5h-56q-9 0 -9 6q0 4 4 9l167 203q2 2 2 11l-95 198q-1 2 -1 5q0 10 12 10h54l7 -5l73 -161q3 -5 7 -5q5 0 10 5l128 161q6 4 9 5h54q9 0 9 -6q0 -4 -4 -9z
" />
    <glyph glyph-name="y" unicode="y" horiz-adv-x="479" 
d="M420 442q8 0 8 -9q0 -3 -4 -26l-12 -66l-71 -401q-14 -82 -68.5 -128.5t-136.5 -46.5q-32 0 -58 8t-44 20.5t-27.5 28.5t-9.5 31q0 5 7 8l46 21q2 1 5 1t6 -5q18 -25 35.5 -40.5t49.5 -15.5q23 0 44 8.5t38 22.5t28.5 33.5t15.5 42.5l21 119v2q0 9 -7 9q-5 0 -14.5 -10
t-28.5 -24q-17 -13 -36.5 -19t-40.5 -6q-30 0 -55 9.5t-43 26.5t-28 41.5t-10 54.5q0 15 3 32l47 268q1 10 12 10h47q8 0 8 -7v-3l-47 -268q-1 -5 -1.5 -9.5t-0.5 -9.5q0 -38 25.5 -63t67.5 -25q22 0 42.5 8.5t37 23t28 34t15.5 41.5l47 268q1 10 12 10h47z" />
    <glyph glyph-name="ydieresis" unicode="&#xff;" horiz-adv-x="479" 
d="M231 562q0 -21 -15.5 -36t-36.5 -15q-16 0 -26.5 10t-10.5 27q0 21 15.5 36t36.5 15q37 0 37 -37zM394 562q0 -20 -16 -35.5t-37 -15.5q-16 0 -26 9.5t-10 26.5q0 22 15 37t36 15q17 0 27.5 -10t10.5 -27zM420 442q8 0 8 -9q0 -3 -4 -26l-12 -66l-71 -401
q-14 -82 -68.5 -128.5t-136.5 -46.5q-32 0 -58 8t-44 20.5t-27.5 28.5t-9.5 31q0 5 7 8l46 21q2 1 5 1t6 -5q18 -25 35.5 -40.5t49.5 -15.5q23 0 44 8.5t38 22.5t28.5 33.5t15.5 42.5l21 119v2q0 9 -7 9q-5 0 -14.5 -10t-28.5 -24q-17 -13 -36.5 -19t-40.5 -6q-30 0 -55 9.5
t-43 26.5t-28 41.5t-10 54.5q0 15 3 32l47 268q1 10 12 10h47q8 0 8 -7v-3l-47 -268q-1 -5 -1.5 -9.5t-0.5 -9.5q0 -38 25.5 -63t67.5 -25q22 0 42.5 8.5t37 23t28 34t15.5 41.5l47 268q1 10 12 10h47z" />
    <glyph glyph-name="yen" unicode="&#xa5;" 
d="M313 332q-4 -6 -4 -9q0 -6 10 -6h136q8 0 8 -8v-2l-6 -37q-2 -10 -12 -10h-156q-11 0 -12 -10l-16 -90v-3q0 -7 8 -7h156q9 0 9 -8v-2l-7 -36q-1 -10 -11 -10h-156q-11 0 -12 -10l-13 -74q-1 -10 -12 -10h-48q-8 0 -8 7v3l13 74v2q0 8 -8 8h-157q-9 0 -9 8v2l7 36
q1 10 11 10h157q11 0 12 10l16 90v2q0 8 -8 8h-157q-9 0 -9 6q0 1 0.5 2t0.5 2l6 37q1 10 12 10h135q13 0 13 10q0 3 -1 5l-101 282q-1 2 -1 5q0 10 13 10h57l8 -6l78 -252q1 -7 8 -7q6 0 10 7l166 252q6 6 10 6h57q10 0 10 -6q0 -3 -4 -9z" />
    <glyph glyph-name="z" unicode="z" horiz-adv-x="427" 
d="M111 72q-4 -4 -4 -9q0 -6 10 -6h213q8 0 8 -7v-3l-6 -37q-1 -10 -12 -10h-328q-10 0 -10 6q0 5 4 9l273 354q4 6 4 9q0 6 -10 6h-192q-9 0 -9 8v2l7 37q1 10 12 10h309q10 0 10 -6q0 -3 -4 -9z" />
    <glyph glyph-name="zero" unicode="0" 
d="M405 476q1 5 1.5 10t0.5 10q0 38 -25.5 62t-64.5 24h-31q-23 0 -44 -8t-37.5 -22t-28 -33.5t-15.5 -42.5l-57 -322q-1 -5 -1.5 -10t-0.5 -10q0 -38 25 -62.5t64 -24.5h31q22 0 43 8.5t38 22.5t29 33.5t16 42.5zM416 154q-13 -74 -68 -119t-136 -45h-31q-70 0 -109 35.5
t-39 95.5q0 15 3 33l57 322q6 37 24 67t44.5 51.5t60.5 33.5t74 12h31q70 0 109.5 -35.5t39.5 -95.5q0 -17 -3 -33z" />
    <glyph glyph-name="A" unicode="A" horiz-adv-x="448" 
d="M265 478q-2 14 -2.5 24t-1.5 15h-4q-8 -17 -12 -26.5t-6 -12.5l-116 -257q-2 -4 -2 -6q0 -7 10 -7h144q12 0 12 11v2zM383 10q0 -10 -12 -10h-51q-8 0 -9 7l-14 138q0 6 -9 6h-188q-9 0 -11 -6l-64 -138q-3 -7 -11 -7h-51q-10 0 -10 6q0 1 2 7l293 609q3 7 11 7h38
q8 0 9 -7l77 -609v-3z" />
    <glyph glyph-name="AE" unicode="&#xc6;" horiz-adv-x="706" 
d="M341 517q-5 -8 -11 -16.5l-13 -18.5l-194 -259q-3 -5 -3 -8q0 -7 10 -7h148q10 0 11 10l12 66l20.5 111.5t23.5 120.5zM703 582q-3 -10 -12 -10h-261q-11 0 -12 -10l-36 -204v-3q0 -7 8 -7h214q9 0 9 -8v-2l-7 -37q-1 -10 -12 -10h-214q-10 0 -11 -10l-38 -214v-3
q0 -7 8 -7h261q8 0 8 -7v-3l-6 -37q-1 -10 -12 -10h-329q-8 0 -8 7v3l23 131v3q0 7 -8 7h-192l-11 -4l-104 -142q-6 -4 -10 -5h-46q-10 0 -10 6q0 3 4 9l467 609q4 3 10 5h325q8 0 8 -7v-3z" />
    <glyph glyph-name="Eth" unicode="&#xd0;" horiz-adv-x="526" 
d="M419 466q1 5 1.5 9t0.5 9q0 38 -25 63t-66 25h-127q-11 0 -12 -10l-36 -204v-3q0 -7 8 -7h89q9 0 9 -8v-2l-9 -47q-1 -10 -11 -10h-89q-11 0 -12 -10l-36 -204v-3q0 -7 8 -7h127q23 0 44 8t38 22.5t29 34t16 42.5zM435 175q-7 -40 -25 -72.5t-45 -55t-61.5 -35
t-74.5 -12.5h-194q-8 0 -8 7v3l46 261v3q0 7 -8 7h-35q-9 0 -9 8v2l9 47q1 10 11 10h35q11 0 12 10l46 261q1 10 12 10h194q70 0 108.5 -36t38.5 -99q0 -19 -3 -38z" />
    <glyph glyph-name="Lslash" unicode="&#x141;" horiz-adv-x="453" 
d="M375 10q-1 -10 -12 -10h-328q-8 0 -8 7v3l42 238v2q0 9 -7 9q-5 0 -9 -4l-38 -31q-3 -3 -7 -3q-3 0 -7 3l-10 11q-2 2 -2 6t5 8l84 70l4 7l52 293q1 10 12 10h47q8 0 8 -7v-3l-36 -205v-3q0 -8 6 -8t10 4l37 31q6 4 8 4t6 -4l8 -11q2 -2 2 -6q0 -5 -4 -8l-83 -70l-4 -7
l-47 -269v-3q0 -7 8 -7h261q8 0 8 -7v-3z" />
    <glyph glyph-name="Scaron" unicode="&#x160;" horiz-adv-x="438" 
d="M291 640q34 0 60 -8.5t44 -21.5t27 -28.5t9 -28.5q0 -4 -8 -8l-46 -21q-2 -1 -5 -1q-2 0 -6 4l-17 21t-17.5 17.5t-21.5 12t-29 4.5h-16q-25 0 -47.5 -9.5t-40 -26t-28 -38t-10.5 -45.5q0 -53 79 -93q38 -19 68.5 -36t52.5 -37t33.5 -44.5t11.5 -58.5q0 -44 -15 -81.5
t-42.5 -64.5t-66 -42.5t-84.5 -15.5h-43q-33 0 -58.5 8t-43.5 20.5t-27.5 28t-9.5 30.5q0 4 7 8l46 22q2 1 5 1q2 0 7 -5l17 -21.5t17 -18t21 -12t29 -4.5h43q25 0 48 9.5t41 26t28.5 38t10.5 45.5t-7.5 41t-22 30.5t-35 25l-47.5 25.5q-31 16 -55.5 31t-42 32t-26.5 37.5
t-9 47.5q0 44 15 81.5t42.5 64.5t65.5 42.5t83 15.5h16zM314 688l-8 -4h-31l-8 4l-61 105q-2 4 -2 6q0 10 13 10h35l7 -4l35 -60q3 -5 7 -5t9 5l54 60l9 4h36q10 0 10 -7q0 -4 -5 -9z" />
    <glyph glyph-name="Thorn" unicode="&#xde;" horiz-adv-x="484" 
d="M403 372q1 5 1.5 10t0.5 10q0 37 -25 61.5t-67 24.5h-127q-10 0 -11 -10l-36 -203v-3q0 -7 8 -7h127q45 0 81 30t46 77zM324 536q69 0 108.5 -37t39.5 -100q0 -55 -30 -106q-26 -43 -73.5 -69t-104.5 -26h-127q-11 0 -12 -10l-31 -178q-1 -10 -12 -10h-47q-8 0 -8 7v3
l107 609q1 10 12 10h47q8 0 8 -7v-3l-13 -73v-2q0 -8 9 -8h127z" />
    <glyph glyph-name="Yacute" unicode="&#xdd;" horiz-adv-x="448" 
d="M252 291l-49 -281q-1 -10 -12 -10h-49q-8 0 -8 7v3l49 281l-114 323q-1 2 -1 5q0 10 13 10h57l8 -6l78 -252q1 -7 8 -7q6 0 10 7l166 252q6 6 10 6h57q10 0 10 -6q0 -3 -4 -9zM282 686l-26 -2q-10 0 -10 6q0 3 5 10l88 104l9 4h68q10 0 10 -7q0 -6 -6 -10z" />
    <glyph glyph-name="Zcaron" unicode="&#x17d;" horiz-adv-x="438" 
d="M91 71q-3 -5 -3 -8q0 -6 9 -6h240q8 0 8 -7v-3l-6 -37q-1 -10 -12 -10h-339q-9 0 -9 7q0 4 2 7l339 544q3 4 3 8q0 6 -9 6h-215q-9 0 -9 6q0 1 0.5 1.5t0.5 2.5l6 37q1 10 12 10h316q9 0 9 -6q0 -4 -3 -8zM294 688l-8 -4h-31l-8 4l-61 105q-2 4 -2 6q0 10 13 10h35l7 -4
l35 -60q3 -5 7 -5t9 5l54 60l9 4h36q10 0 10 -7q0 -4 -5 -9z" />
    <glyph glyph-name="brokenbar" unicode="&#xa6;" horiz-adv-x="500" 
d="M277 -171h-53v370h53v-370zM277 329h-53v370h53v-370z" />
    <glyph glyph-name="eth" unicode="&#xf0;" 
d="M340 196q1 5 1.5 9t0.5 9q0 37 -25.5 62.5t-65.5 25.5q-46 0 -80.5 -30.5t-43.5 -75.5l-8 -42q-1 -5 -1.5 -10t-0.5 -10q0 -37 25 -62t67 -25q21 0 41.5 8.5t37 23t28.5 34t16 41.5zM546 604q2 -4 2 -6q0 -4 -6 -8l-76 -48q-7 -4 -7 -20q0 -3 0.5 -7.5t0.5 -11.5
q0 -8 -3 -27l-57 -322q-13 -74 -68 -119t-136 -45q-70 0 -108.5 35t-38.5 94q0 17 3 35l8 42q12 66 68 117q51 46 115 46q19 0 32 -3.5t20 -8.5q23 -17 34.5 -33.5t20.5 -16.5q7 0 9 11l30 170v3q0 8 -4 8q-6 0 -10 -3l-79 -50q-3 -2 -7 -2q-5 0 -7 5l-6 14q-1 2 -1 5
q0 5 5 8l94 58q6 4 6 8q0 7 -6 16t-16.5 16.5t-25 12.5t-31.5 5q-44 0 -78 -29q-15 -13 -22 -21.5t-12 -8.5q-3 0 -5 1l-38 21q-5 3 -5 7q0 8 16.5 26t51.5 39q17 11 43.5 17t58.5 6q26 0 46 -4.5t31 -10.5q14 -8 24 -17t17 -17t12 -13t8 -5q2 0 7 3l70 43q4 3 7 3q5 0 7 -5
z" />
    <glyph glyph-name="lslash" unicode="&#x142;" horiz-adv-x="209" 
d="M230 427q2 -2 2 -6q0 -5 -4 -8l-83 -70l-4 -7l-57 -326q-1 -10 -12 -10h-48q-8 0 -8 7v3l42 238v2q0 9 -7 9q-5 0 -9 -4l-36 -31q-4 -4 -7 -4t-6 3l-11 11q-3 3 -3 7q0 3 5 8l83 70l4 7l52 293q1 10 12 10h48q8 0 8 -8v-2l-36 -205v-3q0 -8 6 -8t10 4l37 31q6 4 8 4t6 -4
z" />
    <glyph glyph-name="minus" unicode="&#x2212;" horiz-adv-x="833" 
d="M709 274h-585v48h585v-48z" />
    <glyph glyph-name="multiply" unicode="&#xd7;" horiz-adv-x="833" 
d="M653 567l34 -34l-235 -235l235 -235l-34 -34l-235 235l-235 -235l-34 34l235 235l-235 235l34 34l235 -235z" />
    <glyph glyph-name="onehalf" unicode="&#xbd;" horiz-adv-x="934" 
d="M814 358q44 0 68.5 -19.5t24.5 -51.5q0 -39 -24 -68.5t-73 -53.5l-48 -24t-38.5 -23t-27 -25.5t-13.5 -32.5l-5 -22v-2q0 -4 5 -4h164q5 0 5 -4v-2l-4 -20q0 -6 -7 -6h-207q-5 0 -5 4v2l11 54q5 26 20 48t38 39q19 14 42.5 26l51.5 26q37 18 54.5 36.5t17.5 43.5
q0 20 -16.5 33.5t-40.5 13.5h-25q-20 0 -34.5 -9t-30.5 -21q-3 -3 -5 -3h-3l-24 12q-3 1 -3 4q0 6 8 14t22 16t33.5 13.5t42.5 5.5h26zM301 6q-5 -6 -10 -6h-24q-9 0 -9 7q0 4 2 7l369 610q4 6 10 6h24q9 0 9 -7q0 -4 -2 -7zM238 283q0 -6 -7 -6h-188q-5 0 -5 4v2l4 20
q1 6 8 6h66q7 0 7 6l47 236v2q0 5 -4 5q-2 0 -5 -3l-49 -37q-4 -2 -6 -2q-1 0 -3 2l-13 16q-1 1 -1 4t2 4l114 86l5 1h12q5 0 5 -4v-1l-61 -309v-2q0 -4 5 -4h66q5 0 5 -4v-2z" />
    <glyph glyph-name="onequarter" unicode="&#xbc;" horiz-adv-x="934" 
d="M832 289q0 5 -5 5q-2 0 -5 -3l-157 -166q-3 -2 -3 -5q0 -4 7 -4h123q5 0 7 6l33 165v2zM894 90q0 -5 -7 -5h-46q-7 0 -8 -6l-14 -73q-2 -6 -8 -6h-30q-5 0 -5 4v2l15 73v1q0 5 -5 5h-165q-5 0 -5 4v1l7 32l215 228l5 2h38q5 0 5 -4v-1l-45 -225v-1q0 -5 6 -5h47q5 0 5 -4
v-1zM301 6q-5 -6 -10 -6h-24q-9 0 -9 7q0 4 2 7l369 610q4 6 10 6h24q9 0 9 -7q0 -4 -2 -7zM238 283q0 -6 -7 -6h-188q-5 0 -5 4v2l4 20q1 6 8 6h66q7 0 7 6l47 236v2q0 5 -4 5q-2 0 -5 -3l-49 -37q-4 -2 -6 -2q-1 0 -3 2l-13 16q-1 1 -1 4t2 4l114 86l5 1h12q5 0 5 -4v-1
l-61 -309v-2q0 -4 5 -4h66q5 0 5 -4v-2z" />
    <glyph glyph-name="onesuperior" unicode="&#xb9;" horiz-adv-x="337" 
d="M249 258q0 -6 -7 -6h-196q-6 0 -6 4v2l4 22q3 6 8 6h69q8 0 8 6l49 254v2q0 5 -4 5q-3 0 -6 -3l-51 -39q-3 -3 -5 -3q-3 0 -4 3l-14 16q-1 2 -1 5q0 2 3 4l119 92l5 1h12q6 0 6 -4v-2l-64 -331v-2q0 -4 5 -4h69q5 0 5 -4v-2z" />
    <glyph glyph-name="scaron" unicode="&#x161;" horiz-adv-x="438" 
d="M254 452q31 0 56.5 -7.5t43.5 -19.5t27.5 -27t9.5 -30q0 -4 -8 -8l-41 -19q-2 -1 -4 -1q-4 0 -7 5q-18 23 -35.5 38.5t-51.5 15.5h-31q-48 0 -74.5 -21.5t-26.5 -55.5q0 -17 8 -28t24 -18.5t39.5 -13.5t55.5 -13q61 -14 90.5 -33.5t29.5 -61.5q0 -33 -14 -63t-38.5 -52.5
t-59 -35.5t-75.5 -13h-31q-32 0 -57.5 8t-43.5 20.5t-28 27.5t-10 29q0 4 9 9l42 19q2 1 5 1q2 0 7 -5q17 -24 34 -40t52 -16h31q22 0 41.5 7t33.5 18.5t22 26.5t8 31t-8 27t-24 18.5t-40.5 13.5t-56.5 13q-59 13 -87.5 31.5t-28.5 59.5q0 34 13.5 63.5t38 51.5t57.5 35
t72 13h31zM276 500l-8 -4h-31l-8 4l-61 105q-2 4 -2 6q0 10 13 10h35l7 -4l35 -60q3 -5 7 -5t9 5l54 60l9 4h36q10 0 10 -7q0 -4 -5 -9z" />
    <glyph glyph-name="thorn" unicode="&#xfe;" horiz-adv-x="474" 
d="M344 279q1 5 1.5 9t0.5 9q0 38 -26 63t-68 25q-21 0 -41.5 -8.5t-37 -23t-27.5 -33.5t-15 -41l-20 -115q-1 -5 -1.5 -9t-0.5 -9q0 -38 25.5 -63.5t67.5 -25.5q21 0 41.5 8.5t37 23.5t28 34.5t15.5 40.5zM392 164q-5 -32 -22.5 -62t-46.5 -56q-50 -46 -114 -46
q-20 0 -33.5 4t-21.5 9q-21 16 -33 32t-21 16q-7 0 -9 -11l-47 -265q-1 -10 -12 -10h-48q-8 0 -8 7v3l147 834q1 10 12 10h48q7 0 7 -7v-3l-39 -227v-3q0 -8 7 -8t18 11t23 21q17 13 36.5 21t49.5 8q24 0 47 -9.5t41.5 -27t30 -41.5t11.5 -54q0 -15 -3 -31z" />
    <glyph glyph-name="threequarters" unicode="&#xbe;" horiz-adv-x="934" 
d="M832 289q0 5 -5 5q-2 0 -5 -3l-157 -166q-3 -2 -3 -5q0 -4 7 -4h123q5 0 7 6l33 165v2zM894 90q0 -5 -7 -5h-46q-7 0 -8 -6l-14 -73q-2 -6 -8 -6h-30q-5 0 -5 4v2l15 73v1q0 5 -5 5h-165q-5 0 -5 4v1l7 32l215 228l5 2h38q5 0 5 -4v-1l-45 -225v-1q0 -5 6 -5h47q5 0 5 -4
v-1zM301 6q-5 -6 -10 -6h-24q-9 0 -9 7q0 4 2 7l369 610q4 6 10 6h24q9 0 9 -7q0 -4 -2 -7zM285 529q-5 -23 -24.5 -41.5t-48.5 -27.5l-1 -2q22 -9 34.5 -25.5t12.5 -36.5q0 -3 -0.5 -5.5t-1.5 -5.5l-3 -17q-8 -45 -43 -71t-87 -26h-19q-42 0 -64.5 16t-22.5 33q0 4 4 5
l29 12h4q1 0 3 -2q11 -14 21.5 -23t31.5 -9h20q28 0 51 17.5t28 42.5l4 20q1 4 1 10q0 21 -16 35.5t-41 14.5h-44q-5 0 -5 4v1l4 21q1 6 8 6h44q28 0 51 17t28 43l2 9q1 3 1 11q0 21 -16 34.5t-40 13.5h-20q-12 0 -24.5 -4t-22.5 -11q-11 -8 -16 -13.5t-8 -5.5t-3 1l-24 12
q-3 1 -3 4q0 5 10 15t33 22q11 5 27.5 8.5t36.5 3.5h20q45 0 69 -20t24 -55v-10.5t-2 -11.5z" />
    <glyph glyph-name="threesuperior" unicode="&#xb3;" horiz-adv-x="337" 
d="M298 522q-5 -24 -25 -44t-51 -30l-1 -2q23 -10 36 -28t13 -38q0 -3 -0.5 -6t-0.5 -6l-4 -19q-8 -47 -45 -75t-91 -28h-20q-45 0 -68 17.5t-23 34.5q0 3 4 6l31 12q1 1 3 1t4 -3q11 -14 22 -24t34 -10h20q15 0 29 5t25 14t19 20.5t10 24.5l4 22q1 4 1 11q0 23 -16.5 38
t-42.5 15h-46q-5 0 -5 4v2l3 22q3 6 8 6h47q29 0 53 18t30 47l2 9q0 3 0.5 5.5t0.5 6.5q0 23 -16.5 37t-42.5 14h-21q-12 0 -25 -4t-24 -12t-16.5 -14t-8.5 -6t-4 1l-25 13q-2 1 -2 4q0 5 10.5 15.5t33.5 23.5q23 14 68 14h20q47 0 72.5 -21.5t25.5 -58.5q0 -12 -3 -24z" />
    <glyph glyph-name="twosuperior" unicode="&#xb2;" horiz-adv-x="337" 
d="M211 636q46 0 72.5 -21t26.5 -56q0 -42 -25.5 -73.5t-77.5 -57.5l-50 -25.5t-40 -24t-28 -27t-15 -34.5l-5 -25v-2q0 -4 6 -4h171q5 0 5 -4v-2l-3 -22q-2 -6 -8 -6h-217q-5 0 -5 4v2l11 59q5 26 21 50.5t40 41.5q20 14 45 27.5l54 28.5q38 20 56.5 40t18.5 46
q0 21 -17 35.5t-42 14.5h-27q-21 0 -36 -9t-32 -23q-3 -3 -5 -3h-3l-25 13q-4 2 -4 4q0 6 8 15t23 17.5t35.5 14.5t45.5 6h26z" />
    <glyph glyph-name="yacute" unicode="&#xfd;" horiz-adv-x="479" 
d="M420 442q8 0 8 -9q0 -3 -4 -26l-12 -66l-71 -401q-14 -82 -68.5 -128.5t-136.5 -46.5q-32 0 -58 8t-44 20.5t-27.5 28.5t-9.5 31q0 5 7 8l46 21q2 1 5 1t6 -5q18 -25 35.5 -40.5t49.5 -15.5q23 0 44 8.5t38 22.5t28.5 33.5t15.5 42.5l21 119v2q0 9 -7 9q-5 0 -14.5 -10
t-28.5 -24q-17 -13 -36.5 -19t-40.5 -6q-30 0 -55 9.5t-43 26.5t-28 41.5t-10 54.5q0 15 3 32l47 268q1 10 12 10h47q8 0 8 -7v-3l-47 -268q-1 -5 -1.5 -9.5t-0.5 -9.5q0 -38 25.5 -63t67.5 -25q22 0 42.5 8.5t37 23t28 34t15.5 41.5l47 268q1 10 12 10h47zM262 498l-26 -2
q-10 0 -10 6q0 3 5 10l88 104l9 4h68q10 0 10 -7q0 -6 -6 -10z" />
    <glyph glyph-name="zcaron" unicode="&#x17e;" horiz-adv-x="427" 
d="M111 72q-4 -4 -4 -9q0 -6 10 -6h213q8 0 8 -7v-3l-6 -37q-1 -10 -12 -10h-328q-10 0 -10 6q0 5 4 9l273 354q4 6 4 9q0 6 -10 6h-192q-9 0 -9 8v2l7 37q1 10 12 10h309q10 0 10 -6q0 -3 -4 -9zM243 500l-8 -4h-31l-8 4l-61 105q-2 4 -2 6q0 10 13 10h35l7 -4l35 -60
q3 -5 7 -5t9 5l54 60l9 4h36q10 0 10 -7q0 -4 -5 -9z" />
  </font>
</defs>
</svg>
