<?xml version="1.0" standalone="no"?>
<!DOCTYPE svg PUBLIC "-//W3C//DTD SVG 1.1//EN" "http://www.w3.org/Graphics/SVG/1.1/DTD/svg11.dtd" >
<svg>
<metadata>
Created by FontForge 20090622 at Fri Apr 22 09:15:50 2016
 By deploy user
(c) Copyright 1995-1997 International Typeface Corporation  All rights reserved.
</metadata>
<defs>
<font id="ConduitITC-MediumItalic" horiz-adv-x="510" >
  <font-face 
    font-family="Conduit ITC"
    font-weight="550"
    font-style="italic"
    font-stretch="normal"
    units-per-em="1000"
    panose-1="2 0 6 6 4 0 0 9 0 4"
    ascent="800"
    descent="-200"
    x-height="449"
    cap-height="630"
    bbox="-170 -235 929 876"
    underline-thickness="60"
    underline-position="-52"
    slope="-7"
    unicode-range="U+0020-U+FB02"
  />
<missing-glyph horiz-adv-x="179" 
 />
    <glyph glyph-name="fi" unicode="fi" horiz-adv-x="495" 
d="M303 569q-1 -5 -3 -6.5t-6 -3.5l-35 -14.5t-29 -16t-21.5 -23.5t-12.5 -35l-10 -55v-3q0 -7 8 -7h70q9 0 9 -8v-2l-11 -60q-1 -10 -12 -10h-70q-10 0 -11 -10l-66 -370q-12 -70 -75 -127q-58 -53 -137 -53q-51 0 -51 10q0 4 2 7l30 58q4 7 11 7q3 0 8.5 -1t14.5 -1
q38 0 68.5 26.5t37.5 63.5l67 380v2q0 8 -9 8h-25q-8 0 -8 7v3l11 60q1 10 11 10h25q11 0 12 10l8 45q5 28 22.5 60t46.5 61q57 58 126 58q15 0 15 -7v-3zM375 10q-1 -10 -12 -10h-70q-8 0 -8 7v3l76 430q1 10 11 10h70q9 0 9 -8v-2zM487 594q0 -26 -19.5 -45t-46.5 -19
q-20 0 -33 13t-13 33q0 26 20 45t46 19q21 0 33.5 -12.5t12.5 -33.5z" />
    <glyph glyph-name="fl" unicode="fl" horiz-adv-x="498" 
d="M378 10q-1 -10 -12 -10h-70q-8 0 -8 7v3l93 530v3q0 7 -8 7h-73q-38 0 -68.5 -26t-37.5 -64l-8 -45v-3q0 -7 8 -7h70q9 0 9 -8v-2l-11 -60q-1 -10 -12 -10h-70q-10 0 -11 -10l-66 -370q-12 -70 -75 -127q-58 -53 -137 -53q-51 0 -51 10q0 4 2 7l30 58q4 7 11 7
q3 0 8.5 -1t14.5 -1q38 0 68.5 26.5t37.5 63.5l67 380v2q0 8 -9 8h-25q-8 0 -8 7v3l11 60q1 10 11 10h25q11 0 12 10l6 35q6 38 26 71t48.5 57t64 38t73.5 14h163q8 0 8 -7v-3z" />
    <glyph glyph-name=".notdef" horiz-adv-x="179" 
 />
    <glyph glyph-name=".null" horiz-adv-x="0" 
 />
    <glyph glyph-name="nonmarkingreturn" horiz-adv-x="179" 
 />
    <glyph glyph-name="space" unicode=" " horiz-adv-x="179" 
 />
    <glyph glyph-name="space" unicode="&#xa0;" horiz-adv-x="179" 
 />
    <glyph glyph-name="Acircumflex" unicode="&#xc2;" horiz-adv-x="450" 
d="M407 701q2 -4 2 -7q0 -9 -13 -9h-48l-7 5l-32 68q-3 6 -7 6t-8 -6l-55 -68l-9 -5h-48q-10 0 -10 7q0 2 5 9l111 125l9 4h36l7 -4zM257 426q0 5 -1.5 16t-2.5 28h-4q-7 -14 -11.5 -25l-8.5 -20l-82 -187q-1 -2 -1 -6q0 -7 9 -7h105q12 0 12 11v2zM393 10q0 -10 -12 -10
h-75q-9 0 -9 7l-13 132q0 6 -9 6h-162q-9 0 -11 -6l-61 -132q-3 -7 -11 -7h-75q-10 0 -10 7q0 2 2 6l294 610q3 7 11 7h54q8 0 9 -7l78 -610v-3z" />
    <glyph glyph-name="Adieresis" unicode="&#xc4;" horiz-adv-x="450" 
d="M257 426q0 5 -1.5 16t-2.5 28h-4q-7 -14 -11.5 -25l-8.5 -20l-82 -187q-1 -2 -1 -6q0 -7 9 -7h105q12 0 12 11v2zM393 10q0 -10 -12 -10h-75q-9 0 -9 7l-13 132q0 6 -9 6h-162q-9 0 -11 -6l-61 -132q-3 -7 -11 -7h-75q-10 0 -10 7q0 2 2 6l294 610q3 7 11 7h54q8 0 9 -7
l78 -610v-3zM274 766q0 -23 -18 -40.5t-41 -17.5q-18 0 -30 11.5t-12 30.5q0 23 18.5 40.5t41.5 17.5q18 0 29.5 -11.5t11.5 -30.5zM431 766q0 -23 -18.5 -40.5t-41.5 -17.5q-18 0 -30 11.5t-12 30.5q0 23 18.5 40.5t41.5 17.5q18 0 30 -11.5t12 -30.5z" />
    <glyph glyph-name="Agrave" unicode="&#xc0;" horiz-adv-x="450" 
d="M340 699q0 -2 0.5 -2.5t0.5 -2.5q0 -10 -12 -10h-43l-6 3l-105 125q-3 3 -3 7q0 10 13 10h88l7 -5zM257 426q0 5 -1.5 16t-2.5 28h-4q-7 -14 -11.5 -25l-8.5 -20l-82 -187q-1 -2 -1 -6q0 -7 9 -7h105q12 0 12 11v2zM393 10q0 -10 -12 -10h-75q-9 0 -9 7l-13 132q0 6 -9 6
h-162q-9 0 -11 -6l-61 -132q-3 -7 -11 -7h-75q-10 0 -10 7q0 2 2 6l294 610q3 7 11 7h54q8 0 9 -7l78 -610v-3z" />
    <glyph glyph-name="Aring" unicode="&#xc5;" horiz-adv-x="450" 
d="M341 791q0 2 0.5 3t0.5 3q0 13 -9 22t-23 9q-16 0 -30 -12t-16 -27l-5 -28q0 -2 -0.5 -3.5t-0.5 -3.5q0 -14 8.5 -22.5t22.5 -8.5q16 0 29.5 11.5t16.5 27.5zM387 761q-8 -39 -36 -62t-68 -23q-37 0 -57.5 18t-20.5 50q0 5 0.5 9t1.5 9l5 29q7 38 35 61.5t70 23.5
q36 0 57 -19t21 -49q0 -5 -0.5 -9.5t-1.5 -9.5zM257 426q0 5 -1.5 16t-2.5 28h-4q-7 -14 -11.5 -25l-8.5 -20l-82 -187q-1 -2 -1 -6q0 -7 9 -7h105q12 0 12 11v2zM393 10q0 -10 -12 -10h-75q-9 0 -9 7l-13 132q0 6 -9 6h-162q-9 0 -11 -6l-61 -132q-3 -7 -11 -7h-75
q-10 0 -10 7q0 2 2 6l294 610q3 7 11 7h54q8 0 9 -7l78 -610v-3z" />
    <glyph glyph-name="Atilde" unicode="&#xc3;" horiz-adv-x="450" 
d="M257 426q0 5 -1.5 16t-2.5 28h-4q-7 -14 -11.5 -25l-8.5 -20l-82 -187q-1 -2 -1 -6q0 -7 9 -7h105q12 0 12 11v2zM393 10q0 -10 -12 -10h-75q-9 0 -9 7l-13 132q0 6 -9 6h-162q-9 0 -11 -6l-61 -132q-3 -7 -11 -7h-75q-10 0 -10 7q0 2 2 6l294 610q3 7 11 7h54q8 0 9 -7
l78 -610v-3zM444 775q3 -3 3 -7q0 -2 -2 -6q-23 -35 -49 -51.5t-49 -16.5q-32 0 -59 26l-17 13q-16 13 -34 13q-12 0 -21.5 -5t-16.5 -11l-12.5 -11t-10.5 -5q-1 0 -5 2l-19 16q-4 3 -4 6q0 8 28 36q37 37 72 37q32 0 59 -24l17 -15q14 -12 34 -12q13 0 23.5 5t18 11.5
t12.5 11.5t8 5q5 0 7 -2z" />
    <glyph glyph-name="B" unicode="B" horiz-adv-x="520" 
d="M351 190q1 4 1 7.5v6.5q0 32 -21.5 54t-53.5 22h-110q-10 0 -11 -10l-32 -180v-3q0 -7 8 -7h110q19 0 37 7t32.5 19.5t24 29t12.5 34.5zM399 460q1 5 1.5 8.5t0.5 8.5q0 30 -21.5 51.5t-54.5 21.5h-110q-11 0 -12 -10l-30 -170v-3q0 -7 8 -7h110q18 0 35.5 6.5t31.5 18.5
t24.5 28.5t14.5 36.5zM486 440q-2 -13 -9 -29.5t-21 -33.5q-24 -29 -42 -41t-18 -17q0 -6 11.5 -16t19.5 -27q17 -36 17 -65q0 -5 -0.5 -9t-1.5 -9l-3 -15q-17 -84 -73 -131t-138 -47h-200q-8 0 -8 7v3l107 610q1 10 12 10h200q73 0 111 -38.5t38 -112.5v-14t-1 -15z" />
    <glyph glyph-name="C" unicode="C" horiz-adv-x="465" 
d="M326 640q33 0 60.5 -8.5t47 -22.5t30 -31.5t10.5 -35.5q0 -8 -7 -11l-70 -32q-2 -1 -5 -1q-4 0 -7 6q-14 25 -28 40.5t-45 15.5h-30q-38 0 -68.5 -26t-37.5 -64l-55 -310q-1 -4 -1 -8v-8q0 -32 21 -53t54 -21h30q18 0 35 6.5t28 17.5q18 17 26.5 28t13.5 11q4 0 6 -1
l58 -32q4 -1 4 -6q0 -7 -16.5 -28.5t-54.5 -46.5q-20 -14 -49.5 -21.5t-64.5 -7.5h-30q-72 0 -112.5 36.5t-40.5 98.5q0 17 3 35l55 310q7 38 25 69.5t45.5 54t63 34.5t76.5 12h30z" />
    <glyph glyph-name="Ccedilla" unicode="&#xc7;" horiz-adv-x="465" 
d="M232 -132q-6 -40 -38.5 -66.5t-79.5 -26.5h-48q-8 0 -8 7v3l7 40q1 10 12 10h48q15 0 26 9.5t13 23.5l1 8v6q0 12 -7.5 20t-19.5 8h-19q-9 0 -9 7q0 2 3 7l43 67q-63 8 -95.5 43t-32.5 91q0 17 3 35l55 310q7 38 25 69.5t45.5 54t63 34.5t76.5 12h30q33 0 60.5 -8.5
t47 -22.5t30 -31.5t10.5 -35.5q0 -8 -7 -11l-70 -32q-2 -1 -5 -1q-4 0 -7 6q-14 25 -28 40.5t-45 15.5h-30q-38 0 -68.5 -26t-37.5 -64l-55 -310q-1 -4 -1 -8v-8q0 -32 21 -53t54 -21h30q18 0 35 6.5t28 17.5q18 17 26.5 28t13.5 11q4 0 6 -1l58 -32q4 -1 4 -6q0 -3 -8 -16
t-27 -32q-21 -22 -54.5 -35t-81.5 -21l-21 -30q-2 -2 -2 -6q0 -3 5 -7.5t11 -12.5t11 -19.5t5 -26.5q0 -8 -1 -12z" />
    <glyph glyph-name="D" unicode="D" horiz-adv-x="525" 
d="M399 460q1 4 1 8v8q0 32 -21 53t-54 21h-110q-11 0 -12 -10l-79 -450v-3q0 -7 8 -7h110q38 0 68.5 26t37.5 64zM440 180q-7 -42 -25.5 -75t-46 -56.5t-63 -36t-77.5 -12.5h-200q-8 0 -8 7v3l107 610q1 10 12 10h200q72 0 112 -37t40 -103q0 -10 -1 -19.5t-3 -20.5z" />
    <glyph glyph-name="E" unicode="E" horiz-adv-x="459" 
d="M321 640q35 0 62.5 -10t46.5 -25t29 -32.5t10 -33.5q0 -5 -7 -8l-69 -32q-2 -1 -5 -1q-4 0 -8 6q-8 12 -14 22t-13.5 17.5t-18 12t-27.5 4.5h-30q-37 0 -67.5 -26t-38.5 -64l-3 -15q-1 -5 -1.5 -8.5t-0.5 -8.5q0 -30 21.5 -51.5t54.5 -21.5h80q9 0 9 -8v-2l-11 -60
q-1 -10 -12 -10h-80q-38 0 -68.5 -26t-37.5 -64l-6 -35q-1 -4 -1 -8v-8q0 -32 21 -53t54 -21h30q18 0 34.5 6.5t27.5 17.5q17 17 26 28t15 11q3 0 5 -1l58 -32q4 -2 4 -6q0 -5 -16 -27.5t-54 -47.5q-20 -13 -49.5 -21t-64.5 -8h-30q-72 0 -112 36.5t-40 101.5q0 10 1 19.5
t3 20.5l5 30q2 14 10.5 31.5t20.5 33.5q25 32 42.5 44.5t17.5 16.5q0 6 -11 15t-20 25q-19 36 -19 64q0 7 2 17l3 15q8 42 27 75.5t46.5 56.5t62.5 35.5t76 12.5h30z" />
    <glyph glyph-name="Eacute" unicode="&#xc9;" horiz-adv-x="459" 
d="M321 640q35 0 62.5 -10t46.5 -25t29 -32.5t10 -33.5q0 -5 -7 -8l-69 -32q-2 -1 -5 -1q-4 0 -8 6q-8 12 -14 22t-13.5 17.5t-18 12t-27.5 4.5h-30q-37 0 -67.5 -26t-38.5 -64l-3 -15q-1 -5 -1.5 -8.5t-0.5 -8.5q0 -30 21.5 -51.5t54.5 -21.5h80q9 0 9 -8v-2l-11 -60
q-1 -10 -12 -10h-80q-38 0 -68.5 -26t-37.5 -64l-6 -35q-1 -4 -1 -8v-8q0 -32 21 -53t54 -21h30q18 0 34.5 6.5t27.5 17.5q17 17 26 28t15 11q3 0 5 -1l58 -32q4 -2 4 -6q0 -5 -16 -27.5t-54 -47.5q-20 -13 -49.5 -21t-64.5 -8h-30q-72 0 -112 36.5t-40 101.5q0 10 1 19.5
t3 20.5l5 30q2 14 10.5 31.5t20.5 33.5q25 32 42.5 44.5t17.5 16.5q0 6 -11 15t-20 25q-19 36 -19 64q0 7 2 17l3 15q8 42 27 75.5t46.5 56.5t62.5 35.5t76 12.5h30zM321 688l-8 -3h-43q-9 0 -9 7q0 4 4 8l104 125q2 2 9 5h88q10 0 10 -7q0 -6 -6 -10z" />
    <glyph glyph-name="Ecircumflex" unicode="&#xca;" horiz-adv-x="459" 
d="M427 701q2 -4 2 -7q0 -9 -13 -9h-48l-7 5l-32 68q-3 6 -7 6t-8 -6l-55 -68l-9 -5h-48q-10 0 -10 7q0 2 5 9l111 125l9 4h36l7 -4zM321 640q35 0 62.5 -10t46.5 -25t29 -32.5t10 -33.5q0 -5 -7 -8l-69 -32q-2 -1 -5 -1q-4 0 -8 6q-8 12 -14 22t-13.5 17.5t-18 12
t-27.5 4.5h-30q-37 0 -67.5 -26t-38.5 -64l-3 -15q-1 -5 -1.5 -8.5t-0.5 -8.5q0 -30 21.5 -51.5t54.5 -21.5h80q9 0 9 -8v-2l-11 -60q-1 -10 -12 -10h-80q-38 0 -68.5 -26t-37.5 -64l-6 -35q-1 -4 -1 -8v-8q0 -32 21 -53t54 -21h30q18 0 34.5 6.5t27.5 17.5q17 17 26 28
t15 11q3 0 5 -1l58 -32q4 -2 4 -6q0 -5 -16 -27.5t-54 -47.5q-20 -13 -49.5 -21t-64.5 -8h-30q-72 0 -112 36.5t-40 101.5q0 10 1 19.5t3 20.5l5 30q2 14 10.5 31.5t20.5 33.5q25 32 42.5 44.5t17.5 16.5q0 6 -11 15t-20 25q-19 36 -19 64q0 7 2 17l3 15q8 42 27 75.5
t46.5 56.5t62.5 35.5t76 12.5h30z" />
    <glyph glyph-name="Edieresis" unicode="&#xcb;" horiz-adv-x="459" 
d="M321 640q35 0 62.5 -10t46.5 -25t29 -32.5t10 -33.5q0 -5 -7 -8l-69 -32q-2 -1 -5 -1q-4 0 -8 6q-8 12 -14 22t-13.5 17.5t-18 12t-27.5 4.5h-30q-37 0 -67.5 -26t-38.5 -64l-3 -15q-1 -5 -1.5 -8.5t-0.5 -8.5q0 -30 21.5 -51.5t54.5 -21.5h80q9 0 9 -8v-2l-11 -60
q-1 -10 -12 -10h-80q-38 0 -68.5 -26t-37.5 -64l-6 -35q-1 -4 -1 -8v-8q0 -32 21 -53t54 -21h30q18 0 34.5 6.5t27.5 17.5q17 17 26 28t15 11q3 0 5 -1l58 -32q4 -2 4 -6q0 -5 -16 -27.5t-54 -47.5q-20 -13 -49.5 -21t-64.5 -8h-30q-72 0 -112 36.5t-40 101.5q0 10 1 19.5
t3 20.5l5 30q2 14 10.5 31.5t20.5 33.5q25 32 42.5 44.5t17.5 16.5q0 6 -11 15t-20 25q-19 36 -19 64q0 7 2 17l3 15q8 42 27 75.5t46.5 56.5t62.5 35.5t76 12.5h30zM294 766q0 -23 -18 -40.5t-41 -17.5q-18 0 -30 11.5t-12 30.5q0 23 18.5 40.5t41.5 17.5q18 0 29.5 -11.5
t11.5 -30.5zM451 766q0 -23 -18.5 -40.5t-41.5 -17.5q-18 0 -30 11.5t-12 30.5q0 23 18.5 40.5t41.5 17.5q18 0 30 -11.5t12 -30.5z" />
    <glyph glyph-name="Egrave" unicode="&#xc8;" horiz-adv-x="459" 
d="M360 699q0 -2 0.5 -2.5t0.5 -2.5q0 -10 -12 -10h-43l-6 3l-105 125q-3 3 -3 7q0 10 13 10h88l7 -5zM321 640q35 0 62.5 -10t46.5 -25t29 -32.5t10 -33.5q0 -5 -7 -8l-69 -32q-2 -1 -5 -1q-4 0 -8 6q-8 12 -14 22t-13.5 17.5t-18 12t-27.5 4.5h-30q-37 0 -67.5 -26
t-38.5 -64l-3 -15q-1 -5 -1.5 -8.5t-0.5 -8.5q0 -30 21.5 -51.5t54.5 -21.5h80q9 0 9 -8v-2l-11 -60q-1 -10 -12 -10h-80q-38 0 -68.5 -26t-37.5 -64l-6 -35q-1 -4 -1 -8v-8q0 -32 21 -53t54 -21h30q18 0 34.5 6.5t27.5 17.5q17 17 26 28t15 11q3 0 5 -1l58 -32q4 -2 4 -6
q0 -5 -16 -27.5t-54 -47.5q-20 -13 -49.5 -21t-64.5 -8h-30q-72 0 -112 36.5t-40 101.5q0 10 1 19.5t3 20.5l5 30q2 14 10.5 31.5t20.5 33.5q25 32 42.5 44.5t17.5 16.5q0 6 -11 15t-20 25q-19 36 -19 64q0 7 2 17l3 15q8 42 27 75.5t46.5 56.5t62.5 35.5t76 12.5h30z" />
    <glyph glyph-name="F" unicode="F" horiz-adv-x="455" 
d="M477 560q-1 -10 -12 -10h-250q-11 0 -12 -10l-30 -170v-3q0 -7 8 -7h205q9 0 9 -8v-2l-11 -60q-1 -10 -12 -10h-205q-10 0 -11 -10l-46 -260q-1 -10 -12 -10h-70q-8 0 -8 7v3l107 610q1 10 12 10h340q8 0 8 -7v-3z" />
    <glyph glyph-name="G" unicode="G" 
d="M344 640q33 0 60.5 -9t47 -23t30 -32t10.5 -37q0 -5 -7 -8l-70 -32q-2 -1 -5 -1q-4 0 -7 6q-14 25 -28 40.5t-45 15.5h-48q-38 0 -68.5 -26t-37.5 -64l-55 -310q-1 -4 -1 -8v-8q0 -32 21 -53t54 -21h30q19 0 36.5 7t32 19t24.5 28.5t13 35.5l12 65v2q0 8 -9 8h-100
q-8 0 -8 7v3l11 60q1 10 12 10h190q8 0 8 -7v-3l-26 -145q-7 -38 -25 -69.5t-45.5 -54t-63 -34.5t-76.5 -12h-30q-72 0 -112.5 36.5t-40.5 98.5q0 17 3 35l55 310q7 38 25 69.5t45.5 54t63 34.5t76.5 12h48z" />
    <glyph glyph-name="H" unicode="H" horiz-adv-x="555" 
d="M425 10q-1 -10 -12 -10h-70q-8 0 -8 7v3l46 260v2q0 8 -9 8h-205q-10 0 -11 -10l-46 -260q-1 -10 -12 -10h-70q-8 0 -8 7v3l107 610q1 10 12 10h70q8 0 8 -7v-3l-44 -250v-3q0 -7 8 -7h205q11 0 12 10l44 250q3 10 12 10h70q8 0 8 -7v-3z" />
    <glyph glyph-name="I" unicode="I" horiz-adv-x="240" 
d="M110 10q-1 -10 -12 -10h-70q-8 0 -8 7v3l107 610q1 10 12 10h70q8 0 8 -7v-3z" />
    <glyph glyph-name="Iacute" unicode="&#xcd;" horiz-adv-x="240" 
d="M110 10q-1 -10 -12 -10h-70q-8 0 -8 7v3l107 610q1 10 12 10h70q8 0 8 -7v-3zM194 688l-8 -3h-43q-9 0 -9 7q0 4 4 8l104 125q2 2 9 5h88q10 0 10 -7q0 -6 -6 -10z" />
    <glyph glyph-name="Icircumflex" unicode="&#xce;" horiz-adv-x="240" 
d="M299 701q2 -4 2 -7q0 -9 -13 -9h-48l-7 5l-32 68q-3 6 -7 6t-8 -6l-55 -68l-9 -5h-48q-10 0 -10 7q0 2 5 9l111 125l9 4h36l7 -4zM110 10q-1 -10 -12 -10h-70q-8 0 -8 7v3l107 610q1 10 12 10h70q8 0 8 -7v-3z" />
    <glyph glyph-name="Idieresis" unicode="&#xcf;" horiz-adv-x="240" 
d="M110 10q-1 -10 -12 -10h-70q-8 0 -8 7v3l107 610q1 10 12 10h70q8 0 8 -7v-3zM167 766q0 -23 -18 -40.5t-41 -17.5q-18 0 -30 11.5t-12 30.5q0 23 18.5 40.5t41.5 17.5q18 0 29.5 -11.5t11.5 -30.5zM324 766q0 -23 -18.5 -40.5t-41.5 -17.5q-18 0 -30 11.5t-12 30.5
q0 23 18.5 40.5t41.5 17.5q18 0 30 -11.5t12 -30.5z" />
    <glyph glyph-name="Igrave" unicode="&#xcc;" horiz-adv-x="240" 
d="M232 699q0 -2 0.5 -2.5t0.5 -2.5q0 -10 -12 -10h-43l-6 3l-105 125q-3 3 -3 7q0 10 13 10h88l7 -5zM110 10q-1 -10 -12 -10h-70q-8 0 -8 7v3l107 610q1 10 12 10h70q8 0 8 -7v-3z" />
    <glyph glyph-name="J" unicode="J" horiz-adv-x="420" 
d="M333 170q-6 -33 -24.5 -65.5t-50.5 -61.5q-59 -53 -130 -53q-51 0 -97 29q-59 38 -59 73q0 4 9 9l68 31q2 1 5 1q4 0 7 -6l13 -22.5t14 -18t19 -12t28 -4.5q19 0 36.5 7t32 19.5t24.5 29t13 34.5l81 460q3 10 12 10h70q8 0 8 -7v-3z" />
    <glyph glyph-name="K" unicode="K" horiz-adv-x="525" 
d="M310 378q-4 -3 -4 -7q0 -3 1 -4l157 -352q1 -2 1 -5q0 -10 -12 -10h-89l-7 5l-129 291q-20 -19 -40 -40.5l-43 -45.5l-35 -200q-1 -10 -12 -10h-70q-8 0 -8 7v3l107 610q1 10 12 10h70q8 0 8 -7v-3l-46 -263v-3q0 -9 7 -9q4 0 10 6l258 275l9 4h83q10 0 10 -6
q0 -5 -5 -10z" />
    <glyph glyph-name="L" unicode="L" horiz-adv-x="455" 
d="M380 10q-1 -10 -12 -10h-340q-8 0 -8 7v3l107 610q1 10 12 10h70q8 0 8 -7v-3l-93 -530v-3q0 -7 8 -7h250q8 0 8 -7v-3z" />
    <glyph glyph-name="M" unicode="M" horiz-adv-x="646" 
d="M516 10q-1 -10 -12 -10h-70q-8 0 -8 7v3l92 443l-205 -357q-5 -5 -10 -6h-40q-6 1 -8 6l-78 354l-68 -440q-1 -10 -12 -10h-69q-8 0 -8 7v3l107 610q1 10 12 10h64q8 -3 8 -6l89 -408l239 408q4 6 10 6h68q8 0 8 -7v-3z" />
    <glyph glyph-name="N" unicode="N" horiz-adv-x="555" 
d="M425 10q-1 -10 -12 -10h-64q-3 0 -8 5l-91 247t-66 198q-39 -226 -56 -338t-30 -112h-70q-8 0 -8 7v3l107 610q1 10 12 10h64l8 -5l92.5 -262l64.5 -188l31.5 192l42.5 253q3 10 12 10h70q8 0 8 -7v-3z" />
    <glyph glyph-name="Ntilde" unicode="&#xd1;" horiz-adv-x="555" 
d="M425 10q-1 -10 -12 -10h-64q-3 0 -8 5l-91 247t-66 198q-39 -226 -56 -338t-30 -112h-70q-8 0 -8 7v3l107 610q1 10 12 10h64l8 -5l92.5 -262l64.5 -188l31.5 192l42.5 253q3 10 12 10h70q8 0 8 -7v-3zM469 775q3 -3 3 -7q0 -2 -2 -6q-23 -35 -49 -51.5t-49 -16.5
q-32 0 -59 26l-17 13q-16 13 -34 13q-12 0 -21.5 -5t-16.5 -11l-12.5 -11t-10.5 -5q-1 0 -5 2l-19 16q-4 3 -4 6q0 8 28 36q37 37 72 37q32 0 59 -24l17 -15q14 -12 34 -12q13 0 23.5 5t18 11.5t12.5 11.5t8 5q5 0 7 -2z" />
    <glyph glyph-name="O" unicode="O" 
d="M386 470q1 4 1 8v8q0 31 -21 52.5t-54 21.5h-30q-38 0 -68.5 -26t-37.5 -64l-55 -310q-1 -4 -1 -8v-8q0 -32 21 -53t54 -21h30q38 0 68.5 26t37.5 64zM421 160q-7 -38 -25 -69t-45.5 -53.5t-63 -35t-76.5 -12.5h-30q-72 0 -112.5 36.5t-40.5 98.5q0 17 3 35l55 310
q7 38 25 69.5t45.5 54t63 34.5t76.5 12h30q72 0 112.5 -36.5t40.5 -98.5q0 -17 -3 -35z" />
    <glyph glyph-name="OE" unicode="&#x152;" horiz-adv-x="765" 
d="M386 470q1 4 1 8v8q0 31 -21 52.5t-54 21.5h-30q-38 0 -68.5 -26t-37.5 -64l-55 -310q-1 -4 -1 -8v-8q0 -32 21 -53t54 -21h30q38 0 68.5 26t37.5 64zM762 560q-1 -10 -12 -10h-262q-11 0 -11 -11q0 -10 1 -18t1 -16q0 -17 -3 -35l-18 -100v-3q0 -7 8 -7h205q9 0 9 -8v-2
l-11 -60q-1 -10 -12 -10h-205q-10 0 -11 -10l-20 -110q-6 -33 -15.5 -51.5t-9.5 -23.5t9 -5h262q8 0 8 -7v-3l-10 -60q-1 -10 -12 -10h-373q-17 -5 -34.5 -7.5t-34.5 -2.5h-30q-72 0 -112.5 36.5t-40.5 98.5q0 17 3 35l55 310q7 38 25 69.5t45.5 54t63 34.5t76.5 12h30
q34 0 61 -10h377q8 0 8 -7v-3z" />
    <glyph glyph-name="Oacute" unicode="&#xd3;" 
d="M386 470q1 4 1 8v8q0 31 -21 52.5t-54 21.5h-30q-38 0 -68.5 -26t-37.5 -64l-55 -310q-1 -4 -1 -8v-8q0 -32 21 -53t54 -21h30q38 0 68.5 26t37.5 64zM421 160q-7 -38 -25 -69t-45.5 -53.5t-63 -35t-76.5 -12.5h-30q-72 0 -112.5 36.5t-40.5 98.5q0 17 3 35l55 310
q7 38 25 69.5t45.5 54t63 34.5t76.5 12h30q72 0 112.5 -36.5t40.5 -98.5q0 -17 -3 -35zM330 688l-8 -3h-43q-9 0 -9 7q0 4 4 8l104 125q2 2 9 5h88q10 0 10 -7q0 -6 -6 -10z" />
    <glyph glyph-name="Ocircumflex" unicode="&#xd4;" 
d="M436 701q2 -4 2 -7q0 -9 -13 -9h-48l-7 5l-32 68q-3 6 -7 6t-8 -6l-55 -68l-9 -5h-48q-10 0 -10 7q0 2 5 9l111 125l9 4h36l7 -4zM386 470q1 4 1 8v8q0 31 -21 52.5t-54 21.5h-30q-38 0 -68.5 -26t-37.5 -64l-55 -310q-1 -4 -1 -8v-8q0 -32 21 -53t54 -21h30
q38 0 68.5 26t37.5 64zM421 160q-7 -38 -25 -69t-45.5 -53.5t-63 -35t-76.5 -12.5h-30q-72 0 -112.5 36.5t-40.5 98.5q0 17 3 35l55 310q7 38 25 69.5t45.5 54t63 34.5t76.5 12h30q72 0 112.5 -36.5t40.5 -98.5q0 -17 -3 -35z" />
    <glyph glyph-name="Odieresis" unicode="&#xd6;" 
d="M386 470q1 4 1 8v8q0 31 -21 52.5t-54 21.5h-30q-38 0 -68.5 -26t-37.5 -64l-55 -310q-1 -4 -1 -8v-8q0 -32 21 -53t54 -21h30q38 0 68.5 26t37.5 64zM421 160q-7 -38 -25 -69t-45.5 -53.5t-63 -35t-76.5 -12.5h-30q-72 0 -112.5 36.5t-40.5 98.5q0 17 3 35l55 310
q7 38 25 69.5t45.5 54t63 34.5t76.5 12h30q72 0 112.5 -36.5t40.5 -98.5q0 -17 -3 -35zM303 766q0 -23 -18 -40.5t-41 -17.5q-18 0 -30 11.5t-12 30.5q0 23 18.5 40.5t41.5 17.5q18 0 29.5 -11.5t11.5 -30.5zM460 766q0 -23 -18.5 -40.5t-41.5 -17.5q-18 0 -30 11.5
t-12 30.5q0 23 18.5 40.5t41.5 17.5q18 0 30 -11.5t12 -30.5z" />
    <glyph glyph-name="Ograve" unicode="&#xd2;" 
d="M369 699q0 -2 0.5 -2.5t0.5 -2.5q0 -10 -12 -10h-43l-6 3l-105 125q-3 3 -3 7q0 10 13 10h88l7 -5zM386 470q1 4 1 8v8q0 31 -21 52.5t-54 21.5h-30q-38 0 -68.5 -26t-37.5 -64l-55 -310q-1 -4 -1 -8v-8q0 -32 21 -53t54 -21h30q38 0 68.5 26t37.5 64zM421 160
q-7 -38 -25 -69t-45.5 -53.5t-63 -35t-76.5 -12.5h-30q-72 0 -112.5 36.5t-40.5 98.5q0 17 3 35l55 310q7 38 25 69.5t45.5 54t63 34.5t76.5 12h30q72 0 112.5 -36.5t40.5 -98.5q0 -17 -3 -35z" />
    <glyph glyph-name="Oslash" unicode="&#xd8;" 
d="M386 468q1 3 1 10q0 8 -1 13l-238 -394q-2 -3 -2 -6q0 -6 13.5 -13.5t35.5 -7.5h30q38 0 68.5 26t37.5 64zM362 530q2 4 2 6q0 8 -14.5 16t-37.5 8h-30q-38 0 -68.5 -26t-37.5 -64l-55 -312v-4q0 -5 4 -5q6 0 9 6zM421 160q-7 -38 -25 -69t-45.5 -53.5t-63 -35
t-76.5 -12.5h-30q-72 0 -112.5 36.5t-40.5 98.5q0 17 3 35l55 310q7 38 25 69.5t45.5 54t63 34.5t76.5 12h30q72 0 112.5 -36.5t40.5 -98.5q0 -17 -3 -35z" />
    <glyph glyph-name="Otilde" unicode="&#xd5;" 
d="M386 470q1 4 1 8v8q0 31 -21 52.5t-54 21.5h-30q-38 0 -68.5 -26t-37.5 -64l-55 -310q-1 -4 -1 -8v-8q0 -32 21 -53t54 -21h30q38 0 68.5 26t37.5 64zM421 160q-7 -38 -25 -69t-45.5 -53.5t-63 -35t-76.5 -12.5h-30q-72 0 -112.5 36.5t-40.5 98.5q0 17 3 35l55 310
q7 38 25 69.5t45.5 54t63 34.5t76.5 12h30q72 0 112.5 -36.5t40.5 -98.5q0 -17 -3 -35zM473 775q3 -3 3 -7q0 -2 -2 -6q-23 -35 -49 -51.5t-49 -16.5q-32 0 -59 26l-17 13q-16 13 -34 13q-12 0 -21.5 -5t-16.5 -11l-12.5 -11t-10.5 -5q-1 0 -5 2l-19 16q-4 3 -4 6q0 8 28 36
q37 37 72 37q32 0 59 -24l17 -15q14 -12 34 -12q13 0 23.5 5t18 11.5t12.5 11.5t8 5q5 0 7 -2z" />
    <glyph glyph-name="P" unicode="P" horiz-adv-x="485" 
d="M399 460q1 5 1.5 8.5t0.5 8.5q0 30 -21.5 51.5t-54.5 21.5h-110q-11 0 -12 -10l-30 -170v-3q0 -7 8 -7h110q18 0 35.5 6.5t31.5 18.5t24.5 28.5t14.5 36.5zM339 630q72 0 112 -37.5t40 -103.5q0 -58 -31 -111q-26 -45 -75 -71.5t-108 -26.5h-110q-10 0 -11 -10l-46 -260
q-1 -10 -12 -10h-70q-8 0 -8 7v3l107 610q1 10 12 10h200z" />
    <glyph glyph-name="Q" unicode="Q" 
d="M386 470q1 4 1 8v8q0 31 -21 52.5t-54 21.5h-30q-38 0 -68.5 -26t-37.5 -64l-55 -310q-1 -5 -1 -14q0 -28 14 -48t31 -20q7 0 9 10l7 41q1 10 12 10h60q8 0 8 -7v-3l-7 -41v-4q0 -6 4 -6q10 0 21.5 6.5t22 17.5t18.5 26t11 32zM421 160q-10 -63 -59 -113
q-10 -11 -24.5 -20.5t-30.5 -17.5t-32.5 -12.5t-29.5 -4.5q-4 0 -6.5 -1t-3.5 -9l-11 -62q-1 -10 -12 -10h-60q-8 0 -8 7v3l11 62v1q0 8 -15.5 12t-44.5 14q-27 9 -47 40.5t-20 76.5q0 16 3 34l55 310q7 38 25 69.5t45.5 54t63 34.5t76.5 12h30q72 0 112.5 -36.5t40.5 -98.5
q0 -17 -3 -35z" />
    <glyph glyph-name="R" unicode="R" 
d="M399 460q1 5 1.5 8.5t0.5 8.5q0 30 -21.5 51.5t-54.5 21.5h-110q-11 0 -12 -10l-30 -170v-3q0 -7 8 -7h110q18 0 35.5 6.5t31.5 18.5t24.5 28.5t14.5 36.5zM486 440q-2 -26 -22 -56.5t-55 -57.5q-17 -13 -29 -18t-12 -12v-3l47 -280v-2q0 -11 -11 -11h-77q-4 0 -8 7
l-46 267l-7 6h-99q-10 0 -11 -10l-46 -260q-1 -10 -12 -10h-70q-8 0 -8 7v3l107 610q1 10 12 10h200q73 0 111 -38.5t38 -112.5v-14t-1 -15z" />
    <glyph glyph-name="S" unicode="S" horiz-adv-x="440" 
d="M292 640q33 0 60.5 -8.5t47 -22.5t30 -31.5t10.5 -35.5q0 -8 -7 -11l-70 -32q-2 -1 -5 -1q-4 0 -7 6q-14 25 -28 40.5t-45 15.5h-16q-20 0 -39.5 -8.5t-34.5 -22.5t-24 -32t-9 -38q0 -32 24 -50t69 -41q35 -17 62 -34.5t45 -37t27 -42.5t9 -53q0 -46 -16 -84.5
t-44.5 -66.5t-67.5 -44t-86 -16h-42q-35 0 -62.5 9.5t-46.5 24.5t-28.5 33t-9.5 35q0 5 7 8l68 32q4 2 6 2q4 0 7 -7q21 -57 73 -57h42q21 0 40.5 8.5t34 23t23.5 34t9 40.5q0 28 -18.5 48.5t-56.5 40.5l-64.5 34t-51 34t-33.5 41t-12 55q0 46 16 84.5t44.5 66.5t67.5 44
t86 16h16z" />
    <glyph glyph-name="T" unicode="T" horiz-adv-x="400" 
d="M422 560q-1 -10 -12 -10h-115q-11 0 -12 -10l-93 -530q-1 -10 -12 -10h-70q-8 0 -8 7v3l93 530v3q0 7 -8 7h-115q-8 0 -8 7v3l10 60q3 10 12 10h340q8 0 8 -7v-3z" />
    <glyph glyph-name="U" unicode="U" 
d="M421 160q-7 -38 -25 -69.5t-45.5 -54t-63 -34.5t-76.5 -12h-30q-72 0 -112.5 37t-40.5 98q0 17 3 35l81 460q1 10 12 10h70q8 0 8 -7v-3l-81 -460q-1 -4 -1 -8v-8q0 -32 21 -53t54 -21h30q38 0 68.5 26t37.5 64l81 460q1 10 12 10h70q8 0 8 -7v-3z" />
    <glyph glyph-name="Uacute" unicode="&#xda;" 
d="M421 160q-7 -38 -25 -69.5t-45.5 -54t-63 -34.5t-76.5 -12h-30q-72 0 -112.5 37t-40.5 98q0 17 3 35l81 460q1 10 12 10h70q8 0 8 -7v-3l-81 -460q-1 -4 -1 -8v-8q0 -32 21 -53t54 -21h30q38 0 68.5 26t37.5 64l81 460q1 10 12 10h70q8 0 8 -7v-3zM331 688l-8 -3h-43
q-9 0 -9 7q0 4 4 8l104 125q2 2 9 5h88q10 0 10 -7q0 -6 -6 -10z" />
    <glyph glyph-name="Ucircumflex" unicode="&#xdb;" 
d="M437 701q2 -4 2 -7q0 -9 -13 -9h-48l-7 5l-32 68q-3 6 -7 6t-8 -6l-55 -68l-9 -5h-48q-10 0 -10 7q0 2 5 9l111 125l9 4h36l7 -4zM421 160q-7 -38 -25 -69.5t-45.5 -54t-63 -34.5t-76.5 -12h-30q-72 0 -112.5 37t-40.5 98q0 17 3 35l81 460q1 10 12 10h70q8 0 8 -7v-3
l-81 -460q-1 -4 -1 -8v-8q0 -32 21 -53t54 -21h30q38 0 68.5 26t37.5 64l81 460q1 10 12 10h70q8 0 8 -7v-3z" />
    <glyph glyph-name="Udieresis" unicode="&#xdc;" 
d="M421 160q-7 -38 -25 -69.5t-45.5 -54t-63 -34.5t-76.5 -12h-30q-72 0 -112.5 37t-40.5 98q0 17 3 35l81 460q1 10 12 10h70q8 0 8 -7v-3l-81 -460q-1 -4 -1 -8v-8q0 -32 21 -53t54 -21h30q38 0 68.5 26t37.5 64l81 460q1 10 12 10h70q8 0 8 -7v-3zM304 766
q0 -23 -18 -40.5t-41 -17.5q-18 0 -30 11.5t-12 30.5q0 23 18.5 40.5t41.5 17.5q18 0 29.5 -11.5t11.5 -30.5zM461 766q0 -23 -18.5 -40.5t-41.5 -17.5q-18 0 -30 11.5t-12 30.5q0 23 18.5 40.5t41.5 17.5q18 0 30 -11.5t12 -30.5z" />
    <glyph glyph-name="Ugrave" unicode="&#xd9;" 
d="M370 699q0 -2 0.5 -2.5t0.5 -2.5q0 -10 -12 -10h-43l-6 3l-105 125q-3 3 -3 7q0 10 13 10h88l7 -5zM421 160q-7 -38 -25 -69.5t-45.5 -54t-63 -34.5t-76.5 -12h-30q-72 0 -112.5 37t-40.5 98q0 17 3 35l81 460q1 10 12 10h70q8 0 8 -7v-3l-81 -460q-1 -4 -1 -8v-8
q0 -32 21 -53t54 -21h30q38 0 68.5 26t37.5 64l81 460q1 10 12 10h70q8 0 8 -7v-3z" />
    <glyph glyph-name="V" unicode="V" horiz-adv-x="450" 
d="M206 7q-3 -7 -11 -7h-54q-8 0 -9 7l-78 610v3q0 10 12 10h73q9 0 9 -7l44 -470l214 470q3 7 11 7h75q10 0 10 -7q0 -2 -2 -6z" />
    <glyph glyph-name="W" unicode="W" horiz-adv-x="667" 
d="M468 8q-3 -8 -11 -8h-54q-9 0 -9 7l-40 432l-193 -432q-3 -7 -11 -7h-54q-8 0 -9 8l-24 610q0 12 12 12h73q9 0 9 -8l4 -458l200 459q3 8 7 8q1 0 2 -0.5t2 -0.5h31q9 0 9 -7l37 -459l167 458q3 8 11 8h73q9 0 9 -7q0 -3 -1 -5z" />
    <glyph glyph-name="X" unicode="X" horiz-adv-x="459" 
d="M294 320l-1 -9l96 -297q1 -2 1 -4q0 -10 -12 -10h-87l-8 6l-61 211q-2 8 -8 8q-5 0 -10 -8l-140 -211q-6 -6 -10 -6h-86q-9 0 -9 6q0 1 0.5 3.5t2.5 5.5l203 296l1 9l-99 295q-1 2 -1 5q0 10 13 10h85q3 0 8 -6l66 -214q2 -8 9 -8q4 0 9 8l137 214q1 2 10 6h86q9 0 9 -7
q0 -5 -2 -7z" />
    <glyph glyph-name="Y" unicode="Y" horiz-adv-x="450" 
d="M264 289l-49 -279q-1 -10 -12 -10h-70q-8 0 -8 7v3l49 279l-117 326q-1 2 -1 5q0 10 13 10h82q3 0 8 -6l70 -228q3 -7 7 -7q7 0 11 7l150 228q6 5 10 6h82q10 0 10 -6q0 -3 -1 -5t-3 -4z" />
    <glyph glyph-name="Ydieresis" unicode="&#x178;" horiz-adv-x="450" 
d="M271 766q0 -23 -18 -40.5t-41 -17.5q-18 0 -30 11.5t-12 30.5q0 23 18.5 40.5t41.5 17.5q18 0 29.5 -11.5t11.5 -30.5zM428 766q0 -23 -18.5 -40.5t-41.5 -17.5q-18 0 -30 11.5t-12 30.5q0 23 18.5 40.5t41.5 17.5q18 0 30 -11.5t12 -30.5zM264 289l-49 -279
q-1 -10 -12 -10h-70q-8 0 -8 7v3l49 279l-117 326q-1 2 -1 5q0 10 13 10h82q3 0 8 -6l70 -228q3 -7 7 -7q7 0 11 7l150 228q6 5 10 6h82q10 0 10 -6q0 -3 -1 -5t-3 -4z" />
    <glyph glyph-name="Z" unicode="Z" horiz-adv-x="440" 
d="M119 94q-3 -5 -3 -8q0 -6 9 -6h222q8 0 8 -7v-3l-10 -60q-1 -10 -12 -10h-356q-9 0 -9 7q0 4 2 7l327 522q3 4 3 7q0 7 -10 7h-200q-8 0 -8 7v3l10 60q3 10 12 10h335q9 0 9 -7q0 -4 -2 -7z" />
    <glyph glyph-name="a" unicode="a" horiz-adv-x="475" 
d="M312 280q1 5 1 15q0 32 -21 53.5t-54 21.5q-20 0 -37.5 -7.5t-32 -19.5t-24 -28.5t-12.5 -34.5l-19 -110q-1 -5 -1 -15q0 -32 21 -53.5t54 -21.5q19 0 37 7t32.5 19.5t24 29t12.5 34.5zM355 10q-1 -10 -12 -10h-60q-8 0 -8 7v3l2 12v3q0 9 -7 9q-4 0 -12 -5.5
t-20.5 -11.5t-30.5 -11.5t-41 -5.5q-66 0 -106 37t-40 100q0 16 3 33l19 110q6 37 24.5 68.5t45.5 54t61.5 35t72.5 12.5q21 0 36.5 -5t26.5 -11.5t18 -11.5t12 -5q6 0 9 11l3 12q2 5 3.5 7.5t7.5 2.5h60q9 0 9 -8v-2z" />
    <glyph glyph-name="aacute" unicode="&#xe1;" horiz-adv-x="475" 
d="M312 280q1 5 1 15q0 32 -21 53.5t-54 21.5q-20 0 -37.5 -7.5t-32 -19.5t-24 -28.5t-12.5 -34.5l-19 -110q-1 -5 -1 -15q0 -32 21 -53.5t54 -21.5q19 0 37 7t32.5 19.5t24 29t12.5 34.5zM355 10q-1 -10 -12 -10h-60q-8 0 -8 7v3l2 12v3q0 9 -7 9q-4 0 -12 -5.5
t-20.5 -11.5t-30.5 -11.5t-41 -5.5q-66 0 -106 37t-40 100q0 16 3 33l19 110q6 37 24.5 68.5t45.5 54t61.5 35t72.5 12.5q21 0 36.5 -5t26.5 -11.5t18 -11.5t12 -5q6 0 9 11l3 12q2 5 3.5 7.5t7.5 2.5h60q9 0 9 -8v-2zM285 508l-8 -3h-43q-9 0 -9 7q0 4 4 8l104 125q2 2 9 5
h88q10 0 10 -7q0 -6 -6 -10z" />
    <glyph glyph-name="acircumflex" unicode="&#xe2;" horiz-adv-x="475" 
d="M390 521q2 -4 2 -7q0 -9 -13 -9h-48l-7 5l-32 68q-3 6 -7 6t-8 -6l-55 -68l-9 -5h-48q-10 0 -10 7q0 2 5 9l111 125l9 4h36l7 -4zM312 280q1 5 1 15q0 32 -21 53.5t-54 21.5q-20 0 -37.5 -7.5t-32 -19.5t-24 -28.5t-12.5 -34.5l-19 -110q-1 -5 -1 -15q0 -32 21 -53.5
t54 -21.5q19 0 37 7t32.5 19.5t24 29t12.5 34.5zM355 10q-1 -10 -12 -10h-60q-8 0 -8 7v3l2 12v3q0 9 -7 9q-4 0 -12 -5.5t-20.5 -11.5t-30.5 -11.5t-41 -5.5q-66 0 -106 37t-40 100q0 16 3 33l19 110q6 37 24.5 68.5t45.5 54t61.5 35t72.5 12.5q21 0 36.5 -5t26.5 -11.5
t18 -11.5t12 -5q6 0 9 11l3 12q2 5 3.5 7.5t7.5 2.5h60q9 0 9 -8v-2z" />
    <glyph glyph-name="acute" unicode="&#xb4;" horiz-adv-x="500" 
d="M297 508l-8 -3h-43q-9 0 -9 7q0 4 4 8l104 125q2 2 9 5h88q10 0 10 -7q0 -6 -6 -10z" />
    <glyph glyph-name="adieresis" unicode="&#xe4;" horiz-adv-x="475" 
d="M312 280q1 5 1 15q0 32 -21 53.5t-54 21.5q-20 0 -37.5 -7.5t-32 -19.5t-24 -28.5t-12.5 -34.5l-19 -110q-1 -5 -1 -15q0 -32 21 -53.5t54 -21.5q19 0 37 7t32.5 19.5t24 29t12.5 34.5zM355 10q-1 -10 -12 -10h-60q-8 0 -8 7v3l2 12v3q0 9 -7 9q-4 0 -12 -5.5
t-20.5 -11.5t-30.5 -11.5t-41 -5.5q-66 0 -106 37t-40 100q0 16 3 33l19 110q6 37 24.5 68.5t45.5 54t61.5 35t72.5 12.5q21 0 36.5 -5t26.5 -11.5t18 -11.5t12 -5q6 0 9 11l3 12q2 5 3.5 7.5t7.5 2.5h60q9 0 9 -8v-2zM258 586q0 -23 -18 -40.5t-41 -17.5q-18 0 -30 11.5
t-12 30.5q0 23 18.5 40.5t41.5 17.5q18 0 29.5 -11.5t11.5 -30.5zM415 586q0 -23 -18.5 -40.5t-41.5 -17.5q-18 0 -30 11.5t-12 30.5q0 23 18.5 40.5t41.5 17.5q18 0 30 -11.5t12 -30.5z" />
    <glyph glyph-name="ae" unicode="&#xe6;" horiz-adv-x="730" 
d="M293 172q0 8 -8 8h-125q-18 0 -33.5 -13t-19.5 -32l-4 -20q-1 -3 -1 -8q0 -16 10.5 -26.5t27.5 -10.5h50q48 0 96 70l5 20l2 10v2zM572 280q14 0 14 27q0 31 -22 51t-54 20q-20 0 -39 -8.5t-34 -21.5t-24 -29t-9 -32q0 -7 8 -7h160zM662 220q-1 -10 -12 -10h-250
q-11 0 -12 -10l-7 -40q-1 -4 -1 -8v-8q0 -32 21 -53t54 -21q39 0 66 27q17 16 24.5 26.5t12.5 10.5q2 0 6 -2l58 -32q4 -2 4 -6q0 -5 -16.5 -27.5t-54.5 -47.5q-20 -13 -49.5 -21t-64.5 -8q-43 0 -74 13t-56 44q-5 5 -7 5q-5 0 -13 -9.5t-24 -19.5q-53 -33 -91 -33h-50
q-54 0 -84.5 27.5t-30.5 72.5v12.5t2 12.5l4 20q11 52 51.5 83.5t103.5 31.5h125q11 0 12 10l5 28q1 4 1 8v8q0 31 -21 52.5t-54 21.5q-17 0 -30 -4.5t-23.5 -12t-20 -18l-19.5 -21.5q-6 -6 -10 -6q-3 0 -5 1l-57 32q-5 3 -5 7q0 8 16.5 28.5t54.5 44.5q20 13 49 21t64 8
q38 0 67.5 -10.5t54.5 -36.5q6 -4 7 -4q3 0 7 4q33 25 66 36t68 11q34 0 62 -11t48 -30t31 -44.5t11 -55.5v-13.5t-2 -13.5z" />
    <glyph glyph-name="agrave" unicode="&#xe0;" horiz-adv-x="475" 
d="M323 519q0 -2 0.5 -2.5t0.5 -2.5q0 -10 -12 -10h-43l-6 3l-105 125q-3 3 -3 7q0 10 13 10h88l7 -5zM312 280q1 5 1 15q0 32 -21 53.5t-54 21.5q-20 0 -37.5 -7.5t-32 -19.5t-24 -28.5t-12.5 -34.5l-19 -110q-1 -5 -1 -15q0 -32 21 -53.5t54 -21.5q19 0 37 7t32.5 19.5
t24 29t12.5 34.5zM355 10q-1 -10 -12 -10h-60q-8 0 -8 7v3l2 12v3q0 9 -7 9q-4 0 -12 -5.5t-20.5 -11.5t-30.5 -11.5t-41 -5.5q-66 0 -106 37t-40 100q0 16 3 33l19 110q6 37 24.5 68.5t45.5 54t61.5 35t72.5 12.5q21 0 36.5 -5t26.5 -11.5t18 -11.5t12 -5q6 0 9 11l3 12
q2 5 3.5 7.5t7.5 2.5h60q9 0 9 -8v-2z" />
    <glyph glyph-name="ampersand" unicode="&#x26;" horiz-adv-x="620" 
d="M326 139q-26 44 -57 76.5t-70 55.5l-10 1q-55 -33 -63 -82l-5 -30q-1 -5 -1 -15q0 -32 21 -53.5t54 -21.5h30q53 0 100 60zM356 470q1 5 1.5 8.5t0.5 8.5q0 30 -21.5 51.5t-54.5 21.5q-21 0 -40.5 -9t-34.5 -23.5t-23.5 -33.5t-8.5 -39q0 -26 17.5 -49.5t52.5 -49.5
q93 24 107 94zM592 280q-1 -10 -11 -10h-26q-18 0 -35.5 -7t-32 -19t-24.5 -28.5t-14 -35.5l-4 -20l2 -7q25 -34 52 -48t50 -24q7 -3 7 -10l-13 -70q-1 -10 -13 -10q-39 0 -73.5 17t-69.5 52q-5 3 -7 3q-3 0 -8 -5l-32 -28t-31 -20q-24 -10 -48 -15t-50 -5h-30
q-72 0 -111.5 36.5t-39.5 102.5q0 18 3 39l4 25q3 17 14.5 39t31.5 47q16 20 30.5 28.5t14.5 14.5q0 5 -5.5 12l-13.5 18l-18.5 29.5t-9.5 44.5q0 45 16 84t44.5 68t68 45.5t86.5 16.5q72 0 111.5 -37.5t39.5 -105.5q0 -18 -3 -37l-3 -20q-3 -20 -16.5 -43.5t-36.5 -46.5
q-11 -11 -22 -18t-20 -11.5t-14.5 -8t-5.5 -7.5q0 -8 7.5 -14t15.5 -16q13 -14 20.5 -24.5t13.5 -10.5q2 0 9 9l35.5 48t38.5 34q51 29 112 29h18q9 0 9 -8v-2z" />
    <glyph glyph-name="aring" unicode="&#xe5;" horiz-adv-x="475" 
d="M330 620q0 2 0.5 3t0.5 3q0 13 -9 22t-23 9q-16 0 -29 -11.5t-16 -27.5l-6 -29q0 -2 -0.5 -3.5t-0.5 -3.5q0 -13 8.5 -21.5t22.5 -8.5q17 0 29.5 11t16.5 28zM376 589q-8 -38 -36 -61.5t-68 -23.5q-37 0 -57.5 18.5t-20.5 50.5q0 5 0.5 9t1.5 9l5 29q6 37 34.5 60.5
t70.5 23.5q36 0 57 -19t21 -49q0 -5 -0.5 -9t-1.5 -9zM312 280q1 5 1 15q0 32 -21 53.5t-57 21.5q-18 0 -35 -7.5t-31.5 -19.5t-24 -28.5t-12.5 -34.5l-19 -110q-1 -5 -1 -15q0 -32 21 -53.5t54 -21.5q19 0 37 7t32.5 19.5t24 29t12.5 34.5zM355 10q-1 -10 -12 -10h-60
q-8 0 -8 7v3l2 12v3q0 9 -7 9q-4 0 -12 -5.5t-20.5 -11.5t-30.5 -11.5t-41 -5.5q-66 0 -106 37t-40 100q0 16 3 33l19 110q6 37 24.5 68.5t45.5 54t61.5 35t72.5 12.5q21 0 36.5 -5t26.5 -11.5t18 -11.5t12 -5q6 0 9 11l3 12q2 5 3.5 7.5t7.5 2.5h60q9 0 9 -8v-2z" />
    <glyph glyph-name="asciicircum" unicode="^" horiz-adv-x="751" 
d="M380 516q-34 44 -78 44q-19 0 -37 -7t-32 -19t-24 -28.5t-13 -35.5l-10 -55v-3q0 -7 8 -7h153q11 0 12 10l8 45q2 13 5.5 25t8.5 23zM566 569q-1 -5 -3 -6.5t-6 -3.5l-35 -14.5t-29 -16t-21.5 -23.5t-12.5 -35l-10 -55v-3q0 -7 8 -7h70q9 0 9 -8v-2l-11 -60
q-1 -10 -12 -10h-70q-10 0 -11 -10l-58 -325q-6 -34 -25 -66.5t-50 -60.5q-59 -53 -136 -53q-53 0 -53 10q0 4 2 7l31 58q4 7 11 7q6 -1 12 -1.5t11 -0.5q38 0 68 26t37 64l60 335v2q0 8 -9 8h-153q-10 0 -11 -10l-66 -370q-12 -70 -75 -127q-58 -53 -137 -53q-51 0 -51 10
q0 4 2 7l30 58q4 7 11 7q3 0 8.5 -1t14.5 -1q38 0 68.5 26.5t37.5 63.5l67 380v2q0 8 -9 8h-25q-8 0 -8 7v3l11 60q1 10 11 10h25q11 0 12 10l8 45q7 38 26.5 71t48.5 57t65.5 38t77.5 14q56 0 88 -23q15 -11 22.5 -18t9.5 -7q6 0 17 7.5t26 16.5t33.5 16.5t40.5 7.5
q18 0 18 -8v-3zM638 10q-1 -10 -12 -10h-70q-8 0 -8 7v3l76 430q1 10 11 10h70q9 0 9 -8v-2zM750 594q0 -26 -19.5 -45t-46.5 -19q-20 0 -33 13t-13 33q0 26 20 45t46 19q21 0 33.5 -12.5t12.5 -33.5z" />
    <glyph glyph-name="asciitilde" unicode="~" horiz-adv-x="548" 
d="M380 516q-34 44 -78 44q-19 0 -37 -7t-32 -19t-24 -28.5t-13 -35.5l-10 -55v-3q0 -7 8 -7h153q11 0 12 10l8 45q2 13 5.5 25t8.5 23zM600 565q-4 -7 -12 -7q-8 1 -14 1.5t-9 0.5q-19 0 -37 -7t-32 -19.5t-24 -29t-13 -34.5l-10 -55v-3q0 -7 8 -7h70q9 0 9 -8v-2l-11 -60
q-1 -10 -12 -10h-70q-10 0 -11 -10l-58 -325q-6 -34 -25 -66.5t-50 -60.5q-59 -53 -136 -53q-53 0 -53 10q0 4 2 7l31 58q4 7 11 7q6 -1 12 -1.5t11 -0.5q38 0 68 26t37 64l60 335v2q0 8 -9 8h-153q-10 0 -11 -10l-66 -370q-12 -70 -75 -127q-58 -53 -137 -53q-51 0 -51 10
q0 4 2 7l30 58q4 7 11 7q3 0 8.5 -1t14.5 -1q38 0 68.5 26.5t37.5 63.5l67 380v2q0 8 -9 8h-25q-8 0 -8 7v3l11 60q1 10 11 10h25q11 0 12 10l8 45q7 38 26.5 71t48.5 57t65.5 38t77.5 14q54 0 87 -23q15 -11 23 -18t10 -7q5 0 21.5 9.5l45.5 26.5q10 5 27.5 8.5t42.5 3.5
q53 0 53 -11q0 -2 -2 -6z" />
    <glyph glyph-name="asterisk" unicode="*" horiz-adv-x="388" 
d="M404 584q1 -2 1 -4q0 -7 -9 -10l-101 -41q-9 -3 -9 -9t6 -9l87 -40q6 -3 6 -7q0 -3 -3 -7l-34 -44q-4 -5 -9 -5t-7 2l-73 57q-3 3 -7 3q-10 0 -10 -12l-6 -100q0 -11 -12 -11h-52q-9 0 -9 7q0 1 0.5 2t0.5 2l30 100q1 2 1 5q0 7 -7 7q-3 0 -9 -3l-90 -57q-5 -3 -7 -3
q-6 0 -7 6l-18 45q0 1 -0.5 2t-0.5 2q0 7 8 10l99 39q9 3 9 9t-6 9l-85 41q-5 3 -5 7q0 2 3 7l34 44q4 6 7 6q5 0 8 -3l69 -59q3 -3 8 -3q7 0 9 12l7 99q2 11 12 11h52q9 0 9 -7q0 -1 -0.5 -2t-0.5 -2l-29 -99q0 -1 -0.5 -2t-0.5 -2q0 -8 8 -8q3 0 8 3l92 59q4 3 7 3
q6 0 8 -6z" />
    <glyph glyph-name="at" unicode="@" horiz-adv-x="720" 
d="M432 352q1 4 1 11q0 23 -15 38t-41 15q-28 0 -51 -20t-28 -48l-12 -65q-1 -4 -1 -12q0 -23 15 -38t39 -15q29 0 52.5 20.5t28.5 48.5zM451 461q4 18 21 18h23q18 0 18 -17v-4l-38 -208v-6q0 -11 7 -18.5t20 -7.5h12q14 0 26.5 10.5t14.5 25.5l36 203q1 6 1.5 12t0.5 11
q0 41 -26.5 64t-74.5 23h-175q-57 0 -95 -31t-47 -82l-49 -281q-1 -6 -1.5 -12t-0.5 -11q0 -41 26.5 -64t74.5 -23h252q18 0 18 -22q0 -41 -26 -41h-251q-74 0 -116 38.5t-42 102.5q0 17 3 35l49 281q7 39 25.5 70.5t46 54.5t63.5 35.5t78 12.5h174q156 0 156 -157
q0 -59 -30 -198q-13 -62 -41 -91t-78 -29h-13q-46 0 -74 34q-25 -17 -47.5 -25.5t-45.5 -8.5q-48 0 -76.5 27.5t-28.5 72.5q0 6 0.5 12t1.5 12l13 80q4 25 17 47t31.5 38.5t42.5 25.5t50 9q39 0 72 -23v-2z" />
    <glyph glyph-name="atilde" unicode="&#xe3;" horiz-adv-x="475" 
d="M312 280q1 5 1 15q0 32 -21 53.5t-54 21.5q-20 0 -37.5 -7.5t-32 -19.5t-24 -28.5t-12.5 -34.5l-19 -110q-1 -5 -1 -15q0 -32 21 -53.5t54 -21.5q19 0 37 7t32.5 19.5t24 29t12.5 34.5zM355 10q-1 -10 -12 -10h-60q-8 0 -8 7v3l2 12v3q0 9 -7 9q-4 0 -12 -5.5
t-20.5 -11.5t-30.5 -11.5t-41 -5.5q-66 0 -106 37t-40 100q0 16 3 33l19 110q6 37 24.5 68.5t45.5 54t61.5 35t72.5 12.5q21 0 36.5 -5t26.5 -11.5t18 -11.5t12 -5q6 0 9 11l3 12q2 5 3.5 7.5t7.5 2.5h60q9 0 9 -8v-2zM428 595q3 -3 3 -7q0 -2 -2 -6q-23 -35 -49 -51.5
t-49 -16.5q-32 0 -59 26l-17 13q-16 13 -34 13q-12 0 -21.5 -5t-16.5 -11l-12.5 -11t-10.5 -5q-1 0 -5 2l-19 16q-4 3 -4 6q0 8 28 36q37 37 72 37q32 0 59 -24l17 -15q14 -12 34 -12q13 0 23.5 5t18 11.5t12.5 11.5t8 5q5 0 7 -2z" />
    <glyph glyph-name="b" unicode="b" horiz-adv-x="475" 
d="M327 280q1 5 1 15q0 32 -21 53.5t-57 21.5q-18 0 -35 -7.5t-31.5 -19.5t-24 -28.5t-12.5 -34.5l-19 -110q-1 -5 -1 -15q0 -32 21 -53.5t54 -21.5q19 0 37 7t32.5 19.5t24 29t12.5 34.5zM398 170q-6 -38 -24.5 -69t-45.5 -53.5t-61 -35t-73 -12.5q-21 0 -36.5 5
t-26.5 11.5t-18.5 11.5t-12.5 5q-6 0 -8 -11l-2 -12q-1 -10 -12 -10h-60q-8 0 -8 7v3l107 610q3 10 12 10h70q8 0 8 -7v-3l-34 -192v-3q0 -9 6 -9q4 0 12.5 5.5t21 11.5t28.5 11.5t36 5.5q65 0 104 -38.5t39 -99.5q0 -16 -3 -32z" />
    <glyph glyph-name="backslash" unicode="\" horiz-adv-x="325" 
d="M216 0q-10 0 -12 10l-146 600q0 2 -0.5 3t-0.5 2q0 15 16 15h33q10 0 12 -10l146 -600q0 -2 0.5 -2.5t0.5 -2.5q0 -15 -16 -15h-33z" />
    <glyph glyph-name="bar" unicode="|" horiz-adv-x="761" 
d="M382 511q-31 49 -80 49q-19 0 -37 -7t-32 -19t-24 -28.5t-13 -35.5l-10 -55v-3q0 -7 8 -7h153q11 0 12 10l6 35q4 30 16 53zM641 10q-1 -10 -12 -10h-70q-8 0 -8 7v3l93 530v3q0 7 -8 7h-73q-38 0 -68.5 -26t-37.5 -64l-8 -45v-3q0 -7 8 -7h70q9 0 9 -8v-2l-11 -60
q-1 -10 -12 -10h-70q-10 0 -11 -10l-58 -325q-6 -34 -25 -66.5t-50 -60.5q-59 -53 -136 -53q-53 0 -53 10q0 4 2 7l31 58q4 7 11 7q6 -1 12 -1.5t11 -0.5q38 0 68 26t37 64l60 335v2q0 8 -9 8h-153q-10 0 -11 -10l-66 -370q-12 -70 -75 -127q-58 -53 -137 -53q-51 0 -51 10
q0 4 2 7l30 58q4 7 11 7q3 0 8.5 -1t14.5 -1q38 0 68.5 26.5t37.5 63.5l67 380v2q0 8 -9 8h-25q-8 0 -8 7v3l11 60q1 10 11 10h25q11 0 12 10l8 45q7 38 26.5 71t48 57t64 38t73.5 14q26 0 47 -4t34 -11q23 -12 34.5 -25.5t16.5 -13.5q4 0 14 7t26.5 15t38.5 15t50 7h163
q8 0 8 -7v-3z" />
    <glyph glyph-name="braceleft" unicode="{" horiz-adv-x="360" 
d="M329 659q-1 -6 -3.5 -7t-6.5 -3l-36 -15t-28.5 -17t-21 -23.5t-11.5 -33.5l-29 -165q-2 -14 -10 -31t-21 -32q-24 -29 -41.5 -41t-17.5 -17t7.5 -12.5t15.5 -18.5q12 -16 18 -37t6 -41v-9t-1 -8l-28 -158q-1 -4 -1 -8v-8q0 -27 17.5 -46.5t50.5 -26.5q6 -3 6 -8v-2
l-11 -60q-2 -7 -6 -8.5t-14 -1.5q-27 0 -51.5 10t-42.5 28t-29 43t-11 55q0 23 4 43l26 145q1 5 1.5 10t0.5 9q0 29 -18.5 42.5t-50.5 27.5q-6 3 -6 7v3l11 62q1 6 3.5 7t6.5 3q19 7 35 14.5t28.5 17t21 23t12.5 34.5l26 145q7 39 24 71t43 55q28 25 63 39t61 14q19 0 19 -7
v-3z" />
    <glyph glyph-name="braceright" unicode="}" horiz-adv-x="360" 
d="M346 244q-1 -5 -3.5 -6.5t-6.5 -3.5l-35 -14.5t-28.5 -16.5t-21 -23.5t-12.5 -34.5l-26 -145q-8 -41 -27 -74t-45.5 -56.5t-57.5 -36t-62 -12.5q-18 0 -18 7v3l11 60q1 5 3.5 6.5t6.5 3.5q19 7 35 14.5t28.5 17t21 23t12.5 34.5l28 158q2 14 10 31.5t21 33.5q24 30 42 43
t18 18q0 6 -8 12t-16 17q-12 15 -18 35t-6 40v9t1 8l29 165q1 5 1.5 10t0.5 9q0 29 -19 42.5t-50 27.5q-6 3 -6 7v3l11 60q2 7 6 8.5t14 1.5q28 0 52.5 -10t42.5 -28.5t28 -44.5t10 -59q0 -18 -3 -37l-26 -145q-1 -5 -1.5 -10t-0.5 -10q0 -14 5 -24t14 -17.5t21.5 -14
t28.5 -13.5q6 -3 6 -7v-3z" />
    <glyph glyph-name="bracketleft" unicode="[" horiz-adv-x="360" 
d="M329 660q-1 -10 -11 -10h-70q-13 0 -15.5 -21t-10.5 -69l-100 -568l-11 -58.5t-4 -25.5q0 -8 8 -8h70q9 0 9 -8v-2l-11 -60q-1 -10 -12 -10h-160q-8 0 -8 8q0 9 8 51.5l22 120.5l97 550q8 47 13 81t9 56t8 32.5t12 10.5h160q8 0 8 -8v-2z" />
    <glyph glyph-name="bracketright" unicode="]" horiz-adv-x="360" 
d="M332 730q8 0 8 -9t-8 -51l-22 -120l-97 -550q-8 -47 -13 -81t-9 -56t-8.5 -32.5t-11.5 -10.5h-160q-8 0 -8 7v3l11 60q1 10 11 10h70q13 0 15.5 21t11.5 71l100 568l10.5 59.5t3.5 22.5q0 8 -8 8h-70q-9 0 -9 8v2l11 60q1 10 12 10h160z" />
    <glyph glyph-name="breve" unicode="&#x2d8;" horiz-adv-x="500" 
d="M413 589q-7 -38 -35 -61.5t-70 -23.5h-45q-36 0 -56.5 18t-20.5 49q0 5 0.5 9t1.5 9l9 50q1 10 12 10h25q8 0 8 -7v-3l-5 -30q0 -2 -0.5 -3.5t-0.5 -3.5q0 -17 10.5 -27.5t27.5 -10.5h45q19 0 34.5 13t18.5 32l5 30q1 10 12 10h25q8 0 8 -7v-3z" />
    <glyph glyph-name="bullet" unicode="&#x2022;" horiz-adv-x="440" 
d="M369 305q-5 -31 -19.5 -56.5t-37.5 -44t-53 -29t-65 -10.5h-4q-60 0 -93.5 30t-33.5 83q0 7 0.5 13.5t1.5 13.5l3 20q4 31 19 56.5t38 44t53 29t65 10.5h4q60 0 93.5 -30.5t33.5 -83.5q0 -6 -0.5 -12.5t-1.5 -13.5z" />
    <glyph glyph-name="c" unicode="c" horiz-adv-x="428" 
d="M44 290q7 38 25 69.5t45.5 54t63 34.5t76.5 12q33 0 60.5 -9t47 -23t30 -31.5t10.5 -34.5q0 -8 -7 -11l-70 -32q-2 -1 -5 -1t-7 6q-14 25 -28 40.5t-45 15.5q-19 0 -37 -7t-32 -19.5t-24 -29t-13 -34.5l-23 -130q-1 -4 -1 -8v-8q0 -32 21 -53t54 -21q39 0 66 27
q17 16 24.5 26.5t12.5 10.5q2 0 6 -2l58 -32q4 -2 4 -5q0 -8 -17 -29.5t-54 -46.5q-20 -13 -49.5 -21t-64.5 -8q-72 0 -112.5 36.5t-40.5 98.5q0 17 3 35z" />
    <glyph glyph-name="caron" unicode="&#x2c7;" horiz-adv-x="500" 
d="M310 508l-9 -4h-36l-7 4l-67 125q-2 4 -2 7q0 9 13 9h48l7 -5l31 -68q3 -6 7 -6q3 0 8 6l56 68q4 5 13 5h44q10 0 10 -7q0 -2 -5 -9z" />
    <glyph glyph-name="ccedilla" unicode="&#xe7;" horiz-adv-x="428" 
d="M44 290q7 38 25 69.5t45.5 54t63 34.5t76.5 12q33 0 60.5 -9t47 -23t30 -31.5t10.5 -34.5q0 -8 -7 -11l-70 -32q-2 -1 -5 -1t-7 6q-14 25 -28 40.5t-45 15.5q-19 0 -37 -7t-32 -19.5t-24 -29t-13 -34.5l-23 -130q-1 -4 -1 -8v-8q0 -32 21 -53t54 -21q39 0 66 27
q17 16 24.5 26.5t12.5 10.5q2 0 6 -2l58 -32q4 -2 4 -5q0 -8 -9 -22t-27 -29t-44 -28.5t-59 -21.5l-23 -34q-2 -2 -2 -6q0 -3 5 -7.5t11 -12t11 -19.5t5 -28q0 -2 -0.5 -5t-0.5 -6l-1 -8q-2 -19 -12 -36t-25.5 -29.5t-36 -20t-44.5 -7.5h-48q-8 0 -8 7v3l7 40q1 10 12 10h48
q15 0 26 9.5t13 23.5l1 8v6q0 12 -7.5 20t-19.5 8h-19q-9 0 -9 7q0 2 3 7l44 68q-63 8 -96 42t-33 90q0 16 3 36z" />
    <glyph glyph-name="cedilla" unicode="&#xb8;" horiz-adv-x="500" 
d="M232 -132q-6 -40 -38.5 -66.5t-79.5 -26.5h-48q-8 0 -8 7v3l7 40q1 10 12 10h48q15 0 26 9.5t13 23.5l1 8v6q0 12 -7.5 20t-19.5 8h-19q-9 0 -9 7q0 2 3 7l51 79h69l-29 -43q-2 -2 -2 -6q0 -3 5 -7.5t11 -12.5t11 -19.5t5 -26.5q0 -8 -1 -12z" />
    <glyph glyph-name="cent" unicode="&#xa2;" 
d="M264 456q0 7 -5 7q-11 0 -22.5 -6.5t-22.5 -18t-19 -26.5t-11 -32l-23 -130q-1 -4 -1 -8v-8q0 -28 14.5 -47.5t31.5 -19.5q8 0 9 10l49 276v3zM327 555q0 -6 6 -7t18 -4q50 -13 75.5 -40t25.5 -54q0 -6 -6 -9l-69 -32q-2 -1 -5 -1q-4 0 -8 6q-11 20 -20.5 34t-26.5 14
q-7 0 -8 -10l-49 -274v-3q0 -7 5 -7q13 0 24.5 8.5t20.5 19l16 19t13 8.5q4 0 5 -1l57 -32q5 -3 5 -7q0 -5 -6 -15t-16.5 -21.5t-25 -22.5t-32.5 -17q-39 -14 -60.5 -19t-23.5 -16l-11 -62q-1 -10 -12 -10h-25q-8 0 -8 7v3l11 62v1q0 8 -14.5 11t-40.5 11q-33 11 -53.5 43
t-20.5 77q0 17 3 35l23 130q12 64 59 113q18 18 48 32.5t70 22.5l7 3.5t4 6.5l11 62q1 10 12 10h25q8 0 8 -7v-3l-11 -62v-3z" />
    <glyph glyph-name="circumflex" unicode="&#x2c6;" horiz-adv-x="500" 
d="M403 521q2 -4 2 -7q0 -9 -13 -9h-48l-7 5l-32 68q-3 6 -7 6t-8 -6l-55 -68l-9 -5h-48q-10 0 -10 7q0 2 5 9l111 125l9 4h36l7 -4z" />
    <glyph glyph-name="colon" unicode=":" horiz-adv-x="220" 
d="M117 54q0 -26 -19.5 -45t-46.5 -19q-21 0 -33.5 12.5t-12.5 32.5q0 26 19.5 45.5t46.5 19.5q20 0 33 -12.5t13 -33.5zM164 323q0 -26 -19.5 -44.5t-45.5 -18.5q-21 0 -33.5 12t-12.5 33q0 26 19 45.5t46 19.5q21 0 33.5 -13t12.5 -34z" />
    <glyph glyph-name="comma" unicode="," horiz-adv-x="220" 
d="M125 98l-13 -69.5t-16 -53.5q-11 -24 -26 -43.5t-30.5 -33t-29 -21t-22.5 -7.5q-5 0 -7 7l-9 29v3q0 5 7 9.5t17 14.5q17 17 26.5 37t9.5 38q0 8 -8 8h-13q-9 0 -9 6q0 1 0.5 1.5t0.5 2.5l12 72q1 10 12 10h90q8 0 8 -7v-3z" />
    <glyph glyph-name="copyright" unicode="&#xa9;" horiz-adv-x="720" 
d="M240 371q9 53 48.5 85.5t99.5 32.5q48 0 74.5 -20t26.5 -41q0 -6 -6 -9l-32 -15q-4 -2 -5 -2q-4 0 -7 5q-24 37 -59 37q-33 0 -57.5 -21t-29.5 -52l-17 -99q-1 -4 -1 -13q0 -26 17 -43.5t45 -17.5q17 0 30 6.5t22.5 15l16.5 15t12 6.5q3 0 4 -1l27 -16q5 -3 5 -7
q0 -8 -9 -19t-25.5 -21t-39.5 -17.5t-51 -7.5q-51 0 -79.5 26t-28.5 70q0 6 0.5 12t1.5 12zM609 460q1 7 1.5 13t0.5 12q0 46 -30.5 73t-84.5 27h-180q-63 0 -105 -34t-52 -91l-51 -290q-2 -7 -2 -13v-12q0 -46 30.5 -73t84.5 -27h180q63 0 105 34t52 91zM603 170
q-7 -38 -25 -69t-45.5 -53.5t-63 -35t-76.5 -12.5h-180q-72 0 -112.5 36t-40.5 99q0 17 3 35l51 290q7 38 25 69t45.5 53.5t63 35t76.5 12.5h180q72 0 112.5 -36.5t40.5 -98.5q0 -17 -3 -35z" />
    <glyph glyph-name="currency" unicode="&#xa4;" horiz-adv-x="606" 
d="M452 433q0 30 -11.5 57t-31.5 47.5t-47 32t-58 11.5t-58 -11.5t-47 -32t-31.5 -47.5t-11.5 -57q0 -31 11.5 -58t31.5 -47.5t47 -32t58 -11.5t58 11.5t47 32t31.5 47.5t11.5 58zM179 595q55 42 124 42t125 -42l100 100l40 -39l-100 -101q40 -53 40 -123q0 -34 -9.5 -64.5
t-30.5 -58.5l100 -100l-40 -40l-100 100q-26 -20 -56.5 -31t-67.5 -11q-70 0 -125 42l-100 -100l-40 40l101 100q-17 21 -29 52t-12 71q0 68 41 123l-101 101l40 39z" />
    <glyph glyph-name="d" unicode="d" horiz-adv-x="475" 
d="M312 280q1 5 1 15q0 32 -21 53.5t-54 21.5q-20 0 -37.5 -7.5t-32 -19.5t-24 -28.5t-12.5 -34.5l-19 -110q-1 -5 -1 -15q0 -32 21 -53.5t54 -21.5q19 0 37 7t32.5 19.5t24 29t12.5 34.5zM355 10q-1 -10 -12 -10h-60q-8 0 -8 7v3l2 12v3q0 9 -7 9q-4 0 -12 -5.5
t-20.5 -11.5t-30.5 -11.5t-41 -5.5q-66 0 -106 37t-40 100q0 16 3 33l19 110q6 33 24 65t47 58q53 47 124 47q21 0 36 -5t26 -11.5t18 -11.5t12 -5q7 0 9 11l34 192q3 10 12 10h70q8 0 8 -7v-3z" />
    <glyph glyph-name="dagger" unicode="&#x2020;" horiz-adv-x="410" 
d="M413 392q-2 -10 -11 -10h-2l-145 12h-2q-10 0 -10 -11l-2 -65l-113 -533q-1 -10 -12 -10h-24q-8 0 -8 7v3l75 533l22 65q1 2 1 5q0 6 -8 6h-3l-150 -12h-2q-7 0 -7 8v2l12 65q1 10 12 10l148 -13h2q9 0 11 11l15 154q2 11 12 11h62q9 0 9 -7q0 -1 -0.5 -2t-0.5 -2
l-39 -154q0 -2 -0.5 -2.5t-0.5 -1.5q0 -7 8 -7h2l151 13h2q8 0 8 -8v-2z" />
    <glyph glyph-name="daggerdbl" unicode="&#x2021;" horiz-adv-x="410" 
d="M376 180q-2 -10 -11 -10h-2l-142 12h-2q-8 0 -11 -10l-80 -387q-1 -10 -12 -10h-24q-8 0 -8 7v3l56 387v2q0 8 -7 8h-2l-147 -12h-2q-7 0 -7 8v2l11 65q2 10 11 10h2l141 -13h2q9 0 11 11l6 66l22 64q1 2 1 5q0 6 -8 6h-3l-150 -12h-2q-7 0 -7 8v2l12 65q1 10 12 10
l148 -13h2q9 0 11 11l15 154q2 11 12 11h62q9 0 9 -7q0 -1 -0.5 -2t-0.5 -2l-39 -154q0 -2 -0.5 -2.5t-0.5 -1.5q0 -7 8 -7h2l151 13h2q8 0 8 -8v-2l-12 -65q-2 -10 -11 -10h-2l-145 12h-2q-10 0 -10 -11l-2 -63l-16 -67q-1 -2 -1 -6q0 -5 7 -5h3l144 13h2q7 0 7 -8v-2z" />
    <glyph glyph-name="degree" unicode="&#xb0;" horiz-adv-x="220" 
d="M189 560q0 13 -8.5 22.5t-22.5 9.5q-17 0 -30 -11.5t-15 -26.5l-5 -29v-5q0 -14 8.5 -23t22.5 -9q17 0 30 11.5t15 26.5l5 29v5zM236 525q-6 -38 -34 -61.5t-70 -23.5q-36 0 -57 19t-21 50q0 5 0.5 8.5t1.5 8.5l5 29q7 38 34.5 61.5t69.5 23.5q36 0 57 -18.5t21 -50.5
q0 -4 -0.5 -8t-1.5 -9z" />
    <glyph glyph-name="dieresis" unicode="&#xa8;" horiz-adv-x="500" 
d="M270 586q0 -23 -18 -40.5t-41 -17.5q-18 0 -30 11.5t-12 30.5q0 23 18.5 40.5t41.5 17.5q18 0 29.5 -11.5t11.5 -30.5zM427 586q0 -23 -18.5 -40.5t-41.5 -17.5q-18 0 -30 11.5t-12 30.5q0 23 18.5 40.5t41.5 17.5q18 0 30 -11.5t12 -30.5z" />
    <glyph glyph-name="divide" unicode="&#xf7;" horiz-adv-x="833" 
d="M417 179q25 0 43 -17.5t18 -43.5q0 -25 -17.5 -43t-43.5 -18t-43.5 17.5t-17.5 43.5t18 43.5t43 17.5zM709 264h-585v68h585v-68zM417 540q25 0 43 -18t18 -44q0 -25 -17.5 -43t-43.5 -18t-43.5 17.5t-17.5 43.5t18 44t43 18z" />
    <glyph glyph-name="dollar" unicode="$" 
d="M238 79q0 -7 8 -7q15 0 30.5 8.5t28 23t20.5 33t8 38.5q0 16 -6.5 30t-15.5 24.5t-18.5 16.5t-16.5 6q-8 0 -10 -11l-28 -159v-3zM275 547q0 7 -4 7q-13 0 -27.5 -8t-26.5 -21.5t-19.5 -30.5t-7.5 -35q0 -14 5.5 -26t13.5 -21t16.5 -14.5t14.5 -5.5q8 0 10 11l25 141v3z
M338 646q0 -6 5.5 -6.5t17.5 -3.5q57 -13 86 -40.5t29 -56.5q0 -5 -7 -8l-69 -32q-6 -2 -7 -2q-4 0 -8.5 8.5t-14.5 25.5q-8 12 -18.5 19t-20.5 7t-11 -10l-31 -176v-1q0 -8 16 -14.5t42 -22.5q79 -50 79 -130q0 -65 -29.5 -114t-76.5 -68q-22 -9 -39.5 -14l-30.5 -8.5
t-20.5 -7t-8.5 -10.5l-6 -31q-1 -10 -12 -10h-25q-8 0 -8 7v3l5 30q1 2 1 5t-6 5h-5q-33 0 -59.5 9.5t-44.5 24.5t-28 33t-10 35q0 5 7 8l68 32q2 1 5 1t8 -6q15 -25 27.5 -41t39.5 -16q14 0 15 10l34 194q0 10 -14.5 16.5t-40.5 20.5q-35 20 -55 52t-20 67q0 64 29.5 113
t79.5 71q37 16 61 19.5t26 14.5l6 32q1 10 12 10h25q8 0 8 -7v-3l-6 -31v-3z" />
    <glyph glyph-name="dotaccent" unicode="&#x2d9;" horiz-adv-x="500" 
d="M354 559q-5 -24 -23.5 -39.5t-46.5 -15.5q-24 0 -37.5 11.5t-13.5 32.5q0 7 1 11l5 30q4 24 22.5 39.5t47.5 15.5q24 0 37.5 -12.5t13.5 -32.5q0 -7 -1 -10z" />
    <glyph glyph-name="dotlessi" unicode="&#x131;" horiz-adv-x="220" 
d="M100 10q-1 -10 -12 -10h-70q-8 0 -8 7v3l76 430q1 10 11 10h70q9 0 9 -8v-2z" />
    <glyph glyph-name="e" unicode="e" horiz-adv-x="460" 
d="M302 280q14 0 14 27q0 30 -22 51.5t-54 21.5q-20 0 -39 -8.5t-34 -22t-24 -30t-9 -32.5q0 -7 8 -7h160zM392 220q-1 -10 -12 -10h-250q-11 0 -12 -10l-7 -40q-1 -4 -1 -8v-8q0 -31 21 -52.5t54 -21.5q39 0 66 27q17 16 24.5 26.5t12.5 10.5q2 0 6 -2l58 -32q4 -2 4 -5
q0 -8 -17 -29.5t-54 -46.5q-20 -13 -49.5 -21t-64.5 -8q-72 0 -112.5 36.5t-40.5 98.5q0 17 3 35l23 130q4 22 14.5 45t27.5 43q33 40 77 61t91 21q34 0 62 -11t48 -30.5t31 -45.5t11 -56v-13.5t-2 -13.5z" />
    <glyph glyph-name="eacute" unicode="&#xe9;" horiz-adv-x="460" 
d="M302 280q14 0 14 27q0 30 -22 51.5t-54 21.5q-20 0 -39 -8.5t-34 -22t-24 -30t-9 -32.5q0 -7 8 -7h160zM392 220q-1 -10 -12 -10h-250q-11 0 -12 -10l-7 -40q-1 -4 -1 -8v-8q0 -31 21 -52.5t54 -21.5q39 0 66 27q17 16 24.5 26.5t12.5 10.5q2 0 6 -2l58 -32q4 -2 4 -5
q0 -8 -17 -29.5t-54 -46.5q-20 -13 -49.5 -21t-64.5 -8q-72 0 -112.5 36.5t-40.5 98.5q0 17 3 35l23 130q4 22 14.5 45t27.5 43q33 40 77 61t91 21q34 0 62 -11t48 -30.5t31 -45.5t11 -56v-13.5t-2 -13.5zM271 508l-8 -3h-43q-9 0 -9 7q0 4 4 8l104 125q2 2 9 5h88
q10 0 10 -7q0 -6 -6 -10z" />
    <glyph glyph-name="ecircumflex" unicode="&#xea;" horiz-adv-x="460" 
d="M376 521q2 -4 2 -7q0 -9 -13 -9h-48l-7 5l-32 68q-3 6 -7 6t-8 -6l-55 -68l-9 -5h-48q-10 0 -10 7q0 2 5 9l111 125l9 4h36l7 -4zM302 280q14 0 14 27q0 30 -22 51.5t-54 21.5q-20 0 -39 -8.5t-34 -22t-24 -30t-9 -32.5q0 -7 8 -7h160zM392 220q-1 -10 -12 -10h-250
q-11 0 -12 -10l-7 -40q-1 -4 -1 -8v-8q0 -31 21 -52.5t54 -21.5q39 0 66 27q17 16 24.5 26.5t12.5 10.5q2 0 6 -2l58 -32q4 -2 4 -5q0 -8 -17 -29.5t-54 -46.5q-20 -13 -49.5 -21t-64.5 -8q-72 0 -112.5 36.5t-40.5 98.5q0 17 3 35l23 130q4 22 14.5 45t27.5 43q33 40 77 61
t91 21q34 0 62 -11t48 -30.5t31 -45.5t11 -56v-13.5t-2 -13.5z" />
    <glyph glyph-name="edieresis" unicode="&#xeb;" horiz-adv-x="460" 
d="M302 280q14 0 14 27q0 30 -22 51.5t-54 21.5q-20 0 -39 -8.5t-34 -22t-24 -30t-9 -32.5q0 -7 8 -7h160zM392 220q-1 -10 -12 -10h-250q-11 0 -12 -10l-7 -40q-1 -4 -1 -8v-8q0 -31 21 -52.5t54 -21.5q39 0 66 27q17 16 24.5 26.5t12.5 10.5q2 0 6 -2l58 -32q4 -2 4 -5
q0 -8 -17 -29.5t-54 -46.5q-20 -13 -49.5 -21t-64.5 -8q-72 0 -112.5 36.5t-40.5 98.5q0 17 3 35l23 130q4 22 14.5 45t27.5 43q33 40 77 61t91 21q34 0 62 -11t48 -30.5t31 -45.5t11 -56v-13.5t-2 -13.5zM244 586q0 -23 -18 -40.5t-41 -17.5q-18 0 -30 11.5t-12 30.5
q0 23 18.5 40.5t41.5 17.5q18 0 29.5 -11.5t11.5 -30.5zM401 586q0 -23 -18.5 -40.5t-41.5 -17.5q-18 0 -30 11.5t-12 30.5q0 23 18.5 40.5t41.5 17.5q18 0 30 -11.5t12 -30.5z" />
    <glyph glyph-name="egrave" unicode="&#xe8;" horiz-adv-x="460" 
d="M309 519q0 -2 0.5 -2.5t0.5 -2.5q0 -10 -12 -10h-43l-6 3l-105 125q-3 3 -3 7q0 10 13 10h88l7 -5zM302 280q14 0 14 27q0 30 -22 51.5t-54 21.5q-20 0 -39 -8.5t-34 -22t-24 -30t-9 -32.5q0 -7 8 -7h160zM392 220q-1 -10 -12 -10h-250q-11 0 -12 -10l-7 -40q-1 -4 -1 -8
v-8q0 -31 21 -52.5t54 -21.5q39 0 66 27q17 16 24.5 26.5t12.5 10.5q2 0 6 -2l58 -32q4 -2 4 -5q0 -8 -17 -29.5t-54 -46.5q-20 -13 -49.5 -21t-64.5 -8q-72 0 -112.5 36.5t-40.5 98.5q0 17 3 35l23 130q4 22 14.5 45t27.5 43q33 40 77 61t91 21q34 0 62 -11t48 -30.5
t31 -45.5t11 -56v-13.5t-2 -13.5z" />
    <glyph glyph-name="eight" unicode="8" 
d="M336 190q1 4 1 7.5v6.5q0 32 -21.5 54t-53.5 22h-30q-19 0 -36.5 -7t-32 -19.5t-24.5 -29t-13 -34.5l-5 -30q-1 -5 -1 -15q0 -32 21 -53.5t54 -21.5h30q19 0 36.5 7t32 19t24.5 28.5t13 35.5zM386 470q1 5 1.5 8.5t0.5 8.5q0 30 -21.5 51.5t-54.5 21.5h-30
q-37 0 -67.5 -26t-38.5 -64l-4 -20q-1 -5 -1.5 -8.5t-0.5 -8.5q0 -31 21.5 -52t54.5 -21h30q18 0 35.5 6.5t31.5 18.5t24.5 28.5t14.5 36.5zM471 440q-2 -14 -9.5 -30.5t-20.5 -32.5q-23 -29 -41.5 -41t-18.5 -17t7.5 -12t15.5 -19q12 -16 18 -37t6 -41v-8.5t-1 -8.5l-4 -25
q-14 -83 -70.5 -130.5t-141.5 -47.5h-30q-73 0 -112 37t-39 103q0 18 3 38l4 25q2 14 10 31t21 34q25 31 42.5 44t17.5 17q0 6 -7.5 12t-15.5 17q-11 15 -18 37t-7 42v6.5t1 6.5l3 20q6 41 24 74t46 56.5t64 36.5t78 13h30q72 0 111.5 -37.5t39.5 -104.5q0 -19 -3 -38z" />
    <glyph glyph-name="ellipsis" unicode="&#x2026;" horiz-adv-x="480" 
d="M477 560q-1 -10 -12 -10h-250q-11 0 -12 -10l-30 -170v-3q0 -7 8 -7h205q9 0 9 -8v-2l-11 -60q-1 -10 -12 -10h-205q-10 0 -11 -10l-32 -180v-3q0 -7 8 -7h250q8 0 8 -7v-3l-10 -60q-1 -10 -12 -10h-340q-8 0 -8 7v3l107 610q1 10 12 10h340q8 0 8 -7v-3z" />
    <glyph glyph-name="emdash" unicode="&#x2014;" horiz-adv-x="780" 
d="M742 220q-1 -10 -12 -10h-720q-8 0 -8 7v3l7 40q1 10 12 10h720q8 0 8 -7v-3z" />
    <glyph glyph-name="endash" unicode="&#x2013;" 
d="M472 220q-1 -10 -12 -10h-450q-8 0 -8 7v3l7 40q1 10 12 10h450q8 0 8 -7v-3z" />
    <glyph glyph-name="equal" unicode="=" 
d="M431 130q-1 -10 -12 -10h-400q-8 0 -8 7v3l7 40q1 10 12 10h400q8 0 8 -8v-2zM463 310q-1 -10 -12 -10h-400q-9 0 -9 6q0 1 0.5 2t0.5 2l7 40q1 10 11 10h400q9 0 9 -8v-2z" />
    <glyph glyph-name="exclam" unicode="!" horiz-adv-x="270" 
d="M157 54q0 -26 -19.5 -45t-46.5 -19q-21 0 -33.5 12.5t-12.5 32.5q0 26 19.5 45.5t46.5 19.5q20 0 33 -12.5t13 -33.5zM202 362l-52 -173q-3 -9 -11 -9h-27q-9 0 -9 9l9 173l45 258q3 10 12 10h70q8 0 8 -7v-3z" />
    <glyph glyph-name="exclamdown" unicode="&#xa1;" horiz-adv-x="270" 
d="M124 91l-46 -261q-1 -10 -12 -10h-70q-8 0 -8 7v3l46 261l51 170q3 9 12 9h27q8 0 8 -9zM190 414q0 -26 -19.5 -45t-45.5 -19q-21 0 -34 12.5t-13 33.5q0 26 20 45t46 19q21 0 33.5 -12.5t12.5 -33.5z" />
    <glyph glyph-name="f" unicode="f" horiz-adv-x="285" 
d="M337 565q-4 -7 -12 -7q-8 1 -14 1.5t-9 0.5q-19 0 -37 -7t-32 -19.5t-24 -29t-13 -34.5l-10 -55v-3q0 -7 8 -7h70q9 0 9 -8v-2l-11 -60q-1 -10 -12 -10h-70q-10 0 -11 -10l-66 -370q-12 -70 -75 -127q-58 -53 -137 -53q-51 0 -51 10q0 4 2 7l30 58q4 7 11 7q3 0 8.5 -1
t14.5 -1q38 0 68.5 26.5t37.5 63.5l67 380v2q0 8 -9 8h-25q-8 0 -8 7v3l11 60q1 10 11 10h25q11 0 12 10l8 45q7 38 26.5 71t48 57t64 38t73.5 14q53 0 53 -11q0 -2 -2 -6z" />
    <glyph glyph-name="five" unicode="5" 
d="M483 560q-1 -10 -12 -10h-230q-11 0 -12 -10l-29 -165v-3q0 -7 8 -7h70q72 0 112 -37.5t40 -103.5q0 -18 -3 -37l-3 -19q-13 -82 -70 -130t-142 -48h-30q-35 0 -62.5 9.5t-46.5 24.5t-29 33t-10 35q0 5 8 8l68 32q4 2 6 2q4 0 7 -7q21 -57 73 -57h30q38 0 68.5 26
t37.5 64l6 35q1 4 1 8v8q0 31 -21 52.5t-54 21.5h-160q-8 0 -8 7v3l57 325q3 10 12 10h320q8 0 8 -7v-3z" />
    <glyph glyph-name="florin" unicode="&#x192;" 
d="M449 565q-4 -7 -12 -7q-8 1 -14 1.5t-9 0.5q-19 0 -37 -7t-32 -19t-24 -28.5t-13 -35.5l-18 -100v-3q0 -7 8 -7h70q9 0 9 -8v-2l-11 -60q-1 -10 -12 -10h-70q-10 0 -11 -10l-46 -257l-12 -68q-12 -70 -75 -127q-58 -53 -137 -53q-51 0 -51 10q0 4 2 7l30 58q4 7 11 7
q3 0 8.5 -1t14.5 -1q19 0 37 7t32 19.5t24 29t13 34.5l13 78l46 257v2q0 8 -9 8h-25q-8 0 -8 7v3l11 60q1 10 11 10h25q11 0 12 10l16 90q7 38 26.5 71t48 57t64 38t73.5 14q53 0 53 -11q0 -2 -2 -6z" />
    <glyph glyph-name="four" unicode="4" 
d="M324 465q0 9 -7 9q-5 0 -9 -6l-192 -227q-4 -4 -4 -9q0 -7 10 -7h151q10 0 11 10l40 227v3zM450 155q-1 -10 -11 -10h-70q-11 0 -12 -10l-22 -125q-1 -10 -12 -10h-70q-8 0 -8 7v3l22 125v3q0 7 -8 7h-250q-9 0 -9 8v2l15 70l335 401l9 4h75q8 0 8 -7v-3l-68 -385v-2
q0 -8 9 -8h70q8 0 8 -8v-2z" />
    <glyph glyph-name="fraction" unicode="&#x2044;" horiz-adv-x="311" 
d="M6 10q-7 -10 -18 -10h-23q-18 0 -18 16q0 6 3 12l352 592q7 10 18 10h23q18 0 18 -17q0 -5 -3 -11z" />
    <glyph glyph-name="fraction" unicode="&#x2215;" horiz-adv-x="311" 
d="M6 10q-7 -10 -18 -10h-23q-18 0 -18 16q0 6 3 12l352 592q7 10 18 10h23q18 0 18 -17q0 -5 -3 -11z" />
    <glyph glyph-name="g" unicode="g" horiz-adv-x="475" 
d="M312 280q1 5 1 15q0 32 -21 53.5t-57 21.5q-18 0 -35 -7.5t-31.5 -19.5t-24 -28.5t-12.5 -34.5l-19 -110q-1 -5 -1 -15q0 -32 21 -53.5t54 -21.5q19 0 37 7t32.5 19.5t24 29t12.5 34.5zM422 450q9 0 9 -10q0 -28 -6.5 -50t-9.5 -40l-72 -405q-15 -85 -70.5 -132.5
t-140.5 -47.5q-36 0 -63.5 10t-46.5 25t-29 33t-10 33q0 5 7 8l68 32q2 1 5 1q4 0 9 -6l13 -22t13.5 -17.5t18.5 -12t29 -4.5q19 0 37 7t32.5 19.5t24 29t12.5 34.5l14 83v3q0 8 -6 8q-5 0 -12 -4.5t-18 -10t-26 -10t-36 -4.5q-68 0 -108 37t-40 100q0 16 3 33l19 110
q6 37 24.5 68.5t45.5 54t61.5 35t72.5 12.5q21 0 36.5 -5t26.5 -11.5t18 -11.5t12 -5q6 0 9 11l3 12q2 5 3.5 7.5t7.5 2.5h60z" />
    <glyph glyph-name="germandbls" unicode="&#xdf;" horiz-adv-x="472" 
d="M451 440q-2 -14 -9.5 -30.5t-20.5 -32.5q-24 -29 -42 -41t-18 -17t7 -12t16 -19q11 -15 17.5 -37t6.5 -42q0 -11 -1 -16l-4 -25q-6 -40 -25 -72.5t-45.5 -56t-58 -36t-63.5 -12.5q-18 0 -18 7v3l11 60q1 5 3.5 6.5t6.5 3.5q19 7 35.5 14.5t29 17t21 23t11.5 34.5l5 30
q1 5 1 9v8q0 50 -56 69q-8 3 -12.5 4t-4.5 6v3l11 62q1 6 3.5 7t6.5 3q37 14 63 31t34 58l4 20q1 5 1.5 8.5t0.5 8.5q0 31 -22 52t-58 21q-37 0 -66 -26t-36 -64l-93 -525q-7 -39 -26 -72t-47 -57t-63.5 -37.5t-75.5 -13.5q-51 0 -51 10q0 4 2 7l30 58q4 7 11 7q3 0 9 -1
t14 -1q19 0 36.5 7t32 19.5t24.5 29t13 34.5l92 525q7 38 26.5 71t48 57t64 38t73.5 14q72 0 111.5 -37.5t39.5 -105.5q0 -18 -3 -37z" />
    <glyph glyph-name="grave" unicode="`" horiz-adv-x="500" 
d="M336 519q0 -2 0.5 -2.5t0.5 -2.5q0 -10 -12 -10h-43l-6 3l-105 125q-3 3 -3 7q0 10 13 10h88l7 -5z" />
    <glyph glyph-name="greater" unicode="&#x3e;" 
d="M425 213l-7 -9l-341 -179q-4 -2 -6 -2q-4 0 -7 6l-15 34q0 1 -0.5 2t-0.5 2q0 5 8 10l296 156q8 5 8 9q0 6 -5 9l-241 156q-5 3 -5 7q0 2 3 7l27 34q4 6 9 6q2 0 6 -2l277 -180l4 -9z" />
    <glyph glyph-name="guillemotleft" unicode="&#xab;" horiz-adv-x="554" 
d="M284 392l-5 -8l-152 -97q-7 -4 -7 -8q0 -5 4 -8l118 -97l2 -8l-10 -57q-2 -11 -9 -11q-5 0 -8 3l-173 140l-2 8l10 59l6 8l222 141q4 3 10 3q4 0 4 -8v-3zM500 392l-5 -8l-152 -97q-7 -4 -7 -8q0 -5 4 -8l118 -97l2 -8l-10 -57q-2 -11 -9 -11q-4 0 -8 3l-174 140l-2 8
l10 59l6 8l223 141q4 3 10 3q4 0 4 -8v-3z" />
    <glyph glyph-name="guillemotright" unicode="&#xbb;" horiz-adv-x="554" 
d="M271 249l-6 -8l-222 -140q-6 -3 -9 -3q-6 0 -6 8v3l10 57l6 8l152 97q7 5 7 8q0 5 -4 8l-118 97l-3 8l10 57q2 11 10 11q5 0 8 -3l173 -141l2 -8zM486 249l-6 -8l-221 -140q-6 -3 -9 -3q-6 0 -6 8v3l10 57l6 8l152 97q7 5 7 8q0 5 -4 8l-118 97l-3 8l10 57q2 11 10 11
q5 0 8 -3l172 -141l2 -8z" />
    <glyph glyph-name="guilsinglleft" unicode="&#x2039;" horiz-adv-x="338" 
d="M284 392l-5 -8l-152 -97q-7 -4 -7 -8q0 -5 4 -8l118 -97l2 -8l-10 -57q-2 -11 -9 -11q-5 0 -8 3l-173 140l-2 8l10 59l6 8l222 141q4 3 10 3q4 0 4 -8v-3z" />
    <glyph glyph-name="guilsinglright" unicode="&#x203a;" horiz-adv-x="338" 
d="M271 249l-6 -8l-222 -140q-6 -3 -9 -3q-6 0 -6 8v3l10 57l6 8l152 97q7 5 7 8q0 5 -4 8l-118 97l-3 8l10 57q2 11 10 11q5 0 8 -3l173 -141l2 -8z" />
    <glyph glyph-name="h" unicode="h" horiz-adv-x="469" 
d="M366 10q-1 -10 -12 -10h-70q-8 0 -8 7v3l47 270q1 4 1 8v8q0 31 -21 52.5t-54 21.5q-20 0 -37.5 -7.5t-32 -19.5t-24 -28.5t-12.5 -34.5l-47 -270q-1 -10 -12 -10h-70q-8 0 -8 7v3l107 610q3 10 12 10h70q8 0 8 -7v-3l-34 -192v-3q0 -9 6 -9q4 0 12.5 5.5t21 11.5
t28.5 11.5t36 5.5q66 0 104.5 -38t38.5 -99q0 -17 -3 -33z" />
    <glyph glyph-name="hungarumlaut" unicode="&#x2dd;" horiz-adv-x="500" 
d="M244 510l-10 -5h-21q-8 0 -8 6q0 4 2 7l64 125l10 7h50q10 0 10 -6q0 -3 -4 -9zM355 510l-10 -5h-21q-8 0 -8 5q0 4 2 8l64 125q4 6 10 7h50q10 0 10 -6q0 -3 -1 -5t-3 -4z" />
    <glyph glyph-name="hyphen" unicode="-" horiz-adv-x="270" 
d="M201 190q-1 -10 -11 -10h-160q-9 0 -9 8v2l13 70q1 10 12 10h160q8 0 8 -7v-3z" />
    <glyph glyph-name="hyphen" unicode="&#xad;" horiz-adv-x="270" 
d="M201 190q-1 -10 -11 -10h-160q-9 0 -9 8v2l13 70q1 10 12 10h160q8 0 8 -7v-3z" />
    <glyph glyph-name="i" unicode="i" horiz-adv-x="212" 
d="M100 10q-1 -10 -12 -10h-70q-8 0 -8 7v3l76 430q1 10 11 10h70q9 0 9 -8v-2zM212 594q0 -26 -19.5 -45t-46.5 -19q-20 0 -33 13t-13 33q0 26 20 45t46 19q21 0 33.5 -12.5t12.5 -33.5z" />
    <glyph glyph-name="iacute" unicode="&#xed;" horiz-adv-x="220" 
d="M100 10q-1 -10 -12 -10h-70q-8 0 -8 7v3l76 430q1 10 11 10h70q9 0 9 -8v-2zM158 508l-8 -3h-43q-9 0 -9 7q0 4 4 8l104 125q2 2 9 5h88q10 0 10 -7q0 -6 -6 -10z" />
    <glyph glyph-name="icircumflex" unicode="&#xee;" horiz-adv-x="220" 
d="M263 521q2 -4 2 -7q0 -9 -13 -9h-48l-7 5l-32 68q-3 6 -7 6t-8 -6l-55 -68l-9 -5h-48q-10 0 -10 7q0 2 5 9l111 125l9 4h36l7 -4zM100 10q-1 -10 -12 -10h-70q-8 0 -8 7v3l76 430q1 10 11 10h70q9 0 9 -8v-2z" />
    <glyph glyph-name="idieresis" unicode="&#xef;" horiz-adv-x="220" 
d="M100 10q-1 -10 -12 -10h-70q-8 0 -8 7v3l76 430q1 10 11 10h70q9 0 9 -8v-2zM131 586q0 -23 -18 -40.5t-41 -17.5q-18 0 -30 11.5t-12 30.5q0 23 18.5 40.5t41.5 17.5q18 0 29.5 -11.5t11.5 -30.5zM288 586q0 -23 -18.5 -40.5t-41.5 -17.5q-18 0 -30 11.5t-12 30.5
q0 23 18.5 40.5t41.5 17.5q18 0 30 -11.5t12 -30.5z" />
    <glyph glyph-name="igrave" unicode="&#xec;" horiz-adv-x="220" 
d="M196 519q0 -2 0.5 -2.5t0.5 -2.5q0 -10 -12 -10h-43l-6 3l-105 125q-3 3 -3 7q0 10 13 10h88l7 -5zM100 10q-1 -10 -12 -10h-70q-8 0 -8 7v3l76 430q1 10 11 10h70q9 0 9 -8v-2z" />
    <glyph glyph-name="j" unicode="j" horiz-adv-x="220" 
d="M88 -56q-5 -29 -22.5 -60.5t-46.5 -60.5q-57 -58 -131 -58q-10 0 -10 7v3l11 60q1 5 3.5 6.5t6.5 3.5q19 7 35 14.5t28.5 17t21 23t12.5 34.5l90 506q1 10 11 10h70q9 0 9 -8v-2zM212 594q0 -26 -19.5 -45t-46.5 -19q-20 0 -33 13t-13 33q0 26 20 45t46 19
q21 0 33.5 -12.5t12.5 -33.5z" />
    <glyph glyph-name="k" unicode="k" horiz-adv-x="449" 
d="M270 301q-5 -5 -5 -9q0 -2 1 -3l122 -274q1 -2 1 -5q0 -10 -13 -10h-88l-8 5l-90 208q-3 6 -8 6q-4 0 -8 -4l-45 -39l-29 -166q-1 -10 -12 -10h-70q-8 0 -8 7v3l107 610q3 10 12 10h70q8 0 8 -7v-3l-55 -312v-3q0 -8 7 -8q5 0 9 4l159 146l7 3h85q10 0 10 -8q0 -3 -6 -9z
" />
    <glyph glyph-name="l" unicode="l" horiz-adv-x="216" 
d="M98 10q-1 -10 -12 -10h-70q-8 0 -8 7v3l107 610q1 10 12 10h70q8 0 8 -7v-3z" />
    <glyph glyph-name="less" unicode="&#x3c;" 
d="M432 421q1 -1 1 -4q0 -7 -7 -10l-297 -156q-8 -4 -8 -9q0 -7 5 -9l243 -156q4 -3 4 -7q0 -3 -3 -7l-27 -34q-5 -6 -9 -6q-2 0 -6 2l-278 179l-3 9l10 57l6 9l342 180q4 2 6 2q5 0 7 -6z" />
    <glyph glyph-name="logicalnot" unicode="&#xac;" horiz-adv-x="833" 
d="M709 175h-67v177h-518v68h585v-245z" />
    <glyph glyph-name="m" unicode="m" horiz-adv-x="720" 
d="M600 10q-1 -10 -12 -10h-70q-8 0 -8 7v3l47 270q1 5 1 15q0 32 -18.5 53.5t-46.5 21.5q-15 0 -30.5 -7.5t-29 -19.5t-23.5 -28.5t-13 -34.5l-47 -270q-1 -10 -12 -10h-70q-8 0 -8 7v3l47 270q1 5 1 15q0 32 -18.5 53.5t-46.5 21.5q-15 0 -31 -7.5t-29.5 -19.5t-23 -28.5
t-12.5 -34.5l-47 -270q-1 -10 -12 -10h-70q-8 0 -8 7v3l76 430q1 10 11 10h60q10 0 10 -6q0 -1 -0.5 -2t-0.5 -2l-3 -13q0 -2 -0.5 -2.5t-0.5 -1.5q0 -7 6 -7q5 0 14 5.5t21.5 11.5t29.5 11.5t37 5.5q27 0 45.5 -8t30.5 -17t18.5 -17t9.5 -8q4 0 13.5 7.5t26.5 18.5
q39 24 93 24q66 0 104.5 -38t38.5 -99q0 -17 -3 -33z" />
    <glyph glyph-name="macron" unicode="&#xaf;" horiz-adv-x="500" 
d="M402 550q-1 -10 -12 -10h-210q-8 0 -8 7v3l11 60q1 10 11 10h210q9 0 9 -8v-2z" />
    <glyph glyph-name="macron" unicode="&#x2c9;" horiz-adv-x="500" 
d="M402 550q-1 -10 -12 -10h-210q-8 0 -8 7v3l11 60q1 10 11 10h210q9 0 9 -8v-2z" />
    <glyph glyph-name="mu" unicode="&#xb5;" horiz-adv-x="562" 
d="M125 230q-7 -31 -7 -65q0 -49 25.5 -75t72.5 -26q67 0 103.5 48t58.5 149l56 262h87l-76 -357q-5 -22 -8 -38t-3 -27q0 -18 8 -25.5t27 -7.5h7.5t8.5 1l-15 -70q-14 -3 -27 -4t-26 -1q-32 0 -48 14.5t-25 48.5q-43 -64 -132 -64q-40 0 -69.5 13.5t-55.5 43.5l-54 -259
h-88l155 732h88z" />
    <glyph glyph-name="mu" unicode="&#x3bc;" horiz-adv-x="562" 
d="M125 230q-7 -31 -7 -65q0 -49 25.5 -75t72.5 -26q67 0 103.5 48t58.5 149l56 262h87l-76 -357q-5 -22 -8 -38t-3 -27q0 -18 8 -25.5t27 -7.5h7.5t8.5 1l-15 -70q-14 -3 -27 -4t-26 -1q-32 0 -48 14.5t-25 48.5q-43 -64 -132 -64q-40 0 -69.5 13.5t-55.5 43.5l-54 -259
h-88l155 732h88z" />
    <glyph glyph-name="n" unicode="n" horiz-adv-x="486" 
d="M370 10q-1 -10 -12 -10h-70q-8 0 -8 7v3l47 270q1 4 1 8v8q0 31 -21 52.5t-54 21.5q-20 0 -37.5 -7.5t-32 -19.5t-24 -28.5t-12.5 -34.5l-47 -270q-1 -10 -12 -10h-70q-8 0 -8 7v3l76 430q1 10 11 10h60q9 0 9 -10l-3 -12v-3q0 -9 6 -9q3 0 11 5.5t21 11.5t31 11.5
t42 5.5q66 0 106 -37t40 -99q0 -16 -3 -34z" />
    <glyph glyph-name="nine" unicode="9" 
d="M386 470q1 4 1 8v8q0 32 -21 53t-54 21h-30q-38 0 -68.5 -26t-37.5 -64l-13 -75q-1 -4 -1 -8v-8q0 -32 21 -53t54 -21h30q38 0 68.5 26t37.5 64zM421 160q-7 -38 -25 -69t-45.5 -53.5t-63 -35t-76.5 -12.5h-30q-35 0 -62.5 9.5t-46.5 24.5t-28.5 33t-9.5 35q0 5 7 8
l68 32q4 2 6 2q4 0 7 -7q19 -57 73 -57h30q19 0 36.5 7t32 19t24.5 28.5t13 35.5l16 87v2q0 9 -6 9q-5 0 -13.5 -5l-20.5 -11.5t-28 -11.5t-36 -5h-30q-66 0 -104.5 38t-38.5 99q0 16 3 33l13 75q7 38 25 69.5t45.5 54t63 34.5t76.5 12h30q72 0 112.5 -36.5t40.5 -98.5
q0 -17 -3 -35z" />
    <glyph glyph-name="ntilde" unicode="&#xf1;" horiz-adv-x="486" 
d="M370 10q-1 -10 -12 -10h-70q-8 0 -8 7v3l47 270q1 4 1 8v8q0 31 -21 52.5t-54 21.5q-20 0 -37.5 -7.5t-32 -19.5t-24 -28.5t-12.5 -34.5l-47 -270q-1 -10 -12 -10h-70q-8 0 -8 7v3l76 430q1 10 11 10h60q9 0 9 -10l-3 -12v-3q0 -9 6 -9q3 0 11 5.5t21 11.5t31 11.5
t42 5.5q66 0 106 -37t40 -99q0 -16 -3 -34zM434 595q3 -3 3 -7q0 -2 -2 -6q-23 -35 -49 -51.5t-49 -16.5q-32 0 -59 26l-17 13q-16 13 -34 13q-12 0 -21.5 -5t-16.5 -11l-12.5 -11t-10.5 -5q-1 0 -5 2l-19 16q-4 3 -4 6q0 8 28 36q37 37 72 37q32 0 59 -24l17 -15
q14 -12 34 -12q13 0 23.5 5t18 11.5t12.5 11.5t8 5q5 0 7 -2z" />
    <glyph glyph-name="numbersign" unicode="#" horiz-adv-x="561" 
d="M359 358q0 1 0.5 1.5t0.5 1.5q0 9 -11 9h-112q-9 0 -10 -6l-26 -91q0 -1 -0.5 -2t-0.5 -2q0 -9 11 -9h113q7 0 10 8zM508 380q-3 -10 -13 -10h-68q-9 0 -10 -6l-26 -91q0 -1 -0.5 -2t-0.5 -2q0 -9 11 -9h70q8 0 8 -6q0 -1 -0.5 -1.5t-0.5 -2.5l-16 -60q-3 -10 -13 -10
h-76q-9 0 -10 -6l-48 -167q-1 -7 -10 -7h-33q-11 0 -11 9q0 1 0.5 1.5t0.5 2.5l43 155q0 1 0.5 1.5t0.5 1.5q0 9 -11 9h-113q-9 0 -10 -6l-47 -167q-1 -7 -10 -7h-33q-11 0 -11 9q0 1 0.5 1.5t0.5 2.5l44 155q0 1 0.5 1.5t0.5 1.5q0 9 -11 9h-62q-8 0 -8 6q0 1 0.5 1.5
t0.5 2.5l16 60q3 10 13 10h68q7 0 10 8l26 90q0 1 0.5 1.5t0.5 1.5q0 9 -11 9h-70q-8 0 -8 6q0 1 0.5 1.5t0.5 2.5l16 60q3 10 13 10h77q7 0 10 8l47 165q3 7 10 7h33q11 0 11 -9q0 -1 -0.5 -2t-0.5 -2l-43 -154q0 -1 -0.5 -2t-0.5 -2q0 -9 11 -9h112q7 0 10 8l48 165
q1 7 10 7h33q11 0 11 -9q0 -1 -0.5 -2t-0.5 -2l-43 -154q0 -1 -0.5 -2t-0.5 -2q0 -9 11 -9h61q8 0 8 -6q0 -1 -0.5 -1.5t-0.5 -2.5z" />
    <glyph glyph-name="o" unicode="o" horiz-adv-x="464" 
d="M318 290q1 4 1 8v8q0 32 -21.5 53t-56.5 21q-18 0 -35 -7.5t-31.5 -19.5t-24 -28.5t-12.5 -34.5l-23 -130q-1 -5 -1 -8.5v-7.5q0 -32 21 -53t54 -21q19 0 37 7t32 19.5t24 29t13 34.5zM385 160q-7 -38 -25 -69t-45.5 -53.5t-63 -35t-76.5 -12.5q-72 0 -112.5 36.5
t-40.5 98.5q0 17 3 35l23 130q7 38 25 69.5t45.5 54t63 34.5t76.5 12q72 0 112.5 -36.5t40.5 -98.5q0 -17 -3 -35z" />
    <glyph glyph-name="oacute" unicode="&#xf3;" horiz-adv-x="464" 
d="M318 290q1 4 1 8v8q0 32 -21.5 53t-56.5 21q-18 0 -35 -7.5t-31.5 -19.5t-24 -28.5t-12.5 -34.5l-23 -130q-1 -5 -1 -8.5v-7.5q0 -32 21 -53t54 -21q19 0 37 7t32 19.5t24 29t13 34.5zM385 160q-7 -38 -25 -69t-45.5 -53.5t-63 -35t-76.5 -12.5q-72 0 -112.5 36.5
t-40.5 98.5q0 17 3 35l23 130q7 38 25 69.5t45.5 54t63 34.5t76.5 12q72 0 112.5 -36.5t40.5 -98.5q0 -17 -3 -35zM280 508l-8 -3h-43q-9 0 -9 7q0 4 4 8l104 125q2 2 9 5h88q10 0 10 -7q0 -6 -6 -10z" />
    <glyph glyph-name="ocircumflex" unicode="&#xf4;" horiz-adv-x="464" 
d="M385 521q2 -4 2 -7q0 -9 -13 -9h-48l-7 5l-32 68q-3 6 -7 6t-8 -6l-55 -68l-9 -5h-48q-10 0 -10 7q0 2 5 9l111 125l9 4h36l7 -4zM318 290q1 4 1 8v8q0 32 -21.5 53t-56.5 21q-18 0 -35 -7.5t-31.5 -19.5t-24 -28.5t-12.5 -34.5l-23 -130q-1 -5 -1 -8.5v-7.5
q0 -32 21 -53t54 -21q19 0 37 7t32 19.5t24 29t13 34.5zM385 160q-7 -38 -25 -69t-45.5 -53.5t-63 -35t-76.5 -12.5q-72 0 -112.5 36.5t-40.5 98.5q0 17 3 35l23 130q7 38 25 69.5t45.5 54t63 34.5t76.5 12q72 0 112.5 -36.5t40.5 -98.5q0 -17 -3 -35z" />
    <glyph glyph-name="odieresis" unicode="&#xf6;" horiz-adv-x="464" 
d="M318 290q1 4 1 8v8q0 32 -21.5 53t-56.5 21q-18 0 -35 -7.5t-31.5 -19.5t-24 -28.5t-12.5 -34.5l-23 -130q-1 -5 -1 -8.5v-7.5q0 -32 21 -53t54 -21q19 0 37 7t32 19.5t24 29t13 34.5zM385 160q-7 -38 -25 -69t-45.5 -53.5t-63 -35t-76.5 -12.5q-72 0 -112.5 36.5
t-40.5 98.5q0 17 3 35l23 130q7 38 25 69.5t45.5 54t63 34.5t76.5 12q72 0 112.5 -36.5t40.5 -98.5q0 -17 -3 -35zM253 586q0 -23 -18 -40.5t-41 -17.5q-18 0 -30 11.5t-12 30.5q0 23 18.5 40.5t41.5 17.5q18 0 29.5 -11.5t11.5 -30.5zM410 586q0 -23 -18.5 -40.5
t-41.5 -17.5q-18 0 -30 11.5t-12 30.5q0 23 18.5 40.5t41.5 17.5q18 0 30 -11.5t12 -30.5z" />
    <glyph glyph-name="oe" unicode="&#x153;" horiz-adv-x="730" 
d="M314 290q1 4 1 8v8q0 31 -21 52.5t-54 21.5q-19 0 -37 -7t-32 -19.5t-24 -29t-13 -34.5l-23 -130q-1 -4 -1 -8v-8q0 -32 21 -53t54 -21q19 0 37 7t32 19.5t24 29t13 34.5zM572 280q14 0 14 27q0 31 -22 52t-54 21q-60 0 -103 -70q0 -5 -1 -10l-2 -10v-3q0 -7 8 -7h160z
M662 220q-1 -10 -12 -10h-250q-11 0 -12 -10l-7 -40q-1 -5 -2 -9.5t-2 -9.5q21 -71 80 -71q37 0 64 27q17 16 24.5 26.5t12.5 10.5q2 0 6 -2l58 -32q4 -2 4 -6q0 -5 -16.5 -27.5t-54.5 -47.5q-20 -13 -49.5 -21t-64.5 -8q-23 0 -39 3t-28 8t-21 11l-18 12q-8 5 -13 9.5
t-8 4.5q-4 0 -17.5 -8t-39.5 -22q-15 -8 -36.5 -13t-49.5 -5q-72 0 -112.5 36t-40.5 99q0 17 3 35l23 130q7 38 25 69t45.5 53.5t63 35t76.5 12.5q29 0 50 -4t35 -15q20 -14 31.5 -23t13.5 -9q4 0 11.5 7.5t24.5 16.5q48 27 104 27q34 0 62 -11t48 -30.5t31 -45.5t11 -56
v-13.5t-2 -13.5z" />
    <glyph glyph-name="ogonek" unicode="&#x2db;" horiz-adv-x="500" 
d="M257 -214q-1 -10 -15 -10q-18 0 -36 8.5t-32 23t-23 35t-9 44.5q0 6 0.5 11.5t1.5 11.5l17 94h68l-18 -101q-1 -4 -1 -7.5v-6.5q0 -35 38 -49l12 -4.5t4 -6.5v-3z" />
    <glyph glyph-name="ograve" unicode="&#xf2;" horiz-adv-x="464" 
d="M318 519q0 -2 0.5 -2.5t0.5 -2.5q0 -10 -12 -10h-43l-6 3l-105 125q-3 3 -3 7q0 10 13 10h88l7 -5zM318 290q1 4 1 8v8q0 32 -21.5 53t-56.5 21q-18 0 -35 -7.5t-31.5 -19.5t-24 -28.5t-12.5 -34.5l-23 -130q-1 -5 -1 -8.5v-7.5q0 -32 21 -53t54 -21q19 0 37 7t32 19.5
t24 29t13 34.5zM385 160q-7 -38 -25 -69t-45.5 -53.5t-63 -35t-76.5 -12.5q-72 0 -112.5 36.5t-40.5 98.5q0 17 3 35l23 130q7 38 25 69.5t45.5 54t63 34.5t76.5 12q72 0 112.5 -36.5t40.5 -98.5q0 -17 -3 -35z" />
    <glyph glyph-name="one" unicode="1" 
d="M383 10q-1 -10 -12 -10h-310q-8 0 -8 7v3l10 60q3 10 12 10h100q11 0 12 10l64 361v3q0 8 -7 8q-5 0 -9 -4l-57 -49q-4 -4 -8 -4q-3 0 -6 4l-36 43q-3 3 -3 7q0 2 5 7l190 161l7 3h35q8 0 8 -7v-3l-93 -530v-3q0 -7 8 -7h100q8 0 8 -7v-3z" />
    <glyph glyph-name="ordfeminine" unicode="&#xaa;" horiz-adv-x="332" 
d="M252 510q1 3 1 10q0 20 -14 34t-35 14q-25 0 -44 -17t-24 -41l-14 -77q-1 -3 -1 -10q0 -20 14 -34t35 -14q24 0 43.5 17.5t24.5 40.5zM292 321q-3 -12 -14 -12h-31q-11 0 -11 7q0 2 0.5 2.5t0.5 2.5l5 28l-10 2q-33 -42 -79 -42q-48 0 -77 27.5t-29 72.5q0 6 0.5 12
t1.5 12l14 77q5 27 18 49.5t32 39t43 26t51 9.5q26 0 41.5 -9.5t26.5 -32.5l10 2l5 28q3 12 14 12h31q11 0 11 -7q0 -2 -0.5 -2.5t-0.5 -2.5z" />
    <glyph glyph-name="ordmasculine" unicode="&#xba;" horiz-adv-x="322" 
d="M253 516q0 2 0.5 4.5t0.5 4.5q0 20 -14 34.5t-35 14.5q-25 0 -44 -17t-24 -41l-16 -91q0 -2 -0.5 -4.5t-0.5 -4.5q0 -20 14 -34.5t35 -14.5q25 0 44.5 17.5t23.5 40.5zM310 425q-10 -56 -51.5 -90t-101.5 -34q-53 0 -82 26.5t-29 71.5v13t2 13l16 91q10 56 51.5 90
t101.5 34q53 0 82 -27t29 -72v-12t-2 -13z" />
    <glyph glyph-name="oslash" unicode="&#xf8;" horiz-adv-x="460" 
d="M314 290q0 2 0.5 8t0.5 16q0 11 -3.5 17.5t-8.5 6.5q-4 0 -9 -8l-143 -241q-2 -4 -2 -5q0 -3 5 -8q15 -6 31 -6q38 0 68.5 26.5t37.5 63.5zM270 362q2 4 2 6q0 4 -6 7q-15 5 -26 5q-38 0 -68.5 -26.5t-37.5 -63.5l-23 -130q-1 -5 -1.5 -9.5t-0.5 -8.5q0 -19 10 -19
q5 0 10 8zM381 160q-7 -38 -25 -69t-45.5 -53.5t-63 -35t-76.5 -12.5q-72 0 -112.5 36.5t-40.5 98.5q0 17 3 35l23 130q7 38 25 69.5t45.5 54t63 34.5t76.5 12q72 0 112.5 -36.5t40.5 -98.5q0 -17 -3 -35z" />
    <glyph glyph-name="otilde" unicode="&#xf5;" horiz-adv-x="464" 
d="M318 290q1 4 1 8v8q0 32 -21.5 53t-56.5 21q-18 0 -35 -7.5t-31.5 -19.5t-24 -28.5t-12.5 -34.5l-23 -130q-1 -5 -1 -8.5v-7.5q0 -32 21 -53t54 -21q19 0 37 7t32 19.5t24 29t13 34.5zM385 160q-7 -38 -25 -69t-45.5 -53.5t-63 -35t-76.5 -12.5q-72 0 -112.5 36.5
t-40.5 98.5q0 17 3 35l23 130q7 38 25 69.5t45.5 54t63 34.5t76.5 12q72 0 112.5 -36.5t40.5 -98.5q0 -17 -3 -35zM423 595q3 -3 3 -7q0 -2 -2 -6q-23 -35 -49 -51.5t-49 -16.5q-32 0 -59 26l-17 13q-16 13 -34 13q-12 0 -21.5 -5t-16.5 -11l-12.5 -11t-10.5 -5q-1 0 -5 2
l-19 16q-4 3 -4 6q0 8 28 36q37 37 72 37q32 0 59 -24l17 -15q14 -12 34 -12q13 0 23.5 5t18 11.5t12.5 11.5t8 5q5 0 7 -2z" />
    <glyph glyph-name="p" unicode="p" horiz-adv-x="475" 
d="M327 280q1 5 1 15q0 32 -21 53.5t-57 21.5q-18 0 -35 -7.5t-31.5 -19.5t-24 -28.5t-12.5 -34.5l-19 -110q-1 -5 -1 -15q0 -32 21 -53.5t54 -21.5q19 0 37 7t32.5 19.5t24 29t12.5 34.5zM398 170q-6 -34 -24 -65.5t-47 -57.5q-51 -47 -129 -47q-18 0 -32.5 5t-25 11.5
l-18 11.5t-12.5 5q-6 0 -8 -11l-42 -237q-1 -10 -12 -10h-70q-8 0 -8 7v3l116 655q1 10 11 10h60q9 0 9 -10l-3 -12v-3q0 -9 6 -9q3 0 11 5.5t21 11.5t31 11.5t42 5.5q66 0 106 -37t40 -100q0 -17 -3 -33z" />
    <glyph glyph-name="paragraph" unicode="&#xb6;" horiz-adv-x="615" 
d="M445 -215q-1 -10 -12 -10h-70q-8 0 -8 7v3l133 755v3q0 7 -8 7h-70q-11 0 -12 -10l-133 -755q-1 -10 -12 -10h-70q-8 0 -8 7v3l52 295v2q0 8 -8 8h-20q-70 0 -111 36.5t-41 92.5q0 34 10 90l24 137q4 22 11 41.5t16 36.5q29 51 77 78.5t109 27.5h290q5 0 7 -2q1 -1 1 -8z
" />
    <glyph glyph-name="parenleft" unicode="(" horiz-adv-x="360" 
d="M329 659q-1 -6 -3.5 -7t-6.5 -3l-36 -15t-28.5 -17t-20.5 -23.5t-12 -33.5l-101 -570q-1 -4 -1 -8v-8q0 -27 17.5 -46.5t50.5 -26.5q6 -3 6 -8v-2l-11 -60q-2 -7 -6 -8.5t-14 -1.5q-28 0 -52.5 10t-42.5 28.5t-28 44.5t-10 59q0 17 3 37l97 550q13 79 66 126
q28 25 63.5 39t61.5 14q19 0 19 -7v-3z" />
    <glyph glyph-name="parenright" unicode=")" horiz-adv-x="360" 
d="M213 0q-7 -41 -26.5 -74t-45.5 -56.5t-57.5 -36t-62.5 -12.5q-18 0 -18 7v3l11 60q1 5 3.5 6.5t6.5 3.5q19 7 35 14.5t28.5 17t21 23t12.5 34.5l101 570q1 5 1.5 10t0.5 9q0 29 -19 42.5t-50 27.5q-6 3 -6 7v3l11 60q2 7 6 8.5t14 1.5q28 0 52.5 -10t42.5 -28.5t28 -44.5
t10 -59q0 -18 -3 -37z" />
    <glyph glyph-name="percent" unicode="%" 
d="M379 185q0 2 0.5 3.5t0.5 3.5q0 12 -8 20t-22 8q-16 0 -27 -10t-14 -25l-18 -100q0 -2 -0.5 -3.5t-0.5 -3.5q0 -12 8 -20t22 -8q16 0 27 10t14 25zM217 545q0 2 0.5 3.5t0.5 3.5q0 12 -8 20t-22 8q-15 0 -26.5 -10t-14.5 -25l-18 -100q-1 -3 -1 -7q0 -13 8 -20.5t22 -7.5
q15 0 26.5 10t14.5 25zM416 85q-7 -38 -35 -61.5t-70 -23.5q-36 0 -56.5 18t-20.5 49q0 5 0.5 9t1.5 9l18 100q7 38 35 61.5t70 23.5q36 0 56.5 -18.5t20.5 -49.5q0 -4 -0.5 -8t-1.5 -9zM90 6q-5 -5 -10 -6h-24q-10 0 -10 6q0 3 3 8l369 610q4 4 10 6h24q9 0 9 -7
q0 -4 -2 -7zM254 445q-7 -38 -35 -61.5t-70 -23.5q-36 0 -56.5 18t-20.5 49q0 5 0.5 9t1.5 9l18 100q7 38 35 61.5t70 23.5q36 0 56.5 -18t20.5 -50q0 -4 -0.5 -8t-1.5 -9z" />
    <glyph glyph-name="period" unicode="." horiz-adv-x="220" 
d="M117 54q0 -26 -19.5 -45t-46.5 -19q-21 0 -33.5 12.5t-12.5 32.5q0 26 19.5 45.5t46.5 19.5q20 0 33 -12.5t13 -33.5z" />
    <glyph glyph-name="periodcentered" unicode="&#xb7;" horiz-adv-x="220" 
d="M164 324q0 -26 -19.5 -44.5t-45.5 -18.5q-21 0 -33.5 12t-12.5 33q0 26 19 45.5t46 19.5q21 0 33.5 -13t12.5 -34z" />
    <glyph glyph-name="periodcentered" unicode="&#x2219;" horiz-adv-x="220" 
d="M164 324q0 -26 -19.5 -44.5t-45.5 -18.5q-21 0 -33.5 12t-12.5 33q0 26 19 45.5t46 19.5q21 0 33.5 -13t12.5 -34z" />
    <glyph glyph-name="perthousand" unicode="&#x2030;" horiz-adv-x="742" 
d="M379 185q0 2 0.5 3.5t0.5 3.5q0 12 -8 20t-22 8q-16 0 -27 -10t-14 -25l-18 -100q0 -2 -0.5 -3.5t-0.5 -3.5q0 -12 8 -20t22 -8q16 0 27 10t14 25zM217 545q0 2 0.5 3.5t0.5 3.5q0 12 -8 20t-22 8q-15 0 -26.5 -10t-14.5 -25l-18 -100q-1 -3 -1 -7q0 -13 8 -20.5t22 -7.5
q15 0 26.5 10t14.5 25zM611 185q1 3 1 7q0 13 -8 20.5t-22 7.5q-16 0 -27 -10t-14 -25l-18 -100q-1 -3 -1 -7q0 -13 8 -20.5t22 -7.5q15 0 26.5 10t14.5 25zM416 85q-7 -38 -35 -61.5t-70 -23.5q-36 0 -56.5 18t-20.5 49q0 5 0.5 9t1.5 9l18 100q7 38 35 61.5t70 23.5
q36 0 56.5 -18.5t20.5 -49.5q0 -4 -0.5 -8t-1.5 -9zM90 6q-5 -5 -10 -6h-24q-10 0 -10 6q0 3 3 8l369 610q4 4 10 6h24q9 0 9 -7q0 -4 -2 -7zM254 445q-7 -38 -35 -61.5t-70 -23.5q-36 0 -56.5 18t-20.5 49q0 5 0.5 9t1.5 9l18 100q7 38 35 61.5t70 23.5q36 0 56.5 -18
t20.5 -50q0 -4 -0.5 -8t-1.5 -9zM648 85q-7 -38 -35 -61.5t-70 -23.5q-36 0 -56.5 18t-20.5 49q0 5 0.5 9t1.5 9l18 100q7 38 35 61.5t70 23.5q36 0 56.5 -18t20.5 -50q0 -4 -0.5 -8t-1.5 -9z" />
    <glyph glyph-name="plus" unicode="+" 
d="M447 220q-1 -10 -12 -10h-160q-11 0 -12 -10l-28 -160q-1 -10 -12 -10h-40q-8 0 -8 7v3l28 160v2q0 8 -8 8h-160q-8 0 -8 7v3l7 40q1 10 12 10h160q10 0 11 10l29 160q1 10 11 10h40q9 0 9 -8v-2l-29 -160v-2q0 -8 9 -8h160q8 0 8 -7v-3z" />
    <glyph glyph-name="plusminus" unicode="&#xb1;" horiz-adv-x="833" 
d="M709 14h-585v69h585v-69zM451 416h258v-68h-258v-166h-69v166h-258v68h258v166h69v-166z" />
    <glyph glyph-name="q" unicode="q" horiz-adv-x="475" 
d="M312 280q1 5 1 15q0 32 -21 53.5t-57 21.5q-18 0 -35 -7.5t-31.5 -19.5t-24 -28.5t-12.5 -34.5l-19 -110q-1 -5 -1 -15q0 -32 21 -53.5t54 -21.5q19 0 37 7.5t32.5 19.5t24 28.5t12.5 34.5zM315 -215q-1 -10 -12 -10h-70q-8 0 -8 7v3l42 237v3q0 9 -7 9q-5 0 -13 -5.5
t-20.5 -11.5t-28.5 -11.5t-35 -5.5q-65 0 -104 38.5t-39 99.5q0 15 3 32l19 110q6 37 24.5 68.5t45.5 54t61.5 35t72.5 12.5q21 0 36.5 -5t26.5 -11.5t18 -11.5t12 -5q6 0 9 11l3 12q2 5 3.5 7.5t7.5 2.5h60q9 0 9 -8v-2z" />
    <glyph glyph-name="question" unicode="?" 
d="M232 54q0 -26 -19.5 -45t-46.5 -19q-21 0 -33.5 12.5t-12.5 32.5q0 26 19.5 45.5t46.5 19.5q20 0 33 -12.5t13 -33.5zM322 640q72 0 112.5 -36.5t40.5 -95.5q0 -43 -10 -73.5t-29 -54t-48 -41t-66 -34.5q-22 -10 -38.5 -20t-28 -22t-17 -28t-5.5 -38v-6q-2 -11 -12 -11
h-69q-6 0 -7.5 2.5t-1.5 9.5q0 60 25 98t78 66q26 14 50.5 25t44 24.5t31 32t11.5 47.5q0 33 -21.5 54t-53.5 21h-38q-18 0 -34.5 -6t-26.5 -16q-18 -17 -27 -28.5t-15 -11.5q-4 0 -5 1l-57 32q-5 3 -5 7q0 8 16.5 28.5t54.5 44.5q20 13 49 21t64 8h38z" />
    <glyph glyph-name="questiondown" unicode="&#xbf;" 
d="M371 -81q4 -1 4 -7q0 -10 -17 -29.5t-53 -43.5q-20 -14 -49 -21.5t-64 -7.5h-38q-72 0 -113 36.5t-41 95.5q0 95 64 153q26 23 58.5 35.5t61.5 28.5q28 15 41.5 34t15.5 48q2 16 3 22.5t11 6.5h69q6 0 7 -3t1 -11q0 -59 -25 -96.5t-78 -65.5q-26 -14 -51 -25t-44 -24
t-30.5 -31.5t-11.5 -47.5q0 -34 21.5 -55t54.5 -21h38q51 0 92 56q4 6 9 6q3 0 5 -1zM355 414q0 -26 -19.5 -45t-45.5 -19q-21 0 -34 12.5t-13 33.5q0 26 20 45t46 19q21 0 33.5 -12.5t12.5 -33.5z" />
    <glyph glyph-name="quotedbl" unicode="&#x22;" horiz-adv-x="310" 
d="M133 459q-3 -9 -12 -9h-27q-8 0 -8 9l7 160q0 11 12 11h68q9 0 9 -7q0 -1 -0.5 -2t-0.5 -2zM273 459q-3 -9 -12 -9h-27q-8 0 -8 9l7 160q0 11 12 11h68q9 0 9 -7q0 -1 -0.5 -2t-0.5 -2z" />
    <glyph glyph-name="quotedblbase" unicode="&#x201e;" horiz-adv-x="315" 
d="M89 110q6 0 7.5 -2.5t1.5 -7.5t-2.5 -13t-4.5 -22l-8 -40.5t-12 -41.5q-9 -24 -22.5 -42t-27 -31t-26 -19.5t-19.5 -6.5q-5 0 -6 7l-8 27q-1 1 -1 3q0 5 6.5 10t16.5 14q17 16 25.5 34.5t8.5 35.5q0 8 -8 8h-11q-8 0 -8 7v3l12 67q1 10 11 10h75zM227 110q9 0 9 -10
q0 -5 -2.5 -13.5t-4.5 -22.5q-3 -18 -7 -38t-13 -43q-9 -24 -22.5 -42t-27 -31t-26 -19.5t-19.5 -6.5q-5 0 -6 7l-8 27q-1 1 -1 3q0 5 7 9.5t16 13.5q17 17 25.5 36t8.5 36q0 7 -8 7h-11q-8 0 -8 7v3l12 67q1 10 11 10h75z" />
    <glyph glyph-name="quotedblleft" unicode="&#x201c;" horiz-adv-x="315" 
d="M200 638q0 -2 0.5 -2.5t0.5 -1.5q0 -4 -2 -5.5t-5 -3.5q-26 -20 -38.5 -39.5t-12.5 -44.5q0 -8 8 -8h11q8 0 8 -7v-3l-12 -67q-1 -10 -11 -10h-75q-6 0 -7.5 2.5t-1.5 7.5t2.5 13.5t4.5 22.5l8 41.5t12 39.5q9 23 21.5 41.5t26 31t26 19t21.5 6.5q5 0 7 -6zM338 638
q0 -2 0.5 -2.5t0.5 -1.5q0 -4 -2 -5.5t-5 -3.5q-26 -20 -38.5 -39.5t-12.5 -44.5q0 -8 8 -8h11q8 0 8 -7v-3l-12 -67q-1 -10 -11 -10h-75q-6 0 -7.5 2.5t-1.5 7.5q0 1 4 26.5t15 65.5q7 28 20.5 51t28 39t29 24.5t25.5 8.5q5 0 7 -6z" />
    <glyph glyph-name="quotedblright" unicode="&#x201d;" horiz-adv-x="315" 
d="M189 620q-6 -53 -19 -93.5t-30.5 -67.5t-36 -40.5t-34.5 -13.5q-6 0 -7 6l-9 27q0 1 -0.5 1.5t-0.5 1.5q0 4 2.5 6t5.5 4q50 39 50 85q0 7 -8 7h-11q-9 0 -9 6q0 1 0.5 2t0.5 2l11 67q3 10 12 10h75q8 0 8 -7v-3zM319 630q8 0 8 -8q0 -2 -3.5 -27.5t-14.5 -65.5
q-8 -29 -21 -52t-28 -39t-29 -24.5t-23 -8.5q-7 0 -8 6l-9 27q0 1 -0.5 1.5t-0.5 1.5q0 4 2.5 6t5.5 4q50 39 50 85q0 7 -8 7h-11q-9 0 -9 6q0 1 0.5 2t0.5 2l11 67q3 10 12 10h75z" />
    <glyph glyph-name="quoteleft" unicode="&#x2018;" horiz-adv-x="177" 
d="M200 638q0 -2 0.5 -2.5t0.5 -1.5q0 -4 -2 -5.5t-5 -3.5q-26 -20 -38.5 -39.5t-12.5 -44.5q0 -8 8 -8h11q8 0 8 -7v-3l-12 -67q-1 -10 -11 -10h-75q-6 0 -7.5 2.5t-1.5 7.5t2.5 13.5t4.5 22.5l8 41.5t12 39.5q9 23 21.5 41.5t26 31t26 19t21.5 6.5q5 0 7 -6z" />
    <glyph glyph-name="quoteright" unicode="&#x2019;" horiz-adv-x="177" 
d="M189 620q-6 -53 -19 -93.5t-30.5 -67.5t-36 -40.5t-34.5 -13.5q-6 0 -7 6l-9 27q0 1 -0.5 1.5t-0.5 1.5q0 4 2.5 6t5.5 4q50 39 50 85q0 7 -8 7h-11q-9 0 -9 6q0 1 0.5 2t0.5 2l11 67q3 10 12 10h75q8 0 8 -7v-3z" />
    <glyph glyph-name="quotesinglbase" unicode="&#x201a;" horiz-adv-x="177" 
d="M89 110q6 0 7.5 -2.5t1.5 -7.5t-2.5 -13t-4.5 -22l-8 -40.5t-12 -41.5q-9 -24 -22.5 -42t-27 -31t-26 -19.5t-19.5 -6.5q-5 0 -6 7l-8 27q-1 1 -1 3q0 5 6.5 10t16.5 14q17 16 25.5 34.5t8.5 35.5q0 8 -8 8h-11q-8 0 -8 7v3l12 67q1 10 11 10h75z" />
    <glyph glyph-name="quotesingle" unicode="'" horiz-adv-x="170" 
d="M133 459q-3 -9 -12 -9h-27q-8 0 -8 9l7 160q0 11 12 11h68q9 0 9 -7q0 -1 -0.5 -2t-0.5 -2z" />
    <glyph glyph-name="r" unicode="r" horiz-adv-x="306" 
d="M307 362q-2 -10 -8 -10q-7 0 -18.5 3.5t-29.5 3.5q-42 0 -69.5 -23.5t-35.5 -65.5l-46 -260q-1 -10 -12 -10h-70q-8 0 -8 7v3l76 430q1 10 11 10h60q9 0 9 -8v-2l-6 -32v-3q0 -9 7 -9q4 0 13 8.5t22.5 18.5t30 18.5t35.5 8.5q29 0 40.5 -1.5t11.5 -9.5v-2z" />
    <glyph glyph-name="registered" unicode="&#xae;" horiz-adv-x="440" 
d="M291 491q0 29 -25 29h-32q-11 0 -12 -10l-8 -47v-3q0 -7 8 -7h32q26 0 37 32v6zM322 481q-3 -12 -9.5 -20.5t-13 -14.5l-11.5 -10.5t-5 -9.5v-2l16 -50q0 -1 0.5 -2t0.5 -2q0 -10 -13 -10h-16q-6 0 -7 6l-14 53q-5 6 -8 6h-25q-11 0 -12 -10l-8 -45q-1 -10 -12 -10h-11
q-8 0 -8 7v3l30 168q1 10 12 10h63q25 0 39.5 -14t14.5 -35q0 -4 -2 -14zM396 460q1 7 1.5 13.5t0.5 12.5q0 53 -33.5 83.5t-93.5 30.5h-4q-35 0 -65 -10.5t-53 -29t-38 -44t-19 -56.5l-3 -20q-1 -7 -1.5 -13.5t-0.5 -13.5q0 -53 33.5 -83t93.5 -30h4q35 0 65 10.5t53 29
t37.5 44t19.5 56.5zM423 440q-6 -38 -23.5 -69t-45 -53.5t-63.5 -35t-78 -12.5h-4q-72 0 -112.5 37t-40.5 101q0 15 3 32l3 20q6 37 23.5 68.5t45 54t63.5 35t78 12.5h4q72 0 112.5 -37t40.5 -101q0 -16 -3 -32z" />
    <glyph glyph-name="ring" unicode="&#x2da;" horiz-adv-x="500" 
d="M343 620q0 2 0.5 3t0.5 3q0 13 -9 22t-22 9q-16 0 -29.5 -11.5t-16.5 -27.5l-6 -29q0 -2 -0.5 -3.5t-0.5 -3.5q0 -13 9 -21.5t23 -8.5q16 0 29 11.5t16 27.5zM389 589q-8 -39 -35.5 -62t-68.5 -23q-36 0 -57 19t-21 50q0 5 0.5 9t1.5 9l6 29q8 38 36 61t68 23
q36 0 57 -19t21 -49q0 -5 -0.5 -9t-1.5 -9z" />
    <glyph glyph-name="s" unicode="s" horiz-adv-x="440" 
d="M257 460q34 0 60.5 -8.5t45.5 -22.5t29 -32t10 -37q0 -5 -7 -8l-63 -29l-6 -2q-2 0 -6 6q-15 25 -30 40.5t-46 15.5h-30q-40 0 -61.5 -17t-21.5 -43q0 -15 7.5 -23.5t22 -14.5t35.5 -11t49 -11q62 -14 92.5 -35t30.5 -64q0 -36 -14.5 -67.5t-40 -55t-61 -37.5t-78.5 -14
h-30q-35 0 -62 9t-45.5 23.5t-28 32t-9.5 35.5q0 5 7 8l63 29l3 1.5t3 0.5t7 -6l13.5 -21.5t15 -18t19.5 -12t28 -4.5h30q38 0 62 19.5t24 45.5q0 15 -7.5 23.5t-22 14t-36.5 10l-50 10.5q-61 14 -90.5 34t-29.5 64q0 36 14.5 67t39.5 54.5t59.5 37t75.5 13.5h30z" />
    <glyph glyph-name="section" unicode="&#xa7;" 
d="M311 119q5 0 13.5 16t8.5 40q0 42 -42 71q-23 15 -43 26t-35.5 18t-24.5 10.5t-10 3.5q-5 0 -15.5 -17.5t-10.5 -42.5q0 -34 31 -57q53 -38 89 -53t39 -15zM327 640q33 0 60.5 -9t47 -23t30 -32t10.5 -37q0 -5 -7 -8l-70 -32q-2 -1 -6 -1q-3 0 -6 6q-14 25 -28 40.5
t-45 15.5h-16q-21 0 -40 -8.5t-34 -22.5t-24 -32.5t-9 -38.5q0 -32 24 -49.5t69 -40.5q35 -17 61.5 -34t44.5 -36t27 -42.5t9 -54.5q0 -41 -8.5 -65t-23.5 -46l-14.5 -22t-5.5 -13q0 -1 0.5 -1.5t0.5 -1.5q14 -39 14 -68q0 -44 -16 -82.5t-44.5 -66.5t-67.5 -44t-86 -16h-42
q-35 0 -62.5 10t-46.5 25t-28.5 32.5t-9.5 33.5q0 5 7 8l68 32q2 1 5 1t8 -6q7 -12 13.5 -22t14 -17.5t18 -12t27.5 -4.5h42q21 0 40 8.5t34 23t24 33.5t9 40q0 36 -26 56.5t-75 45.5q-33 16 -58 32t-42 34t-25.5 39.5t-8.5 48.5q0 82 51 140q3 4 3 7q0 8 -9 25.5t-9 43.5
q0 43 16 81t44.5 66.5t68 44.5t86.5 16h16z" />
    <glyph glyph-name="semicolon" unicode=";" horiz-adv-x="220" 
d="M125 98l-13 -69.5t-16 -53.5q-11 -24 -26 -43.5t-30.5 -33t-29 -21t-22.5 -7.5q-5 0 -7 7l-9 29v3q0 5 7 9.5t17 14.5q17 17 26.5 37t9.5 38q0 8 -8 8h-13q-9 0 -9 6q0 1 0.5 1.5t0.5 2.5l12 72q1 10 12 10h90q8 0 8 -7v-3zM164 323q0 -26 -19.5 -44.5t-45.5 -18.5
q-21 0 -33.5 12t-12.5 33q0 26 19 45.5t46 19.5q21 0 33.5 -13t12.5 -34z" />
    <glyph glyph-name="semicolon" unicode="&#x37e;" horiz-adv-x="220" 
d="M125 98l-13 -69.5t-16 -53.5q-11 -24 -26 -43.5t-30.5 -33t-29 -21t-22.5 -7.5q-5 0 -7 7l-9 29v3q0 5 7 9.5t17 14.5q17 17 26.5 37t9.5 38q0 8 -8 8h-13q-9 0 -9 6q0 1 0.5 1.5t0.5 2.5l12 72q1 10 12 10h90q8 0 8 -7v-3zM164 323q0 -26 -19.5 -44.5t-45.5 -18.5
q-21 0 -33.5 12t-12.5 33q0 26 19 45.5t46 19.5q21 0 33.5 -13t12.5 -34z" />
    <glyph glyph-name="seven" unicode="7" 
d="M479 514q-20 -113 -189 -227l-42.5 -28t-37.5 -27t-28.5 -31t-15.5 -41l-26 -150q-1 -10 -12 -10h-70q-8 0 -8 7v3l26 150q7 42 28 78.5t53 63.5q27 23 60.5 43.5l71.5 43.5q45 27 69.5 57t30.5 68l4 26v3q0 7 -8 7h-250q-8 0 -8 7v3l10 60q1 10 12 10h340q8 0 8 -7v-3z
" />
    <glyph glyph-name="six" unicode="6" 
d="M338 200q1 4 1 8v8q0 32 -21 53t-54 21h-30q-38 0 -68.5 -26t-37.5 -64l-7 -40q-1 -4 -1 -8v-8q0 -32 21 -53t54 -21h30q46 9 73 32t33 58zM326 640q34 0 61 -9t46.5 -23t30 -32.5t10.5 -36.5q0 -5 -6 -8l-69 -32q-6 -2 -7 -2q-3 0 -6 7l-13 22.5t-13.5 18t-19 11.5
t-28.5 4h-30q-38 0 -68.5 -26t-37.5 -64l-22 -122v-3q0 -8 6 -8q4 0 12.5 5l20.5 11.5t28.5 11.5t36.5 5h30q66 0 104.5 -38t38.5 -99q0 -17 -3 -33l-7 -40q-7 -38 -25 -69.5t-45.5 -54t-63 -34.5t-76.5 -12h-30q-72 0 -112.5 36.5t-40.5 98.5q0 17 3 35l55 310
q7 38 25 69.5t45.5 54t63 34.5t76.5 12h30z" />
    <glyph glyph-name="slash" unicode="/" horiz-adv-x="325" 
d="M10 8q-6 -8 -14 -8h-33q-14 0 -14 11q0 4 3 10l360 601q6 8 14 8h33q14 0 14 -11q0 -4 -3 -10z" />
    <glyph glyph-name="Aacute" unicode="&#xc1;" horiz-adv-x="450" 
d="M257 426q0 5 -1.5 16t-2.5 28h-4q-7 -14 -11.5 -25l-8.5 -20l-82 -187q-1 -2 -1 -6q0 -7 9 -7h105q12 0 12 11v2zM393 10q0 -10 -12 -10h-75q-9 0 -9 7l-13 132q0 6 -9 6h-162q-9 0 -11 -6l-61 -132q-3 -7 -11 -7h-75q-10 0 -10 7q0 2 2 6l294 610q3 7 11 7h54q8 0 9 -7
l78 -610v-3zM301 688l-8 -3h-43q-9 0 -9 7q0 4 4 8l104 125q2 2 9 5h88q10 0 10 -7q0 -6 -6 -10z" />
    <glyph glyph-name="sterling" unicode="&#xa3;" 
d="M159 460q7 38 26.5 71t48 57t64 38t73.5 14q33 0 60.5 -9t47 -23t30 -32t10.5 -37q0 -5 -7 -8l-70 -32q-2 -1 -6 -1q-3 0 -6 6q-14 26 -28.5 41t-47.5 15q-18 0 -35 -7t-31 -19.5t-24 -29t-13 -34.5l-18 -100v-3q0 -7 8 -7h70q9 0 9 -8v-2l-11 -60q-1 -10 -12 -10h-70
q-10 0 -11 -10l-20 -110q-3 -15 -8.5 -27.5t-11.5 -21.5t-10.5 -15t-4.5 -10q0 -6 10 -6h226q8 0 8 -7v-3l-10 -60q-1 -10 -12 -10h-430q-8 0 -8 7v3l10 60q1 10 12 10h46q83 23 95 90l18 100v2q0 8 -9 8h-25q-8 0 -8 7v3l11 60q1 10 11 10h25q11 0 12 10z" />
    <glyph glyph-name="t" unicode="t" horiz-adv-x="315" 
d="M275 380q-1 -10 -12 -10h-70q-9 0 -12 -10l-35 -200q-1 -5 -1 -8.5v-7.5q0 -28 17.5 -47.5t50.5 -25.5q6 -3 6 -8v-2l-11 -60q-3 -10 -20 -10q-28 0 -52.5 10t-43 28t-29 43.5t-10.5 56.5q0 14 3 31l35 200v3q0 7 -8 7h-55q-9 0 -9 6q0 1 0.5 2t0.5 2l8 35l137 122l7 3
h31q8 0 8 -7v-3l-12 -70v-3q0 -7 8 -7h70q9 0 9 -8v-2z" />
    <glyph glyph-name="three" unicode="3" 
d="M456 445q-3 -14 -11 -31t-20 -32q-24 -29 -41 -41.5t-17 -16.5q0 -6 11 -16t19 -27q17 -33 17 -67v-8t-1 -8l-5 -30q-14 -82 -70.5 -130t-141.5 -48h-30q-35 0 -62.5 9.5t-46.5 24.5t-28.5 33t-9.5 35q0 5 7 8l68 32q4 2 6 2q4 0 7 -7q21 -57 73 -57h30q38 0 68.5 26
t37.5 64l6 35q1 4 1 8v8q0 31 -21 52.5t-54 21.5h-80q-8 0 -8 7v3l11 60q1 10 11 10h80q37 0 67.5 26t38.5 64l3 15q1 5 1.5 8.5t0.5 8.5q0 31 -21.5 52t-54.5 21h-30q-18 0 -34.5 -6t-26.5 -16q-18 -17 -27 -28.5t-15 -11.5q-4 0 -5 1l-57 32q-5 3 -5 7q0 8 16.5 28.5
t54.5 44.5q20 13 49 21t64 8h30q72 0 112.5 -37t40.5 -100q0 -18 -5 -43z" />
    <glyph glyph-name="tilde" unicode="&#x2dc;" horiz-adv-x="500" 
d="M440 595q3 -3 3 -7q0 -2 -2 -6q-23 -35 -49 -51.5t-49 -16.5q-32 0 -59 26l-17 13q-16 13 -34 13q-12 0 -21.5 -5t-16.5 -11l-12.5 -11t-10.5 -5q-1 0 -5 2l-19 16q-4 3 -4 6q0 8 28 36q37 37 72 37q32 0 59 -24l17 -15q14 -12 34 -12q13 0 23.5 5t18 11.5t12.5 11.5t8 5
q5 0 7 -2z" />
    <glyph glyph-name="trademark" unicode="&#x2122;" horiz-adv-x="408" 
d="M192 527q-1 -10 -12 -10h-27q-9 0 -12 -10l-24 -137q-1 -10 -12 -10h-12q-8 0 -8 7v3l24 137v3q0 7 -8 7h-27q-8 0 -8 7v3l2 11q1 10 12 10h106q8 0 8 -7v-3zM376 370q-1 -10 -12 -10h-12q-8 0 -8 7v3l13 72v3q0 9 -7 9q-5 0 -11 -7l-32 -41q-3 -2 -5.5 -3t-4.5 -2h-4
l-7 5l-20 41q-6 6 -11 6q-6 0 -8 -11l-13 -72q-1 -10 -12 -10h-12q-8 0 -8 7v3l30 168q1 10 12 10h12l8 -5l32 -81q3 -7 8 -7t10 7l62 81l10 5h12q8 0 8 -7v-3z" />
    <glyph glyph-name="two" unicode="2" 
d="M319 640q72 0 112.5 -36.5t40.5 -96.5q0 -72 -39.5 -125.5t-120.5 -99.5l-69 -38.5t-56 -35.5t-39.5 -40t-19.5 -52l-4 -26v-3q0 -7 8 -7h250q8 0 8 -7v-3l-10 -60q-1 -10 -12 -10h-340q-8 0 -8 7v3l18 106q7 41 24 73.5t43.5 59.5t62 50.5t80.5 47.5q63 34 97.5 64
t34.5 74q0 33 -21.5 54t-53.5 21h-38q-18 0 -34.5 -6t-26.5 -16q-18 -17 -27 -28.5t-15 -11.5q-4 0 -5 1l-57 32q-5 3 -5 7q0 8 16.5 28.5t54.5 44.5q20 13 49 21t64 8h38z" />
    <glyph glyph-name="u" unicode="u" horiz-adv-x="480" 
d="M360 10q-1 -10 -12 -10h-60q-8 0 -8 7v3l2 12v3q0 9 -7 9q-4 0 -12 -5.5t-21 -11.5t-30.5 -11.5t-40.5 -5.5q-66 0 -106 37t-40 99q0 16 3 34l48 270q1 10 11 10h70q9 0 9 -8v-2l-48 -270q-1 -4 -1 -8v-8q0 -31 21 -52.5t54 -21.5q19 0 36.5 7t32 19.5t24.5 29t13 34.5
l48 270q1 10 11 10h70q9 0 9 -8v-2z" />
    <glyph glyph-name="uacute" unicode="&#xfa;" horiz-adv-x="480" 
d="M360 10q-1 -10 -12 -10h-60q-8 0 -8 7v3l2 12v3q0 9 -7 9q-4 0 -12 -5.5t-21 -11.5t-30.5 -11.5t-40.5 -5.5q-66 0 -106 37t-40 99q0 16 3 34l48 270q1 10 11 10h70q9 0 9 -8v-2l-48 -270q-1 -4 -1 -8v-8q0 -31 21 -52.5t54 -21.5q19 0 36.5 7t32 19.5t24.5 29t13 34.5
l48 270q1 10 11 10h70q9 0 9 -8v-2zM281 508l-8 -3h-43q-9 0 -9 7q0 4 4 8l104 125q2 2 9 5h88q10 0 10 -7q0 -6 -6 -10z" />
    <glyph glyph-name="ucircumflex" unicode="&#xfb;" horiz-adv-x="480" 
d="M386 521q2 -4 2 -7q0 -9 -13 -9h-48l-7 5l-32 68q-3 6 -7 6t-8 -6l-55 -68l-9 -5h-48q-10 0 -10 7q0 2 5 9l111 125l9 4h36l7 -4zM360 10q-1 -10 -12 -10h-60q-8 0 -8 7v3l2 12v3q0 9 -7 9q-4 0 -12 -5.5t-21 -11.5t-30.5 -11.5t-40.5 -5.5q-66 0 -106 37t-40 99
q0 16 3 34l48 270q1 10 11 10h70q9 0 9 -8v-2l-48 -270q-1 -4 -1 -8v-8q0 -31 21 -52.5t54 -21.5q19 0 36.5 7t32 19.5t24.5 29t13 34.5l48 270q1 10 11 10h70q9 0 9 -8v-2z" />
    <glyph glyph-name="udieresis" unicode="&#xfc;" horiz-adv-x="480" 
d="M360 10q-1 -10 -12 -10h-60q-8 0 -8 7v3l2 12v3q0 9 -7 9q-4 0 -12 -5.5t-21 -11.5t-30.5 -11.5t-40.5 -5.5q-66 0 -106 37t-40 99q0 16 3 34l48 270q1 10 11 10h70q9 0 9 -8v-2l-48 -270q-1 -4 -1 -8v-8q0 -31 21 -52.5t54 -21.5q19 0 36.5 7t32 19.5t24.5 29t13 34.5
l48 270q1 10 11 10h70q9 0 9 -8v-2zM254 586q0 -23 -18 -40.5t-41 -17.5q-18 0 -30 11.5t-12 30.5q0 23 18.5 40.5t41.5 17.5q18 0 29.5 -11.5t11.5 -30.5zM411 586q0 -23 -18.5 -40.5t-41.5 -17.5q-18 0 -30 11.5t-12 30.5q0 23 18.5 40.5t41.5 17.5q18 0 30 -11.5
t12 -30.5z" />
    <glyph glyph-name="ugrave" unicode="&#xf9;" horiz-adv-x="480" 
d="M319 519q0 -2 0.5 -2.5t0.5 -2.5q0 -10 -12 -10h-43l-6 3l-105 125q-3 3 -3 7q0 10 13 10h88l7 -5zM360 10q-1 -10 -12 -10h-60q-8 0 -8 7v3l2 12v3q0 9 -7 9q-4 0 -12 -5.5t-21 -11.5t-30.5 -11.5t-40.5 -5.5q-66 0 -106 37t-40 99q0 16 3 34l48 270q1 10 11 10h70
q9 0 9 -8v-2l-48 -270q-1 -4 -1 -8v-8q0 -31 21 -52.5t54 -21.5q19 0 36.5 7t32 19.5t24.5 29t13 34.5l48 270q1 10 11 10h70q9 0 9 -8v-2z" />
    <glyph glyph-name="underscore" unicode="_" horiz-adv-x="220" 
d="M130 -215q-1 -10 -12 -10h-210q-8 0 -8 7v3l5 25q1 10 11 10h210q9 0 9 -8v-2z" />
    <glyph glyph-name="v" unicode="v" horiz-adv-x="430" 
d="M199 6q-6 -4 -13 -6h-58q-6 1 -8 6l-98 430q0 2 -0.5 2.5t-0.5 1.5q0 10 12 10h75l8 -6l64 -327l176 327q4 4 10 6h75q9 0 9 -7q0 -4 -2 -7z" />
    <glyph glyph-name="w" unicode="w" horiz-adv-x="607" 
d="M408 7q-3 -7 -11 -7h-54q-9 0 -9 7l-27 327l-144 -327q-3 -7 -11 -7h-54q-8 0 -9 7l-57 430v3q0 10 12 10h75q3 0 9.5 -77.5t23.5 -235.5l100.5 233.5t38.5 79.5h66q4 0 8.5 -33t8.5 -81t7.5 -101.5t7.5 -93.5q69 152 102 230.5t41 78.5h75q10 0 10 -7q0 -2 -2 -6z" />
    <glyph glyph-name="x" unicode="x" horiz-adv-x="408" 
d="M249 231q-2 -2 -2 -7v-3l98 -206q1 -2 1 -5q0 -10 -12 -10h-82l-8 5l-63 142q-4 7 -8 7t-10 -7l-113 -142q-4 -3 -10 -5h-80q-9 0 -9 6q0 4 4 9l169 205q2 6 2 9v3l-97 203q-2 4 -2 6q0 9 12 9h81l7 -5l64 -143q3 -6 7 -6q3 0 8 6l115 143q6 4 9 5h83q10 0 10 -7
q0 -2 -4 -8z" />
    <glyph glyph-name="y" unicode="y" horiz-adv-x="480" 
d="M427 450q9 0 9 -10q0 -28 -7 -50t-10 -40l-71 -405q-15 -85 -70.5 -132.5t-140.5 -47.5q-36 0 -63.5 10t-46.5 25t-29 33t-10 33q0 5 7 8l68 32q2 1 5 1q4 0 9 -6l13 -22t13.5 -17.5t18.5 -12t29 -4.5q19 0 37 7t32 19.5t24 29t13 34.5l14 83v3q0 8 -7 8q-4 0 -11 -4.5
t-17.5 -10t-25 -10t-32.5 -4.5q-72 0 -112.5 36.5t-40.5 98.5q0 17 3 35l48 270q1 10 11 10h70q9 0 9 -8v-2l-48 -270q-1 -4 -1 -8v-8q0 -31 21 -52.5t54 -21.5q19 0 36.5 7t32 19.5t24.5 29t13 34.5l48 270q1 10 11 10h70z" />
    <glyph glyph-name="ydieresis" unicode="&#xff;" horiz-adv-x="480" 
d="M253 586q0 -23 -18 -40.5t-41 -17.5q-18 0 -30 11.5t-12 30.5q0 23 18.5 40.5t41.5 17.5q18 0 29.5 -11.5t11.5 -30.5zM410 586q0 -23 -18.5 -40.5t-41.5 -17.5q-18 0 -30 11.5t-12 30.5q0 23 18.5 40.5t41.5 17.5q18 0 30 -11.5t12 -30.5zM427 450q9 0 9 -10
q0 -28 -7 -50t-10 -40l-71 -405q-15 -85 -70.5 -132.5t-140.5 -47.5q-36 0 -63.5 10t-46.5 25t-29 33t-10 33q0 5 7 8l68 32q2 1 5 1q4 0 9 -6l13 -22t13.5 -17.5t18.5 -12t29 -4.5q19 0 37 7t32 19.5t24 29t13 34.5l14 83v3q0 8 -7 8q-4 0 -11 -4.5t-17.5 -10t-25 -10
t-32.5 -4.5q-72 0 -112.5 36.5t-40.5 98.5q0 17 3 35l48 270q1 10 11 10h70q9 0 9 -8v-2l-48 -270q-1 -4 -1 -8v-8q0 -31 21 -52.5t54 -21.5q19 0 36.5 7t32 19.5t24.5 29t13 34.5l48 270q1 10 11 10h70z" />
    <glyph glyph-name="yen" unicode="&#xa5;" 
d="M334 345q-4 -6 -4 -9q0 -6 10 -6h121q8 0 8 -7v-3l-8 -50q-3 -10 -12 -10h-150q-11 0 -12 -10l-14 -80v-3q0 -7 8 -7h150q8 0 8 -7v-3l-8 -50q-3 -10 -12 -10h-150q-11 0 -12 -10l-12 -70q-1 -10 -12 -10h-70q-8 0 -8 7v3l12 70v3q0 7 -8 7h-150q-8 0 -8 7v3l8 50
q3 10 12 10h150q11 0 12 10l14 80v2q0 8 -8 8h-150q-9 0 -9 6q0 1 0.5 2t0.5 2l8 50q3 10 12 10h121q13 0 13 10q0 3 -1 5l-97 270q-1 2 -1 5q0 10 13 10h82l8 -6l70 -228q3 -7 7 -7q7 0 11 7l150 228q6 5 10 6h82q10 0 10 -6q0 -3 -4 -9z" />
    <glyph glyph-name="z" unicode="z" horiz-adv-x="430" 
d="M141 95q-2 -2 -3 -4t-1 -5q0 -6 10 -6h194q8 0 8 -7v-3l-10 -60q-1 -10 -12 -10h-349q-10 0 -10 6q0 3 4 9l262 339q4 6 4 9q0 6 -10 6h-175q-8 0 -8 7v3l10 60q1 10 12 10h331q11 0 11 -7q0 -2 -4 -8z" />
    <glyph glyph-name="zero" unicode="0" 
d="M386 470q1 4 1 8v8q0 31 -21 52.5t-54 21.5h-30q-38 0 -68.5 -26t-37.5 -64l-55 -310q-1 -4 -1 -8v-8q0 -32 21 -53t54 -21h30q38 0 68.5 26t37.5 64zM421 160q-7 -38 -25 -69t-45.5 -53.5t-63 -35t-76.5 -12.5h-30q-72 0 -112.5 36.5t-40.5 98.5q0 17 3 35l55 310
q7 38 25 69.5t45.5 54t63 34.5t76.5 12h30q72 0 112.5 -36.5t40.5 -98.5q0 -17 -3 -35z" />
    <glyph glyph-name="A" unicode="A" horiz-adv-x="450" 
d="M257 426q0 5 -1.5 16t-2.5 28h-4q-7 -14 -11.5 -25l-8.5 -20l-82 -187q-1 -2 -1 -6q0 -7 9 -7h105q12 0 12 11v2zM393 10q0 -10 -12 -10h-75q-9 0 -9 7l-13 132q0 6 -9 6h-162q-9 0 -11 -6l-61 -132q-3 -7 -11 -7h-75q-10 0 -10 7q0 2 2 6l294 610q3 7 11 7h54q8 0 9 -7
l78 -610v-3z" />
    <glyph glyph-name="AE" unicode="&#xc6;" horiz-adv-x="698" 
d="M317 463l-14 -21t-11 -15l-139 -187q-3 -5 -3 -8q0 -7 10 -7h106q10 0 11 10l14 77l14.5 79t14.5 71zM695 560q-1 -10 -12 -10h-250q-11 0 -12 -10l-30 -170v-3q0 -7 8 -7h205q9 0 9 -8v-2l-11 -60q-1 -10 -12 -10h-205q-10 0 -11 -10l-32 -180v-3q0 -7 8 -7h250
q8 0 8 -7v-3l-10 -60q-1 -10 -12 -10h-340q-8 0 -8 7v3l22 125v3q0 7 -8 7h-163l-11 -4l-100 -136q-4 -3 -10 -5h-73q-10 0 -10 6q0 5 4 9l467 610q2 2 5 3t5 2h331q8 0 8 -7v-3z" />
    <glyph glyph-name="Eth" unicode="&#xd0;" horiz-adv-x="525" 
d="M399 460q1 4 1 8v8q0 32 -21 53t-54 21h-110q-11 0 -12 -10l-30 -170v-3q0 -7 8 -7h85q9 0 9 -8v-2l-13 -70q-1 -10 -11 -10h-85q-11 0 -12 -10l-30 -170v-3q0 -7 8 -7h110q38 0 68.5 26t37.5 64zM440 180q-7 -42 -25.5 -75t-46 -56.5t-63 -36t-77.5 -12.5h-200
q-8 0 -8 7v3l44 250v3q0 7 -8 7h-32q-9 0 -9 8v2l13 70q1 10 11 10h32q11 0 12 10l44 250q1 10 12 10h200q72 0 112 -37t40 -103q0 -10 -1 -19.5t-3 -20.5z" />
    <glyph glyph-name="Lslash" unicode="&#x141;" horiz-adv-x="455" 
d="M380 10q-1 -10 -12 -10h-340q-8 0 -8 7v3l37 209v2q0 9 -7 9q-5 0 -9 -4l-18 -16q-4 -4 -7 -4q-4 0 -7 4l-25 28q-2 2 -2 7q0 4 4 7l86 72l4 7l51 289q1 10 12 10h70q8 0 8 -7v-3l-31 -179v-3q0 -8 6 -8q5 0 10 4l21 17q4 4 7 4q4 0 7 -4l22 -28q2 -4 2 -6q0 -3 -5 -8
l-86 -73l-4 -7l-42 -239v-3q0 -7 8 -7h250q8 0 8 -7v-3z" />
    <glyph glyph-name="Scaron" unicode="&#x160;" horiz-adv-x="440" 
d="M292 640q33 0 60.5 -8.5t47 -22.5t30 -31.5t10.5 -35.5q0 -8 -7 -11l-70 -32q-2 -1 -5 -1q-4 0 -7 6q-14 25 -28 40.5t-45 15.5h-16q-20 0 -39.5 -8.5t-34.5 -22.5t-24 -32t-9 -38q0 -32 24 -50t69 -41q35 -17 62 -34.5t45 -37t27 -42.5t9 -53q0 -46 -16 -84.5
t-44.5 -66.5t-67.5 -44t-86 -16h-42q-35 0 -62.5 9.5t-46.5 24.5t-28.5 33t-9.5 35q0 5 7 8l68 32q4 2 6 2q4 0 7 -7q21 -57 73 -57h42q21 0 40.5 8.5t34 23t23.5 34t9 40.5q0 28 -18.5 48.5t-56.5 40.5l-64.5 34t-51 34t-33.5 41t-12 55q0 46 16 84.5t44.5 66.5t67.5 44
t86 16h16zM319 688l-9 -4h-36l-7 4l-67 125q-2 4 -2 7q0 9 13 9h48l7 -5l31 -68q3 -6 7 -6q3 0 8 6l56 68q4 5 13 5h44q10 0 10 -7q0 -2 -5 -9z" />
    <glyph glyph-name="Thorn" unicode="&#xde;" horiz-adv-x="485" 
d="M383 370q1 5 1.5 8.5t0.5 8.5q0 30 -21.5 51.5t-54.5 21.5h-110q-11 0 -12 -10l-30 -170v-2q0 -8 9 -8h110q18 0 35 6.5t31.5 18.5t24.5 28.5t14 36.5zM323 540q72 0 112 -37.5t40 -103.5q0 -58 -31 -111q-26 -45 -75 -71.5t-108 -26.5h-110q-10 0 -11 -10l-30 -170
q-1 -10 -12 -10h-70q-8 0 -8 7v3l107 610q1 10 12 10h70q8 0 8 -7v-3l-12 -70v-3q0 -7 8 -7h110z" />
    <glyph glyph-name="Yacute" unicode="&#xdd;" horiz-adv-x="450" 
d="M264 289l-49 -279q-1 -10 -12 -10h-70q-8 0 -8 7v3l49 279l-117 326q-1 2 -1 5q0 10 13 10h82q3 0 8 -6l70 -228q3 -7 7 -7q7 0 11 7l150 228q6 5 10 6h82q10 0 10 -6q0 -3 -1 -5t-3 -4zM298 688l-8 -3h-43q-9 0 -9 7q0 4 4 8l104 125q2 2 9 5h88q10 0 10 -7q0 -6 -6 -10
z" />
    <glyph glyph-name="Zcaron" unicode="&#x17d;" horiz-adv-x="440" 
d="M119 94q-3 -5 -3 -8q0 -6 9 -6h222q8 0 8 -7v-3l-10 -60q-1 -10 -12 -10h-356q-9 0 -9 7q0 4 2 7l327 522q3 4 3 7q0 7 -10 7h-200q-8 0 -8 7v3l10 60q3 10 12 10h335q9 0 9 -7q0 -4 -2 -7zM297 688l-9 -4h-36l-7 4l-67 125q-2 4 -2 7q0 9 13 9h48l7 -5l31 -68q3 -6 7 -6
q3 0 8 6l56 68q4 5 13 5h44q10 0 10 -7q0 -2 -5 -9z" />
    <glyph glyph-name="brokenbar" unicode="&#xa6;" horiz-adv-x="500" 
d="M287 -171h-73v370h73v-370zM287 329h-73v370h73v-370z" />
    <glyph glyph-name="eth" unicode="&#xf0;" 
d="M323 200q1 4 1 8v8q0 32 -21 53t-54 21q-20 0 -37.5 -7t-32 -19.5t-24 -29t-12.5 -34.5l-7 -40q-1 -4 -1 -8v-8q0 -32 21 -53t54 -21q19 0 37 7t32.5 19.5t24 29t12.5 34.5zM551 590q1 -2 1 -5q0 -4 -5 -9l-77 -48l-6 -10v-13q0 -19 -3 -35l-55 -310q-7 -38 -25 -69
t-45.5 -53.5t-63 -35t-76.5 -12.5q-72 0 -112.5 36.5t-40.5 98.5q0 17 3 35l7 40q6 33 24 64.5t47 57.5q54 48 129 48q18 0 32 -5t24.5 -11.5l18 -11.5t12.5 -5q7 0 9 11l18 99v3q0 8 -6 8q-5 0 -9 -3l-64 -41q-5 -3 -7 -3q-4 0 -7 5l-16 33q-1 2 -1 5q0 4 6 9l89 56
q4 3 4 8t-2 8q-12 14 -25.5 19.5t-31.5 5.5q-41 0 -67 -26q-16 -16 -23 -26.5t-12 -10.5q-2 0 -6 2l-57 32q-5 3 -5 7q0 6 16.5 27t54.5 46q20 13 49 21t64 8q62 0 92 -24q20 -17 30 -27t14 -10q2 0 7 3l67 42q4 3 7 3q5 0 7 -5z" />
    <glyph glyph-name="lslash" unicode="&#x142;" horiz-adv-x="220" 
d="M249 423q2 -4 2 -6q0 -3 -5 -8l-86 -73l-4 -7l-56 -319q-1 -10 -12 -10h-70q-8 0 -8 7v3l37 209v2q0 9 -7 9q-5 0 -9 -4l-18 -16q-6 -4 -8 -4q-3 0 -6 4l-25 28q-2 2 -2 5q0 5 4 9l86 72l4 7l51 289q3 10 12 10h70q8 0 8 -7v-3l-31 -179v-3q0 -8 6 -8q5 0 10 4l21 17
q4 4 7 4q4 0 7 -4z" />
    <glyph glyph-name="minus" unicode="&#x2212;" horiz-adv-x="833" 
d="M709 264h-585v69h585v-69z" />
    <glyph glyph-name="multiply" unicode="&#xd7;" horiz-adv-x="833" 
d="M649 575l48 -48l-229 -229l229 -229l-48 -47l-229 228l-229 -228l-48 47l229 229l-229 229l48 48l229 -229z" />
    <glyph glyph-name="onehalf" unicode="&#xbd;" horiz-adv-x="954" 
d="M833 358q45 0 70.5 -20.5t25.5 -53.5q0 -41 -24.5 -70.5t-75.5 -55.5l-44 -21.5t-35 -20t-24.5 -22.5t-12.5 -29l-3 -15v-1q0 -4 5 -4h158q5 0 5 -4v-2l-7 -33q0 -6 -7 -6h-214q-5 0 -5 4v2l11 59q9 46 42.5 74t89.5 55q40 20 61.5 36.5t21.5 41.5q0 18 -13.5 30
t-33.5 12h-24q-25 0 -38 -13q-11 -10 -17 -16t-10 -6h-3l-36 18q-3 1 -3 4q0 5 10.5 16t34.5 25q27 16 71 16h24zM327 10q-7 -10 -18 -10h-23q-18 0 -18 16q0 6 3 12l352 592q7 10 18 10h23q18 0 18 -17q0 -5 -3 -11zM241 283q0 -6 -7 -6h-196q-5 0 -5 4v2l7 33q1 6 7 6h63
q7 0 8 5l40 203v1q0 5 -4 5q-3 0 -6 -3l-36 -27q-2 -2 -5 -2q-2 0 -4 2l-22 24q-2 1 -2 4q0 1 3 4l120 90l4 2h22q5 0 5 -4v-2l-58 -297v-1q0 -4 5 -4h63q5 0 5 -4v-2z" />
    <glyph glyph-name="onequarter" unicode="&#xbc;" horiz-adv-x="954" 
d="M836 260q0 5 -4 5q-3 0 -6 -3l-121 -127q-2 -2 -2 -5q0 -4 6 -4h95q5 0 7 6l25 127v1zM915 87q0 -6 -6 -6h-45q-6 0 -7 -5l-14 -70q-2 -6 -8 -6h-44q-5 0 -5 4v2l14 70v1q0 4 -5 4h-157q-6 0 -6 5v1l9 39l211 225l6 2h47q5 0 5 -4v-2l-42 -215v-2q0 -4 5 -4h44q5 0 5 -4
v-2zM327 10q-7 -10 -18 -10h-23q-18 0 -18 16q0 6 3 12l352 592q7 10 18 10h23q18 0 18 -17q0 -5 -3 -11zM241 283q0 -6 -7 -6h-196q-5 0 -5 4v2l7 33q1 6 7 6h63q7 0 8 5l40 203v1q0 5 -4 5q-3 0 -6 -3l-36 -27q-2 -2 -5 -2q-2 0 -4 2l-22 24q-2 1 -2 4q0 1 3 4l120 90l4 2
h22q5 0 5 -4v-2l-58 -297v-1q0 -4 5 -4h63q5 0 5 -4v-2z" />
    <glyph glyph-name="onesuperior" unicode="&#xb9;" horiz-adv-x="337" 
d="M253 258q-2 -6 -8 -6h-205q-5 0 -5 4v2l7 36q1 6 8 6h66q7 0 7 6l43 217v1q0 5 -5 5q-4 0 -6 -2l-38 -30q-2 -2 -5 -2l-4 2l-24 26q-1 1 -1 4q0 2 3 5l125 96l5 2h23q5 0 5 -4v-2l-61 -318v-2q0 -4 5 -4h66q5 0 5 -4v-2z" />
    <glyph glyph-name="scaron" unicode="&#x161;" horiz-adv-x="440" 
d="M257 460q34 0 60.5 -8.5t45.5 -22.5t29 -32t10 -37q0 -5 -7 -8l-63 -29l-6 -2q-2 0 -6 6q-15 25 -30 40.5t-46 15.5h-30q-40 0 -61.5 -17t-21.5 -43q0 -15 7.5 -23.5t22 -14.5t35.5 -11t49 -11q62 -14 92.5 -35t30.5 -64q0 -36 -14.5 -67.5t-40 -55t-61 -37.5t-78.5 -14
h-30q-35 0 -62 9t-45.5 23.5t-28 32t-9.5 35.5q0 5 7 8l63 29l3 1.5t3 0.5t7 -6l13.5 -21.5t15 -18t19.5 -12t28 -4.5h30q38 0 62 19.5t24 45.5q0 15 -7.5 23.5t-22 14t-36.5 10l-50 10.5q-61 14 -90.5 34t-29.5 64q0 36 14.5 67t39.5 54.5t59.5 37t75.5 13.5h30zM281 508
l-9 -4h-36l-7 4l-67 125q-2 4 -2 7q0 9 13 9h48l7 -5l31 -68q3 -6 7 -6q3 0 8 6l56 68q4 5 13 5h44q10 0 10 -7q0 -2 -5 -9z" />
    <glyph glyph-name="thorn" unicode="&#xfe;" horiz-adv-x="475" 
d="M327 280q1 5 1 15q0 32 -21 53.5t-57 21.5q-18 0 -35 -7.5t-31.5 -19.5t-24 -28.5t-12.5 -34.5l-19 -110q-1 -5 -1 -15q0 -32 21 -53.5t54 -21.5q19 0 37 7t32.5 19.5t24 29t12.5 34.5zM398 170q-6 -34 -24 -65.5t-47 -57.5q-51 -47 -129 -47q-18 0 -32.5 5t-25 11.5
l-18 11.5t-12.5 5q-6 0 -8 -11l-42 -237q-1 -10 -12 -10h-70q-8 0 -8 7v3l147 835q3 10 12 10h70q8 0 8 -7v-3l-34 -192v-3q0 -9 6 -9q4 0 10.5 5.5t17.5 11.5t27.5 11.5t39.5 5.5q66 0 106 -37t40 -100q0 -17 -3 -33z" />
    <glyph glyph-name="threequarters" unicode="&#xbe;" horiz-adv-x="954" 
d="M836 260q0 5 -4 5q-3 0 -6 -3l-121 -127q-2 -2 -2 -5q0 -4 6 -4h95q5 0 7 6l25 127v1zM915 87q0 -6 -6 -6h-45q-6 0 -7 -5l-14 -70q-2 -6 -8 -6h-44q-5 0 -5 4v2l14 70v1q0 4 -5 4h-157q-6 0 -6 5v1l9 39l211 225l6 2h47q5 0 5 -4v-2l-42 -215v-2q0 -4 5 -4h44q5 0 5 -4
v-2zM327 10q-7 -10 -18 -10h-23q-18 0 -18 16q0 6 3 12l352 592q7 10 18 10h23q18 0 18 -17q0 -5 -3 -11zM287 526q-2 -8 -6.5 -17.5t-12.5 -17.5q-15 -17 -26 -24t-11 -9q0 -3 7 -8.5t12 -15.5q11 -18 11 -37q0 -6 -1 -9l-3 -17q-8 -46 -44 -73t-90 -27h-18q-45 0 -69 19
t-24 39q0 3 4 4l43 18q1 0 2 0.5t2 0.5q3 0 4 -4q14 -32 46 -32h19q24 0 43 15t24 36l4 19v9q0 17 -13 29.5t-34 12.5h-50q-5 0 -5 4v1l7 34q0 5 7 5h50q23 0 42.5 14.5t24.5 36.5l2 8q0 3 0.5 5t0.5 5q0 17 -13.5 29t-34.5 12h-19q-25 0 -38 -13q-11 -10 -17 -16t-10 -6h-3
l-36 18q-3 1 -3 4q0 5 10.5 16t34.5 25q27 16 71 16h19q45 0 70.5 -20.5t25.5 -55.5q0 -12 -3 -24z" />
    <glyph glyph-name="threesuperior" unicode="&#xb3;" horiz-adv-x="337" 
d="M301 519q-2 -8 -7 -18.5t-13 -19.5q-17 -17 -28 -25t-11 -10q0 -3 7.5 -9t12.5 -16q11 -19 11 -41v-9l-4 -18q-9 -50 -46.5 -78.5t-93.5 -28.5h-19q-23 0 -41 5.5t-30.5 14.5t-19 20t-6.5 21q0 4 4 5l45 19q1 1 4 1q2 0 5 -4q13 -34 48 -34h20q25 0 45 15.5t25 38.5l4 21
v10q0 18 -13.5 31t-35.5 13h-53q-5 0 -5 4v2l7 36q1 6 7 6h53q24 0 44.5 15.5t25.5 38.5l2 9q1 4 1 10q0 19 -14 31.5t-36 12.5h-20q-25 0 -40 -13q-12 -11 -17.5 -17.5t-10.5 -6.5h-3l-38 20q-3 1 -3 4q0 5 11 17t36 27q14 8 32.5 12.5t41.5 4.5h20q48 0 74.5 -22t26.5 -60
q0 -13 -3 -26z" />
    <glyph glyph-name="twosuperior" unicode="&#xb2;" horiz-adv-x="337" 
d="M211 636q47 0 74 -22t27 -58q0 -43 -26 -75t-80 -60l-45 -22.5t-37 -21.5t-26.5 -24t-13.5 -31l-2 -16v-2q0 -4 5 -4h165q5 0 5 -4v-2l-6 -36q-2 -6 -8 -6h-225q-5 0 -5 4v2l12 64q5 25 16 44t28.5 35.5t41 30.5t53.5 28q42 21 64.5 39t22.5 44q0 20 -14 32.5t-36 12.5
h-25q-25 0 -40 -13q-12 -11 -17.5 -17.5t-10.5 -6.5h-3l-38 20q-3 1 -3 4q0 5 11 17t36 27q14 8 32.5 12.5t41.5 4.5h26z" />
    <glyph glyph-name="yacute" unicode="&#xfd;" horiz-adv-x="480" 
d="M427 450q9 0 9 -10q0 -28 -7 -50t-10 -40l-71 -405q-15 -85 -70.5 -132.5t-140.5 -47.5q-36 0 -63.5 10t-46.5 25t-29 33t-10 33q0 5 7 8l68 32q2 1 5 1q4 0 9 -6l13 -22t13.5 -17.5t18.5 -12t29 -4.5q19 0 37 7t32 19.5t24 29t13 34.5l14 83v3q0 8 -7 8q-4 0 -11 -4.5
t-17.5 -10t-25 -10t-32.5 -4.5q-72 0 -112.5 36.5t-40.5 98.5q0 17 3 35l48 270q1 10 11 10h70q9 0 9 -8v-2l-48 -270q-1 -4 -1 -8v-8q0 -31 21 -52.5t54 -21.5q19 0 36.5 7t32 19.5t24.5 29t13 34.5l48 270q1 10 11 10h70zM281 508l-8 -3h-43q-9 0 -9 7q0 4 4 8l104 125
q2 2 9 5h88q10 0 10 -7q0 -6 -6 -10z" />
    <glyph glyph-name="zcaron" unicode="&#x17e;" horiz-adv-x="430" 
d="M141 95q-2 -2 -3 -4t-1 -5q0 -6 10 -6h194q8 0 8 -7v-3l-10 -60q-1 -10 -12 -10h-349q-10 0 -10 6q0 3 4 9l262 339q4 6 4 9q0 6 -10 6h-175q-8 0 -8 7v3l10 60q1 10 12 10h331q11 0 11 -7q0 -2 -4 -8zM267 508l-9 -4h-36l-7 4l-67 125q-2 4 -2 7q0 9 13 9h48l7 -5
l31 -68q3 -6 7 -6q3 0 8 6l56 68q4 5 13 5h44q10 0 10 -7q0 -2 -5 -9z" />
  </font>
</defs>
</svg>
